<svg width="32" height="32" viewBox="0 0 32 32" fill="none" xmlns="http://www.w3.org/2000/svg">
<mask id="mask0_1366_577" style="mask-type:alpha" maskUnits="userSpaceOnUse" x="0" y="0" width="32" height="32">
<rect width="32" height="32" fill="#D9D9D9"/>
</mask>
<g mask="url(#mask0_1366_577)">
<path d="M17.4667 18.0443L15.711 15.7777C15.5926 15.6297 15.4444 15.5593 15.2667 15.5667C15.0889 15.574 14.9408 15.6518 14.8223 15.8L12.6777 18.6223C12.5443 18.8148 12.5277 19.011 12.6277 19.211C12.7277 19.411 12.8926 19.511 13.1223 19.511H24.011C24.2408 19.511 24.4057 19.411 24.5057 19.211C24.6057 19.011 24.589 18.8148 24.4557 18.6223L21.2223 14.3C21.1037 14.1518 20.9554 14.0777 20.7777 14.0777C20.5999 14.0777 20.4518 14.1518 20.3333 14.3L17.4667 18.0443ZM9.66667 25.2223C9.06667 25.2223 8.54633 25.0019 8.10567 24.561C7.66478 24.1203 7.44433 23.6 7.44433 23V5.22233C7.44433 4.62233 7.66478 4.10189 8.10567 3.661C8.54633 3.22033 9.06667 3 9.66667 3H27.4443C28.0443 3 28.5648 3.22033 29.0057 3.661C29.4463 4.10189 29.6667 4.62233 29.6667 5.22233V23C29.6667 23.6 29.4463 24.1203 29.0057 24.561C28.5648 25.0019 28.0443 25.2223 27.4443 25.2223H9.66667ZM5.22233 29.6667C4.62233 29.6667 4.10189 29.4463 3.661 29.0057C3.22033 28.5648 3 28.0443 3 27.4443V8.55567C3 8.237 3.10556 7.97211 3.31667 7.761C3.52778 7.54989 3.79256 7.44433 4.111 7.44433C4.42967 7.44433 4.69456 7.54989 4.90567 7.761C5.11678 7.97211 5.22233 8.237 5.22233 8.55567V27.4443H24.111C24.4297 27.4443 24.6946 27.5499 24.9057 27.761C25.1168 27.9721 25.2223 28.237 25.2223 28.5557C25.2223 28.8741 25.1168 29.1389 24.9057 29.35C24.6946 29.5611 24.4297 29.6667 24.111 29.6667H5.22233Z" fill="#F99549"/>
</g>
</svg>
