<svg width="32" height="32" viewBox="0 0 32 32" fill="none" xmlns="http://www.w3.org/2000/svg">
<mask id="mask0_993_571" style="mask-type:alpha" maskUnits="userSpaceOnUse" x="0" y="0" width="32" height="32">
<rect width="32" height="32" fill="#D9D9D9"/>
</mask>
<g mask="url(#mask0_993_571)">
<path d="M12.7333 16.0001L22.5333 25.8001C22.8666 26.1335 23.0278 26.5224 23.0166 26.9668C23.0055 27.4113 22.8333 27.8001 22.5 28.1335C22.1666 28.4668 21.7778 28.6335 21.3333 28.6335C20.8889 28.6335 20.5 28.4668 20.1666 28.1335L9.89998 17.9001C9.63331 17.6335 9.43331 17.3335 9.29998 17.0001C9.16664 16.6668 9.09998 16.3335 9.09998 16.0001C9.09998 15.6668 9.16664 15.3335 9.29998 15.0001C9.43331 14.6668 9.63331 14.3668 9.89998 14.1001L20.1666 3.83348C20.5 3.50015 20.8944 3.33904 21.35 3.35015C21.8055 3.36126 22.2 3.53348 22.5333 3.86681C22.8666 4.20015 23.0333 4.58904 23.0333 5.03348C23.0333 5.47793 22.8666 5.86681 22.5333 6.20015L12.7333 16.0001Z" fill="#444444"/>
</g>
</svg>
