<svg width="32" height="32" viewBox="0 0 32 32" fill="none" xmlns="http://www.w3.org/2000/svg">
<mask id="mask0_1402_666" style="mask-type:alpha" maskUnits="userSpaceOnUse" x="0" y="0" width="32" height="32">
<rect width="32" height="32" fill="#D9D9D9"/>
</mask>
<g mask="url(#mask0_1402_666)">
<path d="M12.4223 16.0004L22.6889 26.267C22.9629 26.541 23.0981 26.8744 23.0943 27.267C23.0907 27.6597 22.9518 28.0005 22.6776 28.2894C22.3887 28.5782 22.0481 28.7227 21.6556 28.7227C21.2629 28.7227 20.9222 28.5782 20.6333 28.2894L9.89995 17.567C9.67773 17.3448 9.51473 17.0967 9.41095 16.8227C9.30739 16.5485 9.25562 16.2744 9.25562 16.0004C9.25562 15.7264 9.30739 15.4522 9.41095 15.178C9.51473 14.904 9.67773 14.6559 9.89995 14.4337L20.6556 3.67803C20.9445 3.38914 21.2834 3.25025 21.6723 3.26136C22.0612 3.27247 22.4001 3.42247 22.6889 3.71136C22.9629 4.00025 23.1036 4.33736 23.1109 4.72269C23.1185 5.1078 22.9778 5.4448 22.6889 5.73369L12.4223 16.0004Z" fill="#444444"/>
</g>
</svg>
