<svg width="232" height="335" viewBox="0 0 232 335" fill="none" xmlns="http://www.w3.org/2000/svg">
<g clip-path="url(#clip0_892_734)">
<path d="M115.79 1.32783C115.79 1.32783 78.7539 0.325493 61.9866 23.4496C61.9866 23.4496 61.7508 18.4203 54.5287 16.9168C47.3065 15.4133 42.6518 14.9033 35.8925 26.7203C29.1419 38.5373 43.8133 47.8397 47.3065 45.3251C47.3065 45.3251 27.1421 89.9378 49.8216 111.541C49.8216 111.541 -22.3826 158.299 9.37923 187.182C28.3822 204.468 48.7911 177.844 48.7911 177.844C48.7911 177.844 44.0753 219.916 40.7044 235.602C37.7352 249.406 36.565 281.252 40.2415 300.384C43.595 317.82 48.3719 332.934 62.1351 333.629C78.2649 334.446 85.3211 324.37 87.3472 318.497C88.4999 315.164 90.9102 312.492 96.5342 309.942C102.158 307.392 107.747 306.363 113.633 306.363H117.904C123.79 306.363 129.632 307.515 135.003 309.942C140.374 312.368 143.046 315.164 144.19 318.497C146.216 324.37 153.272 334.437 169.402 333.629C183.165 332.934 187.942 317.82 191.296 300.384C194.972 281.252 193.802 249.406 190.833 235.602C187.462 219.907 182.746 177.844 182.746 177.844C182.746 177.844 203.635 202.859 222.647 185.573C254.409 156.69 181.716 111.532 181.716 111.532C204.395 89.929 184.231 45.3163 184.231 45.3163C187.724 47.8309 202.395 38.5286 195.645 26.7115C188.894 14.8945 184.231 15.3957 177.009 16.908C169.786 18.4203 169.551 23.4408 169.551 23.4408C152.801 0.3167 115.764 1.32783 115.764 1.32783" fill="#CCB5A9"/>
<path d="M115.79 1.32783C115.79 1.32783 78.7539 0.325492 61.9866 23.4496C61.9866 23.4496 61.7508 18.4203 54.5287 16.9168C47.3065 15.4133 42.6518 14.9033 35.8925 26.7203C29.1419 38.5373 43.8133 47.8397 47.3065 45.3251C47.3065 45.3251 27.1421 89.9378 49.8216 111.541C49.8216 111.541 -22.3826 158.299 9.37923 187.182C28.3822 204.468 48.7911 177.844 48.7911 177.844C48.7911 177.844 44.0753 219.916 40.7044 235.602C37.7352 249.406 36.565 281.252 40.2415 300.384C43.595 317.82 48.3719 332.934 62.1351 333.629C78.2649 334.446 85.3211 324.37 87.3472 318.497C88.4999 315.164 90.9102 312.492 96.5342 309.942C102.158 307.392 107.747 306.363 113.633 306.363H117.904C123.79 306.363 129.632 307.515 135.003 309.942C140.374 312.368 143.046 315.164 144.19 318.497C146.216 324.37 153.272 334.437 169.402 333.629C183.165 332.934 187.942 317.82 191.296 300.384C194.972 281.252 193.802 249.406 190.833 235.602C187.462 219.907 182.746 177.844 182.746 177.844C182.746 177.844 203.635 202.859 222.647 185.573C254.409 156.69 181.716 111.532 181.716 111.532C204.395 89.929 184.231 45.3163 184.231 45.3163C187.724 47.8309 202.395 38.5286 195.645 26.7115C188.894 14.8945 184.231 15.3957 177.009 16.908C169.786 18.4203 169.551 23.4408 169.551 23.4408C152.801 0.3167 115.764 1.32783 115.764 1.32783" stroke="#997977" stroke-width="3" stroke-linecap="round" stroke-linejoin="round"/>
<path d="M70.3178 47.004L70.1781 50.3891C70.0907 52.4201 70.7719 53.9588 73.0425 54.6095L73.287 54.6798C74.9113 55.0579 76.5531 54.3369 77.2518 53.1323C77.7059 52.3498 77.9155 51.453 77.9591 50.5474L78.0727 48.1822C78.1775 45.9665 76.3959 43.8915 74.6057 43.6893L73.8983 43.6277C73.1648 43.5662 72.405 43.6717 71.7675 44.0498C70.9378 44.5509 70.3789 45.3598 70.3178 46.9864V47.004Z" fill="#8A605A"/>
<path d="M149.177 42.9512C147.142 43.0039 145.509 44.3931 145.474 46.1077L145.386 50.5127C145.352 52.3766 147.194 53.8714 149.395 53.7746L150.216 53.7395C152.451 53.6428 152.984 51.9106 153.133 50.1258L153.054 45.7208C152.783 44.103 151.107 42.916 149.168 42.96L149.177 42.9512Z" fill="#8A605A"/>
<path d="M104.857 55.6476C104.857 55.6476 87.286 62.9365 90.1068 78.4639C92.9275 93.9914 106.333 95.8817 106.333 95.8817C106.333 95.8817 135.16 97.6402 137.439 81.9721C139.719 66.304 124.165 55.2432 118.262 55.2432C112.358 55.2432 104.848 55.6476 104.848 55.6476H104.857Z" fill="white"/>
<path d="M107.101 53.0974C109.18 52.0863 111.564 51.972 113.791 52.5699C116.017 53.1677 118.48 54.1789 118.646 55.9198C118.934 58.9004 117.616 63.2087 113.398 62.7779C109.18 62.347 103.721 61.2919 104.621 55.8494C104.839 54.5569 105.896 53.6865 107.101 53.0974Z" fill="#8A605A"/>
</g>
<defs>
<clipPath id="clip0_892_734">
<rect width="232" height="335" fill="white"/>
</clipPath>
</defs>
</svg>
