<svg width="232" height="335" viewBox="0 0 232 335" fill="none" xmlns="http://www.w3.org/2000/svg">
<g clip-path="url(#clip0_875_1271)">
<path d="M115.871 1.00653C115.871 1.00653 78.5971 -0.00437391 61.7223 23.1234C61.7223 23.1234 61.485 18.0953 54.2166 16.5921C46.9481 15.0889 42.2636 14.5791 35.4609 26.3935C28.667 38.208 43.4325 47.5083 46.9481 44.9942C46.9481 44.9942 32.1826 64.597 36.8671 95.0122C36.8671 95.0122 5.45537 97.4032 21.6271 155.333L29.1328 173.555C29.1328 173.555 23.3321 220.303 22.1544 234.377C20.9767 248.45 18.6388 284.896 24.9669 301.484C31.2949 318.071 42.3163 332.4 56.1413 333.402C69.9664 334.404 72.2603 322.598 75.5386 317.315C78.272 312.92 77.103 309.043 92.6419 305.984C98.6975 304.789 104.867 304.253 111.037 304.253H121.215C127.033 304.253 132.843 304.78 138.547 305.923C153.839 308.991 150.781 312.894 153.532 317.324C156.81 322.598 161.741 334.413 175.566 333.411C189.391 332.409 200.412 318.08 206.74 301.492C213.068 284.905 210.722 248.459 209.553 234.386C208.384 220.312 202.574 173.564 202.574 173.564L210.08 155.341C226.252 97.4032 194.84 95.021 194.84 95.021C199.525 64.6058 184.759 45.003 184.759 45.003C188.275 47.5171 203.04 38.2167 196.246 26.4023C189.452 14.5879 184.759 15.0889 177.491 16.6009C170.222 18.1129 169.985 23.1322 169.985 23.1322C153.145 -0.00437391 115.871 1.00653 115.871 1.00653Z" fill="#CCB5A9" stroke="#997977" stroke-width="3" stroke-linecap="round" stroke-linejoin="round"/>
<path d="M194.26 94.8269C196.149 94.6247 162.163 93.728 158.911 143.008L194.26 94.8269Z" fill="#CCB5A9"/>
<path d="M194.26 94.8269C196.149 94.6247 162.163 93.728 158.911 143.008" stroke="#997977" stroke-width="3" stroke-linecap="round" stroke-linejoin="round"/>
<path d="M36.2605 94.8269C34.3709 94.6247 68.3578 93.728 71.6097 143.008L36.2605 94.8269Z" fill="#CCB5A9"/>
<path d="M36.2605 94.8269C34.3709 94.6247 68.3578 93.728 71.6097 143.008" stroke="#997977" stroke-width="3" stroke-linecap="round" stroke-linejoin="round"/>
<path d="M70.107 46.6727L69.9663 50.0571C69.8784 52.0877 70.564 53.626 72.8491 54.2765L73.0952 54.3468C74.7299 54.7248 76.3823 54.004 77.0854 52.7997C77.5424 52.0173 77.7534 51.1207 77.7973 50.2153L77.9116 47.8506C78.017 45.6354 76.2241 43.5609 74.4223 43.3587L73.7104 43.2972C72.9722 43.2356 72.2075 43.3411 71.5659 43.7191C70.731 44.2202 70.1685 45.0289 70.107 46.6551V46.6727Z" fill="#8A605A"/>
<path d="M149.471 42.6206C147.423 42.6733 145.78 44.0622 145.745 45.7764L145.657 50.1804C145.622 52.044 147.476 53.5384 149.691 53.4417L150.517 53.4066C152.767 53.3099 153.303 51.5781 153.453 49.7937L153.373 45.3896C153.101 43.7722 151.414 42.5854 149.462 42.6294L149.471 42.6206Z" fill="#8A605A"/>
<path d="M104.867 55.315C104.867 55.315 87.1841 62.6023 90.0229 78.1264C92.853 93.6504 106.353 95.5404 106.353 95.5404C106.353 95.5404 135.365 97.2985 137.659 81.6338C139.953 65.9779 124.3 54.9106 118.359 54.9106C112.417 54.9106 104.859 55.315 104.859 55.315H104.867Z" fill="white"/>
<path d="M107.126 52.7652C109.218 51.7543 111.617 51.64 113.859 52.2377C116.1 52.8355 118.578 53.8464 118.745 55.5869C119.035 58.5669 117.708 62.8743 113.463 62.4435C109.218 62.0128 103.725 60.9579 104.63 55.5166C104.85 54.2244 105.913 53.3541 107.126 52.7652Z" fill="#8A605A"/>
</g>
<defs>
<clipPath id="clip0_875_1271">
<rect width="232" height="335" fill="white"/>
</clipPath>
</defs>
</svg>
