<svg width="232" height="333" viewBox="0 0 232 333" fill="none" xmlns="http://www.w3.org/2000/svg">
<g clip-path="url(#clip0_1288_597)">
<path d="M115.797 1.36531C115.797 1.36531 78.7651 0.364279 62.0094 23.349C62.0094 23.349 61.7756 18.3568 54.5537 16.8488C47.3318 15.3538 42.6818 14.8467 35.9275 26.5991C29.1732 38.3385 43.8508 47.5818 47.3318 45.0857C47.3318 45.0857 27.1729 89.4301 49.8517 110.894C49.8517 110.894 -22.328 157.37 9.41702 186.075C28.4199 203.249 48.8126 176.793 48.8126 176.793C48.8126 176.793 44.0976 218.602 40.7204 234.203C37.7589 247.931 36.5899 279.574 40.2658 298.594C43.617 315.923 48.3969 330.939 62.1522 331.628C78.2715 332.434 85.3375 322.423 87.3638 316.586C88.5069 313.271 90.9228 310.619 96.547 308.084C102.171 305.549 107.757 304.522 113.641 304.522H117.914C123.798 304.522 129.643 305.666 135.007 308.084C140.632 310.606 143.048 313.271 144.191 316.586C146.217 322.423 153.27 332.434 169.402 331.628C183.157 330.939 187.937 315.923 191.289 298.594C194.964 279.574 193.795 247.931 190.834 234.203C187.47 218.602 182.742 176.793 182.742 176.793C182.742 176.793 203.628 201.65 222.631 184.476C254.389 155.771 181.716 110.894 181.716 110.894C204.394 89.4171 184.236 45.0857 184.236 45.0857C187.73 47.5818 202.394 38.3385 195.64 26.5991C188.886 14.8597 184.236 15.3538 177.014 16.8488C169.792 18.3439 169.558 23.349 169.558 23.349C152.802 0.364279 115.771 1.36531 115.771 1.36531" fill="#CCB5A9"/>
<path d="M167.571 331.718C161.245 331.718 155.842 330.015 151.49 326.635C146.736 322.943 144.775 318.393 144.165 316.599C142.905 312.984 140.164 310.449 134.994 308.122C129.747 305.769 124.006 304.573 117.914 304.573H113.641C107.562 304.573 101.808 305.769 96.56 308.122C91.3904 310.449 88.6497 312.984 87.3898 316.599C86.7663 318.38 84.818 322.943 80.064 326.635C75.2971 330.327 69.2702 332.03 62.1523 331.666C55.8136 331.341 50.9428 327.974 47.2669 321.37C43.6949 314.935 41.6946 306.25 40.2269 298.593C38.5383 289.883 37.733 277.74 37.9668 264.402C38.1746 252.429 39.1878 241.131 40.6945 234.189C43.9287 219.226 48.4619 179.652 48.7606 176.935C48.2541 177.559 45.6952 180.679 41.8765 183.89C37.9538 187.18 31.849 191.236 25.0817 191.834C19.4445 192.341 14.158 190.417 9.39106 186.1C3.49406 180.77 0.805348 174.439 1.38985 167.276C1.88343 161.205 4.74101 154.457 9.88464 147.216C13.9892 141.431 19.5614 135.334 26.4326 129.081C37.772 118.758 48.9944 111.413 49.7868 110.893C44.6301 105.992 41.292 99.4918 39.8502 91.5615C38.6942 85.2043 38.7721 77.9241 40.045 69.9288C42.0973 57.0974 46.6694 46.4761 47.2409 45.1891C45.5523 46.2031 41.6816 44.8251 38.6682 42.095C37.1875 40.7559 35.2651 38.5199 34.4728 35.4518C33.7064 32.5007 34.187 29.5106 35.8886 26.5595C39.0968 20.9823 41.9154 17.9402 45.0458 16.7052C47.9423 15.5611 50.8129 16.0161 54.5537 16.7962C58.2945 17.5762 60.126 19.3052 61.0092 20.6183C61.8016 21.8013 61.9834 22.8804 62.0224 23.2184C65.8411 18.0052 71.0367 13.6111 77.4533 10.166C82.6099 7.38387 88.5718 5.1998 95.1702 3.67876C106.185 1.13068 115.355 1.29968 115.771 1.29968C116.199 1.29968 125.357 1.13068 136.371 3.67876C142.97 5.1998 148.932 7.38387 154.088 10.166C160.505 13.6241 165.7 18.0182 169.519 23.2184C169.558 22.8804 169.74 21.8013 170.532 20.6183C171.415 19.3052 173.247 17.5632 176.988 16.7962C180.729 16.0161 183.612 15.5611 186.496 16.7052C189.626 17.9532 192.458 20.9823 195.653 26.5595C197.354 29.5106 197.822 32.5007 197.069 35.4518C196.276 38.5199 194.354 40.7559 192.873 42.095C189.86 44.8251 186.002 46.2031 184.301 45.1891C184.859 46.4761 189.444 57.0974 191.496 69.9288C192.782 77.9241 192.847 85.2043 191.691 91.5615C190.262 99.4918 186.911 105.992 181.755 110.893C182.56 111.4 193.834 118.485 205.252 128.483C212.175 134.554 217.786 140.482 221.943 146.124C227.138 153.17 230.048 159.788 230.593 165.768C231.243 172.853 228.567 179.158 222.644 184.514C217.786 188.909 212.383 190.924 206.551 190.521C202.81 190.261 196.861 188.805 189.704 183.331C185.859 180.38 183.274 177.494 182.781 176.922C183.08 179.535 187.613 219.213 190.847 234.189C192.354 241.131 193.367 252.429 193.575 264.402C193.795 277.74 193.003 289.87 191.315 298.593C189.834 306.237 187.847 314.922 184.275 321.37C180.599 327.987 175.741 331.354 169.389 331.666C168.766 331.692 168.155 331.718 167.545 331.718H167.571ZM113.654 304.495H117.927C124.019 304.495 129.786 305.691 135.033 308.057C140.229 310.397 142.983 312.945 144.243 316.586C144.866 318.367 146.801 322.904 151.542 326.583C156.296 330.275 162.297 331.965 169.402 331.601C175.715 331.289 180.56 327.922 184.21 321.344C187.782 314.909 189.769 306.237 191.25 298.593C192.938 289.883 193.731 277.753 193.51 264.415C193.302 252.442 192.289 241.157 190.795 234.215C187.457 218.797 182.755 177.221 182.703 176.805V176.675L182.781 176.779C182.807 176.805 185.509 180.016 189.782 183.279C193.718 186.295 199.835 189.988 206.577 190.443C212.37 190.846 217.773 188.831 222.605 184.449C228.502 179.119 231.165 172.827 230.528 165.768C229.983 159.801 227.086 153.209 221.904 146.176C217.76 140.547 212.149 134.606 205.226 128.548C193.445 118.225 181.807 110.997 181.703 110.932L181.651 110.906L181.69 110.867C186.859 105.979 190.198 99.4788 191.639 91.5485C192.782 85.2043 192.717 77.9371 191.444 69.9418C189.262 56.3304 184.249 45.2021 184.197 45.0981L184.132 44.9551L184.262 45.0461C185.859 46.1901 189.795 44.812 192.847 42.043C194.315 40.7169 196.224 38.4809 197.017 35.4388C197.77 32.5137 197.303 29.5496 195.614 26.6115C188.964 15.0411 184.443 15.3531 177.027 16.8872C173.312 17.6542 171.493 19.3702 170.623 20.6703C169.675 22.0873 169.61 23.3224 169.61 23.3354V23.4524L169.532 23.3614C165.713 18.1222 160.505 13.7151 154.062 10.244C148.906 7.47488 142.957 5.29081 136.371 3.76976C125.435 1.24768 116.342 1.39068 115.797 1.39068H115.771C115.225 1.39068 106.133 1.23468 95.1962 3.76976C88.6108 5.29081 82.6618 7.47488 77.5052 10.244C71.0627 13.7151 65.8671 18.1222 62.0354 23.3614L61.9704 23.4524V23.3354C61.9704 23.3354 61.8925 22.0743 60.9443 20.6703C60.074 19.3702 58.2556 17.6542 54.5407 16.8872C47.124 15.3531 42.6039 15.0411 35.9535 26.6115C34.2649 29.5496 33.7973 32.5137 34.5507 35.4388C35.33 38.4809 37.2524 40.7039 38.7201 42.043C41.7726 44.812 45.7082 46.1901 47.3059 45.0461L47.4358 44.9551L47.3708 45.0981C47.3189 45.2151 42.3051 56.3434 40.123 69.9418C38.8371 77.9371 38.7721 85.2043 39.9281 91.5485C41.3569 99.4788 44.7081 105.979 49.8777 110.867L49.9166 110.906L49.8777 110.932C49.7608 111.01 38.1876 118.498 26.4845 129.146C19.6134 135.399 14.0541 141.496 9.94958 147.268C4.81894 154.483 1.97436 161.218 1.48077 167.276C0.896271 174.413 3.58499 180.718 9.456 186.035C14.21 190.326 19.4575 192.25 25.0817 191.743C28.8096 191.405 34.7325 189.767 41.8375 183.812C46.0849 180.25 48.7736 176.792 48.7996 176.753L48.8905 176.636V176.779C48.8256 177.195 44.1236 218.771 40.7854 234.189C39.2917 241.131 38.2655 252.416 38.0707 264.389C37.8499 277.714 38.6422 289.857 40.3308 298.567C41.8115 306.211 43.7988 314.883 47.3708 321.318C51.0207 327.909 55.8656 331.263 62.1782 331.575C69.2832 331.939 75.2971 330.249 80.0381 326.557C84.779 322.878 86.7274 318.341 87.3379 316.56C88.5978 312.919 91.3515 310.371 96.5471 308.031C101.808 305.665 107.562 304.469 113.654 304.469V304.495Z" fill="white"/>
<path d="M167.57 332.979C160.959 332.979 155.296 331.185 150.723 327.636C145.697 323.736 143.632 318.913 142.969 317.015C142.177 314.714 140.54 312.01 134.487 309.28C129.409 306.992 123.836 305.835 117.926 305.835H113.653C107.743 305.835 102.184 306.992 97.092 309.28C91.0392 311.997 89.4025 314.714 88.6102 317.015C87.9478 318.913 85.8825 323.736 80.8558 327.636C75.8421 331.523 69.5424 333.317 62.0997 332.94C46.7078 332.173 42.1097 314.935 38.9924 298.84C35.3814 280.185 36.2777 248.62 39.46 233.929C42.1487 221.475 45.7596 191.795 47.0455 180.823C42.941 185.113 34.7709 192.25 25.1981 193.108C19.1842 193.654 13.5859 191.613 8.54621 187.05C2.33748 181.434 -0.494112 174.751 0.129359 167.172C1.05158 155.797 9.6243 142.666 25.5748 128.145C35.0177 119.552 44.3828 112.999 47.7989 110.698C39.0833 101.546 35.9659 87.4406 38.7975 69.7341C40.4471 59.4378 43.6164 50.7275 45.2011 46.7884C42.8111 46.5544 39.9535 44.9813 37.8233 43.0442C32.5238 38.2471 31.3938 31.8509 34.7969 25.9357C41.759 13.8323 47.0066 13.9363 54.8259 15.5614C59.398 16.5104 61.5152 18.7595 62.4894 20.5925C69.6463 11.9603 80.7909 5.70706 94.8969 2.44396C105.976 -0.104122 114.965 0.0258823 115.783 0.0518831C116.601 0.0388827 125.59 -0.104122 136.669 2.45696C150.775 5.72006 161.92 11.9733 169.077 20.6055C170.051 18.7725 172.168 16.5234 176.74 15.5744C184.56 13.9493 189.807 13.8453 196.769 25.9487C200.173 31.8509 199.029 38.2471 193.743 43.0572C191.613 44.9943 188.755 46.5674 186.365 46.8014C187.95 50.7405 191.119 59.4508 192.769 69.7471C195.6 87.4276 192.496 101.533 183.793 110.685C191.756 115.808 229.657 141.431 231.866 165.664C232.554 173.165 229.735 179.835 223.501 185.464C218.383 190.092 212.655 192.224 206.472 191.795C196.847 191.132 188.586 184.489 184.482 180.537C185.742 191.262 189.379 221.358 192.093 233.929C195.276 248.633 196.172 280.185 192.561 298.84C189.444 314.935 184.833 332.16 169.454 332.94C168.804 332.966 168.168 332.992 167.544 332.992L167.57 332.979ZM113.653 303.221H117.926C124.2 303.221 130.136 304.457 135.552 306.901C141.099 309.397 144.047 312.166 145.437 316.17C146.307 318.692 151.555 331.224 169.337 330.327C181.481 329.716 186.378 317.106 190.002 298.346C193.496 280.289 192.613 248.646 189.548 234.488C186.196 219.005 181.481 177.377 181.442 176.961C181.377 176.389 181.689 175.843 182.222 175.609C182.754 175.388 183.365 175.531 183.741 175.973C183.845 176.09 194.301 188.35 206.667 189.195C212.096 189.572 217.175 187.661 221.747 183.527C227.332 178.483 229.865 172.554 229.255 165.911C226.956 140.69 181.481 112.31 181.014 112.037C180.663 111.829 180.442 111.465 180.403 111.062C180.364 110.659 180.507 110.256 180.806 109.97C187.041 104.068 193.717 92.3938 190.184 70.2281C188.041 56.7857 183.079 45.7613 183.027 45.6573C182.78 45.1113 182.923 44.4743 183.391 44.0973C183.845 43.7203 184.508 43.6943 184.988 44.0453C185.703 44.5523 188.833 43.9933 191.989 41.1332C194.055 39.2481 198.458 34.139 194.509 27.2747C187.989 15.9384 183.728 16.8224 177.286 18.1615C171.233 19.4225 170.882 23.2836 170.869 23.4526C170.83 23.9986 170.454 24.4797 169.921 24.6227C169.389 24.7787 168.83 24.5837 168.505 24.1416C152.646 2.37896 117.524 2.63896 115.861 2.66497C115.835 2.66497 115.809 2.66497 115.783 2.66497C115.757 2.66497 115.731 2.66497 115.705 2.66497C114.069 2.65197 78.9205 2.37896 63.0609 24.1156C62.7362 24.5707 62.1517 24.7527 61.6321 24.5967C61.0996 24.4407 60.7229 23.9596 60.6969 23.4006C60.6969 23.2576 60.3462 19.3835 54.2934 18.1225C47.8508 16.7834 43.5905 15.8994 37.07 27.2357C33.1213 34.1 37.5116 39.2091 39.5898 41.0942C42.7462 43.9673 45.8765 44.5263 46.5909 44.0063C47.0715 43.6553 47.7209 43.6813 48.1885 44.0583C48.6432 44.4353 48.799 45.0723 48.5522 45.6183C48.5003 45.7223 43.5385 56.7467 41.3953 70.1891C37.8623 92.3548 44.5387 104.029 50.7734 109.931C51.0591 110.204 51.215 110.607 51.176 111.01C51.137 111.413 50.9162 111.777 50.5785 111.985C50.1239 112.284 4.84435 141.717 2.75313 167.38C2.20759 174.101 4.75343 180.056 10.3257 185.1C14.7939 189.143 19.7297 190.95 24.9773 190.482C37.3298 189.377 47.708 176.116 47.8119 175.986C48.1756 175.518 48.799 175.349 49.3446 175.57C49.8901 175.791 50.2148 176.35 50.1499 176.935C50.0979 177.352 45.3829 218.992 42.0448 234.462C38.9794 248.62 38.0961 280.263 41.5902 298.32C45.2141 317.08 50.1239 329.69 62.2556 330.301C80.0245 331.198 85.285 318.666 86.1553 316.144C87.5451 312.14 90.5066 309.371 96.0399 306.875C101.456 304.431 107.392 303.195 113.666 303.195L113.653 303.221Z" fill="#997977"/>
<path d="M74.0892 44.6051L71.1018 46.1521C69.3093 47.0752 68.3221 48.4272 68.8807 50.7283L68.9456 50.9753C69.4262 52.5743 70.855 53.6404 72.2448 53.6534C73.141 53.6534 74.0243 53.4064 74.8166 52.9904L76.9078 51.9243C78.8692 50.9233 79.7784 48.3622 79.064 46.6982L78.7653 46.0481C78.4535 45.3721 77.9859 44.7741 77.3495 44.4101C76.5052 43.9291 75.531 43.8511 74.1022 44.5921L74.0892 44.6051Z" fill="#8A605A"/>
<path d="M144.788 45.1638C143.684 46.8668 143.892 48.9989 145.282 49.9869L148.841 52.535C150.348 53.614 152.608 52.938 153.777 51.0659L154.218 50.3639C155.4 48.4659 154.283 47.0488 152.907 45.9178L149.257 43.4997C147.776 42.8107 145.854 43.5257 144.801 45.1507L144.788 45.1638Z" fill="#8A605A"/>
<path d="M104.873 55.3428C104.873 55.3428 87.3124 62.584 90.131 78.0155C92.9496 93.447 106.354 95.319 106.354 95.319C106.354 95.319 135.177 97.0611 137.463 81.4996C139.736 65.9381 124.188 54.9268 118.291 54.9268C112.394 54.9268 104.886 55.3298 104.886 55.3298L104.873 55.3428Z" fill="white"/>
<path d="M107.12 52.8079C109.198 51.8069 111.575 51.6899 113.809 52.2879C116.043 52.8859 118.498 53.887 118.667 55.616C118.953 58.5801 117.628 62.8572 113.42 62.4412C109.211 62.0252 103.743 60.9722 104.639 55.551C104.847 54.264 105.912 53.3929 107.12 52.8209V52.8079Z" fill="#8A605A"/>
<path d="M150.802 52.8993C150.724 53.0813 150.503 53.2633 150.387 53.4843C150.205 53.8093 150.192 54.2123 150.361 54.5373C150.75 55.3173 151.569 55.3043 152.322 55.2913C153.023 55.2913 153.738 55.2783 154.439 55.2653C155.14 55.2523 155.972 55.3433 156.634 55.0053C157.297 54.6673 157.621 53.9393 157.388 53.2373C157.18 52.6133 156.595 52.2102 155.972 52.0672C154.504 51.7422 152.932 52.0412 151.478 52.2752C150.62 52.4182 150.815 53.8873 151.685 53.7963C153.049 53.6533 154.413 53.6663 155.777 53.8223C156.063 53.8613 156.348 53.9003 156.621 53.9653C156.777 54.0043 157.245 54.3813 156.998 53.8743C157.076 53.8093 157.076 53.7963 157.024 53.8353L156.907 53.8743C156.738 53.9263 156.543 53.9523 156.374 53.9783C156.05 54.0303 155.725 54.0823 155.413 54.1343C154.27 54.3033 153.036 54.5243 151.88 54.3943C151.659 54.3683 151.439 54.3163 151.231 54.2383C151.114 54.1993 150.997 54.1473 150.893 54.0823C150.841 54.0563 150.711 53.9263 150.672 53.9263C150.555 53.9263 150.581 54.2123 150.62 54.2253C150.62 54.2253 150.815 54.1213 150.828 54.1083C151.114 53.9783 151.439 53.8743 151.737 53.8483C152.153 53.8223 152.504 53.5103 152.504 53.0813C152.504 52.6913 152.153 52.2752 151.737 52.3142C151.049 52.3662 150.244 52.5742 149.685 53.0033C149.088 53.4713 148.945 54.2513 149.438 54.8623C150.257 55.8764 151.815 56.0194 153.023 55.9544C153.738 55.9154 154.452 55.8114 155.166 55.7203C155.881 55.6293 156.725 55.5773 157.44 55.3303C158.154 55.0833 158.699 54.4333 158.466 53.6663C158.258 52.9903 157.569 52.6003 156.92 52.4442C155.244 52.0412 153.387 52.0672 151.698 52.2362L151.906 53.7573C152.725 53.6273 153.556 53.4973 154.387 53.4843C154.764 53.4843 155.153 53.4843 155.517 53.5493C155.634 53.5753 155.751 53.6143 155.855 53.6403C155.855 53.6403 155.946 53.7313 155.933 53.7313C155.881 53.7313 155.959 53.6143 155.959 53.6143C155.92 53.5623 156.011 53.6403 155.959 53.6143C155.933 53.6143 155.829 53.6663 155.79 53.6663C155.608 53.7053 155.4 53.6923 155.205 53.6923C154.777 53.6923 154.348 53.6923 153.92 53.7053C153.491 53.7183 153.062 53.7053 152.634 53.7183C152.426 53.7183 152.231 53.7183 152.023 53.7183C151.945 53.7183 151.776 53.6923 151.698 53.7183C151.62 53.7443 151.698 53.7573 151.698 53.7183L151.802 54.1083C151.802 54.1083 151.711 54.2253 151.854 54.0693C151.971 53.9393 152.075 53.8093 152.14 53.6533C152.309 53.2633 152.257 52.8213 151.867 52.6002C151.543 52.4052 150.971 52.4962 150.815 52.8733L150.802 52.8993Z" fill="#B0DEEB"/>
<path d="M71.4525 54.5886C71.5174 54.7576 71.6343 54.9136 71.7382 55.0436C71.8551 55.1866 71.7902 55.1476 71.7902 55.0826L71.8941 54.6536C71.8941 54.6536 71.933 54.6536 71.9201 54.6536C71.8551 54.6146 71.7122 54.6536 71.6343 54.6536C71.4265 54.6536 71.2316 54.6536 71.0238 54.6536C70.5952 54.6536 70.1536 54.6536 69.7249 54.6406C69.2963 54.6276 68.8547 54.6406 68.426 54.6276C68.2182 54.6276 67.9974 54.6406 67.7896 54.6016C67.7246 54.6016 67.6597 54.5496 67.6077 54.5496C67.5558 54.5496 67.6077 54.4846 67.5817 54.5236C67.5817 54.5236 67.6207 54.6666 67.6077 54.6666C67.5817 54.6666 67.7246 54.6016 67.6467 54.6016C67.7246 54.6016 67.8805 54.4846 67.9714 54.4716C68.3351 54.3806 68.7248 54.3936 69.1014 54.3936C69.9717 54.3936 70.829 54.5496 71.6733 54.6926L71.8811 53.0416C70.3094 52.8726 68.7378 52.9116 67.1661 53.1586C66.5037 53.2626 65.8023 53.4576 65.3476 54.0166C64.8151 54.6796 64.945 55.6287 65.5944 56.1357C66.1789 56.5777 67.0362 56.6167 67.7246 56.7337C68.504 56.8507 69.2833 56.9677 70.0626 57.0457C71.2836 57.1757 72.6474 57.1627 73.6866 56.3697C74.4009 55.8237 74.7906 54.8486 74.1022 54.0556C73.5697 53.4446 72.5955 53.1846 71.8421 53.1196C71.4265 53.0806 71.0628 53.5356 71.0628 53.9646C71.0628 54.4456 71.4265 54.7706 71.8421 54.8096C72.1409 54.8356 72.4916 54.9526 72.7643 55.0826L72.9722 55.1996C73.0371 55.1866 73.0241 54.9006 72.9332 54.8746C72.9202 54.8746 72.7124 55.0306 72.7124 55.0436C72.5955 55.1086 72.4916 55.1736 72.3747 55.2126C72.1798 55.2907 71.972 55.3427 71.7772 55.3687C70.6082 55.5507 69.3223 55.2777 68.1662 55.0956C67.8415 55.0436 67.5168 54.9916 67.1921 54.9266C67.0362 54.9006 66.8673 54.8616 66.7115 54.8226C66.6465 54.8096 66.5946 54.7966 66.5296 54.7706C66.4777 54.7186 66.4777 54.7316 66.5556 54.8096C66.2699 55.3687 66.8024 54.9526 66.9323 54.9136C67.1921 54.8356 67.4519 54.7966 67.7116 54.7576C69.1015 54.5626 70.5172 54.5626 71.9071 54.7186C72.7773 54.8096 72.9852 53.2106 72.1149 53.0676C70.6471 52.8076 69.0625 52.4826 67.5817 52.8466C66.9583 53.0026 66.3738 53.4316 66.1659 54.1206C65.9321 54.8876 66.2828 55.6937 66.9323 56.0577C67.5817 56.4217 68.426 56.3307 69.1404 56.3307C69.8548 56.3307 70.5692 56.3437 71.2836 56.3567C72.0499 56.3567 72.8812 56.3827 73.2709 55.5377C73.4398 55.1736 73.4268 54.7446 73.2449 54.3936C73.128 54.1596 72.8942 53.9516 72.8293 53.7566C72.6604 53.3406 72.0889 53.2496 71.7642 53.4576C71.3615 53.7176 71.3226 54.1856 71.4784 54.6146L71.4525 54.5886Z" fill="#B0DEEB"/>
<path d="M160.076 61.8298C159.881 61.8038 159.661 61.7128 159.427 61.6738C159.076 61.6088 158.66 61.6348 158.336 61.7258C157.595 61.9468 157.725 62.3238 157.829 62.6618C157.933 62.9868 158.037 63.2989 158.154 63.6239C158.271 63.9489 158.284 64.3259 158.725 64.6119C159.167 64.8979 159.959 65.0019 160.648 64.8459C161.258 64.7159 161.596 64.4299 161.648 64.1309C161.778 63.4419 161.258 62.7398 160.817 62.1028C160.557 61.7258 159.076 61.8948 159.284 62.2848C159.609 62.8958 159.803 63.5199 159.829 64.1439C159.829 64.2739 159.829 64.4039 159.79 64.5339C159.764 64.6119 159.453 64.8459 159.946 64.7029C160.024 64.7289 160.037 64.7289 159.985 64.7029L159.933 64.6509C159.855 64.5729 159.803 64.4949 159.751 64.4169C159.648 64.2739 159.544 64.1309 159.453 63.9879C159.128 63.4809 158.712 62.9348 158.699 62.4018C158.699 62.2978 158.712 62.1938 158.764 62.0898C158.79 62.0378 158.829 61.9858 158.881 61.9208C158.907 61.8948 159.011 61.8298 159.011 61.8168C158.998 61.7648 158.712 61.7908 158.699 61.8168C158.699 61.8168 158.842 61.8948 158.842 61.9078C159.011 62.0248 159.167 62.1678 159.232 62.3108C159.323 62.4928 159.687 62.6358 160.128 62.6098C160.531 62.5838 160.907 62.4018 160.817 62.2068C160.674 61.8948 160.336 61.5438 159.816 61.3098C159.258 61.0628 158.427 61.0498 157.868 61.3098C156.933 61.7518 157.011 62.4668 157.258 63.0128C157.4 63.3379 157.595 63.6499 157.79 63.9749C157.985 64.2999 158.167 64.6769 158.505 64.9889C158.842 65.3009 159.609 65.5089 160.362 65.3529C161.024 65.2229 161.323 64.8719 161.401 64.5729C161.583 63.7929 161.297 62.9478 160.882 62.1808L159.349 62.3628C159.596 62.7268 159.842 63.0909 159.985 63.4809C160.05 63.6499 160.102 63.8319 160.076 64.0009C160.076 64.0529 160.05 64.1049 160.024 64.1569L159.946 64.1959C159.933 64.1699 160.076 64.1959 160.076 64.1959C160.115 64.1699 160.063 64.2219 160.063 64.1959C160.063 64.1829 159.998 64.1439 159.985 64.1179C159.92 64.0399 159.907 63.9359 159.881 63.8579C159.816 63.6629 159.751 63.4679 159.687 63.2729C159.622 63.0778 159.557 62.8828 159.492 62.6878C159.466 62.5968 159.427 62.5058 159.401 62.4148C159.401 62.3758 159.401 62.2978 159.349 62.2718C159.31 62.2458 159.31 62.2718 159.349 62.2718L158.959 62.3498C158.959 62.3498 158.829 62.3238 159.011 62.3758C159.154 62.4148 159.31 62.4668 159.479 62.4798C159.894 62.5318 160.349 62.4798 160.531 62.2848C160.687 62.1288 160.531 61.8688 160.102 61.8168L160.076 61.8298Z" fill="#B0DEEB"/>
<path d="M163.012 69.487C162.817 69.461 162.596 69.37 162.362 69.331C162.012 69.266 161.596 69.292 161.271 69.383C160.531 69.604 160.661 69.9811 160.765 70.3191C160.869 70.6441 160.972 70.9561 161.089 71.2811C161.206 71.6061 161.219 71.9831 161.661 72.2691C162.103 72.5551 162.895 72.6591 163.583 72.5031C164.194 72.3731 164.531 72.0871 164.583 71.7881C164.713 71.0991 164.194 70.3971 163.752 69.76C163.492 69.383 162.012 69.552 162.219 69.942C162.544 70.5531 162.739 71.1771 162.765 71.8011C162.765 71.9311 162.765 72.0611 162.726 72.1911C162.7 72.2691 162.388 72.5031 162.882 72.3601C162.96 72.3861 162.973 72.3861 162.921 72.3601L162.869 72.3081C162.791 72.2301 162.739 72.1521 162.687 72.0741C162.583 71.9311 162.479 71.7881 162.388 71.6451C162.064 71.1381 161.648 70.5921 161.635 70.0591C161.635 69.955 161.648 69.851 161.7 69.747C161.726 69.695 161.765 69.643 161.817 69.578C161.843 69.552 161.947 69.487 161.947 69.474C161.934 69.422 161.648 69.448 161.635 69.474C161.635 69.474 161.778 69.552 161.778 69.565C161.947 69.682 162.103 69.825 162.167 69.968C162.258 70.1501 162.622 70.2931 163.064 70.2671C163.466 70.2411 163.843 70.0591 163.752 69.864C163.609 69.552 163.272 69.201 162.752 68.967C162.193 68.72 161.362 68.707 160.804 68.967C159.868 69.409 159.946 70.1241 160.193 70.6701C160.336 70.9951 160.531 71.3071 160.726 71.6321C160.921 71.9571 161.102 72.3341 161.44 72.6461C161.778 72.9581 162.544 73.1662 163.297 73.0101C163.96 72.8801 164.259 72.5291 164.337 72.2301C164.518 71.4501 164.233 70.6051 163.817 69.838L162.284 70.0201C162.531 70.3841 162.778 70.7481 162.921 71.1381C162.986 71.3071 163.038 71.4891 163.012 71.6581C163.012 71.7101 162.986 71.7621 162.96 71.8141L162.882 71.8531C162.869 71.8271 163.012 71.8531 163.012 71.8531C163.051 71.8271 162.999 71.8791 162.999 71.8531C162.999 71.8401 162.934 71.8011 162.921 71.7751C162.856 71.6971 162.843 71.5931 162.817 71.5151C162.752 71.3201 162.687 71.1251 162.622 70.9301C162.557 70.7351 162.492 70.5401 162.427 70.3451C162.401 70.2541 162.362 70.1631 162.336 70.0721C162.336 70.0331 162.336 69.9551 162.284 69.9291C162.245 69.903 162.245 69.9291 162.284 69.9291L161.895 70.007C161.895 70.007 161.765 69.981 161.947 70.0331C162.09 70.0721 162.245 70.1241 162.414 70.1371C162.83 70.1891 163.285 70.1371 163.466 69.942C163.622 69.786 163.466 69.526 163.038 69.474L163.012 69.487Z" fill="#B0DEEB"/>
<path d="M165.661 76.9885C165.466 76.9625 165.246 76.8715 165.012 76.8325C164.661 76.7675 164.245 76.7935 163.921 76.8845C163.18 77.1055 163.31 77.4825 163.414 77.8205C163.518 78.1455 163.622 78.4575 163.739 78.7826C163.856 79.1076 163.869 79.4846 164.31 79.7706C164.752 80.0566 165.544 80.1606 166.233 80.0046C166.843 79.8746 167.181 79.5886 167.233 79.2896C167.363 78.6006 166.843 77.8985 166.402 77.2615C166.142 76.8845 164.661 77.0535 164.869 77.4435C165.194 78.0545 165.388 78.6786 165.414 79.3026C165.414 79.4326 165.414 79.5626 165.375 79.6926C165.349 79.7706 165.038 80.0046 165.531 79.8616C165.609 79.8876 165.622 79.8876 165.57 79.8616L165.518 79.8096C165.44 79.7316 165.388 79.6536 165.336 79.5756C165.233 79.4326 165.129 79.2896 165.038 79.1466C164.713 78.6396 164.297 78.0935 164.284 77.5605C164.284 77.4565 164.297 77.3525 164.349 77.2485C164.375 77.1965 164.414 77.1445 164.466 77.0795C164.492 77.0535 164.596 76.9885 164.596 76.9755C164.583 76.9235 164.297 76.9495 164.284 76.9755C164.284 76.9755 164.427 77.0535 164.427 77.0665C164.596 77.1835 164.752 77.3265 164.817 77.4695C164.908 77.6515 165.271 77.7945 165.713 77.7685C166.116 77.7425 166.492 77.5605 166.402 77.3655C166.259 77.0535 165.921 76.7025 165.401 76.4685C164.843 76.2215 164.012 76.2085 163.453 76.4685C162.518 76.9105 162.596 77.6255 162.843 78.1715C162.985 78.4965 163.18 78.8086 163.375 79.1336C163.57 79.4586 163.752 79.8356 164.089 80.1476C164.427 80.4596 165.194 80.6676 165.947 80.5116C166.609 80.3816 166.908 80.0306 166.986 79.7316C167.168 78.9516 166.882 78.1065 166.466 77.3395L164.934 77.5215C165.181 77.8855 165.427 78.2495 165.57 78.6396C165.635 78.8086 165.687 78.9906 165.661 79.1596C165.661 79.2116 165.635 79.2636 165.609 79.3156L165.531 79.3546C165.518 79.3286 165.661 79.3546 165.661 79.3546C165.7 79.3286 165.648 79.3806 165.648 79.3546C165.648 79.3416 165.583 79.3026 165.57 79.2766C165.505 79.1986 165.492 79.0946 165.466 79.0166C165.401 78.8216 165.336 78.6266 165.271 78.4315C165.207 78.2365 165.142 78.0415 165.077 77.8465C165.051 77.7555 165.012 77.6645 164.986 77.5735C164.986 77.5345 164.986 77.4565 164.934 77.4305C164.895 77.4045 164.895 77.4305 164.934 77.4305L164.544 77.5085C164.544 77.5085 164.414 77.4825 164.596 77.5345C164.739 77.5735 164.895 77.6255 165.064 77.6385C165.479 77.6905 165.934 77.6385 166.116 77.4435C166.272 77.2875 166.116 77.0275 165.687 76.9755L165.661 76.9885Z" fill="#B0DEEB"/>
<path d="M63.0875 64.1706C63.2824 64.1446 63.5032 64.0536 63.737 64.0146C64.0877 63.9496 64.5033 63.9756 64.8281 64.0666C65.5684 64.2876 65.4386 64.6646 65.3346 65.0027C65.2307 65.3277 65.1268 65.6397 65.0099 65.9647C64.893 66.2897 64.88 66.6667 64.4384 66.9527C63.9968 67.2387 63.2045 67.3427 62.516 67.1867C61.9056 67.0567 61.5678 66.7707 61.5159 66.4717C61.386 65.7827 61.9056 65.0807 62.3472 64.4436C62.607 64.0666 64.0877 64.2356 63.8799 64.6256C63.5552 65.2367 63.3603 65.8607 63.3343 66.4847C63.3343 66.6147 63.3343 66.7447 63.3733 66.8747C63.3993 66.9527 63.711 67.1867 63.2174 67.0437C63.1395 67.0697 63.1265 67.0697 63.1785 67.0437L63.2304 66.9917C63.3084 66.9137 63.3603 66.8357 63.4123 66.7577C63.5162 66.6147 63.6201 66.4717 63.711 66.3287C64.0357 65.8217 64.4514 65.2757 64.4644 64.7426C64.4644 64.6386 64.4514 64.5346 64.3994 64.4306C64.3735 64.3786 64.3345 64.3266 64.2825 64.2616C64.2566 64.2356 64.1526 64.1706 64.1526 64.1576C64.1656 64.1056 64.4514 64.1316 64.4644 64.1576C64.4644 64.1576 64.3215 64.2356 64.3215 64.2486C64.1526 64.3656 63.9968 64.5086 63.9318 64.6516C63.8409 64.8336 63.4772 64.9767 63.0356 64.9507C62.6329 64.9247 62.2563 64.7426 62.3472 64.5476C62.4901 64.2356 62.8278 63.8846 63.3473 63.6506C63.9059 63.4036 64.7371 63.3906 65.2957 63.6506C66.2309 64.0926 66.1529 64.8076 65.9062 65.3537C65.7633 65.6787 65.5684 65.9907 65.3736 66.3157C65.1788 66.6407 64.9969 67.0177 64.6592 67.3297C64.3215 67.6417 63.5552 67.8497 62.8018 67.6937C62.1394 67.5637 61.8406 67.2127 61.7627 66.9137C61.5808 66.1337 61.8666 65.2887 62.2822 64.5216L63.8149 64.7036C63.5681 65.0677 63.3214 65.4317 63.1785 65.8217C63.1135 65.9907 63.0616 66.1727 63.0875 66.3417C63.0875 66.3937 63.1135 66.4457 63.1395 66.4977L63.2174 66.5367C63.2304 66.5107 63.0875 66.5367 63.0875 66.5367C63.0486 66.5107 63.1005 66.5627 63.1005 66.5367C63.1005 66.5237 63.1655 66.4847 63.1785 66.4587C63.2434 66.3807 63.2564 66.2767 63.2824 66.1987C63.3473 66.0037 63.4123 65.8087 63.4772 65.6137C63.5422 65.4187 63.6071 65.2237 63.6721 65.0287C63.698 64.9377 63.737 64.8467 63.763 64.7556C63.763 64.7166 63.763 64.6386 63.8149 64.6126C63.8539 64.5866 63.8539 64.6126 63.8149 64.6126L64.2046 64.6906C64.2046 64.6906 64.3345 64.6646 64.1526 64.7166C64.0098 64.7556 63.8539 64.8077 63.685 64.8207C63.2694 64.8727 62.8148 64.8206 62.6329 64.6256C62.4771 64.4696 62.6329 64.2096 63.0616 64.1576L63.0875 64.1706Z" fill="#B0DEEB"/>
<path d="M60.1388 71.8152C60.3337 71.7892 60.5545 71.6982 60.7883 71.6592C61.139 71.5942 61.5546 71.6202 61.8793 71.7112C62.6197 71.9322 62.4898 72.3092 62.3859 72.6472C62.282 72.9722 62.1781 73.2842 62.0612 73.6092C61.9443 73.9342 61.9313 74.3112 61.4897 74.5972C61.048 74.8833 60.2557 74.9873 59.5673 74.8313C58.9568 74.7013 58.6191 74.4152 58.5672 74.1162C58.4373 73.4272 58.9568 72.7252 59.3984 72.0882C59.6582 71.7112 61.139 71.8802 60.9311 72.2702C60.6064 72.8812 60.4116 73.5052 60.3856 74.1292C60.3856 74.2592 60.3856 74.3892 60.4246 74.5192C60.4506 74.5972 60.7623 74.8313 60.2687 74.6883C60.1908 74.7143 60.1778 74.7143 60.2297 74.6883L60.2817 74.6362C60.3596 74.5582 60.4116 74.4802 60.4635 74.4022C60.5675 74.2592 60.6714 74.1162 60.7623 73.9732C61.087 73.4662 61.5027 72.9202 61.5157 72.3872C61.5157 72.2832 61.5027 72.1792 61.4507 72.0752C61.4247 72.0232 61.3858 71.9712 61.3338 71.9062C61.3078 71.8802 61.2039 71.8152 61.2039 71.8022C61.2169 71.7502 61.5027 71.7762 61.5157 71.8022C61.5157 71.8022 61.3728 71.8802 61.3728 71.8932C61.2039 72.0102 61.048 72.1532 60.9831 72.2962C60.8922 72.4782 60.5285 72.6212 60.0869 72.5952C59.6842 72.5692 59.3075 72.3872 59.3984 72.1922C59.5413 71.8802 59.879 71.5292 60.3986 71.2951C60.9571 71.0481 61.7884 71.0351 62.3469 71.2951C63.2822 71.7372 63.2042 72.4522 62.9574 72.9982C62.8145 73.3232 62.6197 73.6352 62.4249 73.9602C62.23 74.2852 62.0482 74.6622 61.7105 74.9743C61.3728 75.2863 60.6064 75.4943 59.8531 75.3383C59.1906 75.2083 58.8919 74.8573 58.8139 74.5582C58.6321 73.7782 58.9179 72.9332 59.3335 72.1662L60.8662 72.3482C60.6194 72.7122 60.3726 73.0762 60.2297 73.4662C60.1648 73.6352 60.1128 73.8172 60.1388 73.9862C60.1388 74.0382 60.1648 74.0902 60.1908 74.1422L60.2687 74.1812C60.2817 74.1552 60.1388 74.1812 60.1388 74.1812C60.0999 74.1552 60.1518 74.2072 60.1518 74.1812C60.1518 74.1682 60.2168 74.1292 60.2297 74.1032C60.2947 74.0252 60.3077 73.9212 60.3337 73.8432C60.3986 73.6482 60.4635 73.4532 60.5285 73.2582C60.5934 73.0632 60.6584 72.8682 60.7233 72.6732C60.7493 72.5822 60.7883 72.4912 60.8142 72.4002C60.8142 72.3612 60.8142 72.2832 60.8662 72.2572C60.9052 72.2312 60.9052 72.2572 60.8662 72.2572L61.2559 72.3352C61.2559 72.3352 61.3858 72.3092 61.2039 72.3612C61.061 72.4002 60.9052 72.4522 60.7363 72.4652C60.3207 72.5172 59.8661 72.4652 59.6842 72.2702C59.5283 72.1142 59.6842 71.8542 60.1128 71.8022L60.1388 71.8152Z" fill="#B0DEEB"/>
<path d="M57.5016 79.3283C57.6964 79.3023 57.9173 79.2113 58.1511 79.1723C58.5018 79.1073 58.9174 79.1333 59.2421 79.2243C59.9825 79.4453 59.8526 79.8224 59.7487 80.1604C59.6448 80.4854 59.5409 80.7974 59.424 81.1224C59.3071 81.4474 59.2941 81.8244 58.8525 82.1104C58.4108 82.3964 57.6185 82.5004 56.9301 82.3444C56.3196 82.2144 55.9819 81.9284 55.9299 81.6294C55.8001 80.9404 56.3196 80.2384 56.7612 79.6014C57.021 79.2243 58.5018 79.3933 58.2939 79.7834C57.9692 80.3944 57.7744 81.0184 57.7484 81.6424C57.7484 81.7724 57.7484 81.9024 57.7874 82.0324C57.8133 82.1104 58.1251 82.3444 57.6315 82.2014C57.5536 82.2274 57.5406 82.2274 57.5925 82.2014L57.6445 82.1494C57.7224 82.0714 57.7744 81.9934 57.8263 81.9154C57.9302 81.7724 58.0342 81.6294 58.1251 81.4864C58.4498 80.9794 58.8655 80.4334 58.8784 79.9004C58.8784 79.7964 58.8655 79.6924 58.8135 79.5884C58.7875 79.5364 58.7486 79.4843 58.6966 79.4193C58.6706 79.3933 58.5667 79.3283 58.5667 79.3153C58.5797 79.2633 58.8655 79.2893 58.8784 79.3153C58.8784 79.3153 58.7356 79.3933 58.7356 79.4063C58.5667 79.5234 58.4108 79.6664 58.3459 79.8094C58.255 79.9914 57.8913 80.1344 57.4497 80.1084C57.047 80.0824 56.6703 79.9004 56.7612 79.7054C56.9041 79.3933 57.2418 79.0423 57.7614 78.8083C58.3199 78.5613 59.1512 78.5483 59.7097 78.8083C60.6449 79.2503 60.567 79.9654 60.3202 80.5114C60.1773 80.8364 59.9825 81.1484 59.7877 81.4734C59.5928 81.7984 59.411 82.1754 59.0733 82.4874C58.7356 82.7995 57.9692 83.0075 57.2159 82.8515C56.5534 82.7215 56.2547 82.3704 56.1767 82.0714C55.9949 81.2914 56.2807 80.4464 56.6963 79.6794L58.229 79.8614C57.9822 80.2254 57.7354 80.5894 57.5925 80.9794C57.5276 81.1484 57.4756 81.3304 57.5016 81.4994C57.5016 81.5514 57.5276 81.6034 57.5536 81.6554L57.6315 81.6944C57.6445 81.6684 57.5016 81.6944 57.5016 81.6944C57.4626 81.6684 57.5146 81.7204 57.5146 81.6944C57.5146 81.6814 57.5795 81.6424 57.5925 81.6164C57.6575 81.5384 57.6705 81.4344 57.6964 81.3564C57.7614 81.1614 57.8263 80.9664 57.8913 80.7714C57.9562 80.5764 58.0212 80.3814 58.0861 80.1864C58.1121 80.0954 58.1511 80.0044 58.177 79.9134C58.177 79.8744 58.177 79.7964 58.229 79.7704C58.268 79.7444 58.268 79.7704 58.229 79.7704L58.6187 79.8484C58.6187 79.8484 58.7486 79.8224 58.5667 79.8744C58.4238 79.9134 58.268 79.9654 58.0991 79.9784C57.6835 80.0304 57.2288 79.9784 57.047 79.7834C56.8911 79.6274 57.047 79.3673 57.4756 79.3153L57.5016 79.3283Z" fill="#B0DEEB"/>
</g>
<defs>
<clipPath id="clip0_1288_597">
<rect width="232" height="333" fill="white"/>
</clipPath>
</defs>
</svg>
