<svg width="32" height="32" viewBox="0 0 32 32" fill="none" xmlns="http://www.w3.org/2000/svg">
<mask id="mask0_1366_573" style="mask-type:alpha" maskUnits="userSpaceOnUse" x="0" y="0" width="32" height="32">
<rect width="32" height="32" fill="#D9D9D9"/>
</mask>
<g mask="url(#mask0_1366_573)">
<path d="M8.22227 13.5557L6.3776 14.5777C6.06649 14.7554 5.73694 14.8037 5.38894 14.7223C5.04071 14.6408 4.79249 14.4519 4.64427 14.1557L2.22227 9.95567C2.04449 9.64456 1.99627 9.35567 2.0776 9.089C2.15916 8.82233 2.34805 8.60011 2.64427 8.42233L10.2666 4H12.4666C12.6962 4 12.8795 4.06855 13.0166 4.20567C13.1537 4.34255 13.2223 4.52589 13.2223 4.75567V5.311C13.2223 6.11856 13.487 6.78711 14.0166 7.31667C14.5462 7.84622 15.2147 8.111 16.0223 8.111C16.8296 8.111 17.4944 7.84622 18.0166 7.31667C18.5388 6.78711 18.7999 6.11856 18.7999 5.311V4.75567C18.7999 4.52589 18.8685 4.34255 19.0056 4.20567C19.1425 4.06855 19.3258 4 19.5556 4H21.7556L29.3776 8.42233C29.674 8.60011 29.8593 8.82233 29.9333 9.089C30.0073 9.35567 29.9628 9.64456 29.7999 9.95567L27.3556 14.1557C27.2074 14.4519 26.9352 14.6426 26.5389 14.7277C26.1425 14.813 25.8073 14.7741 25.5333 14.611L23.7109 13.5223V26.689C23.7109 27.0519 23.5795 27.3611 23.3166 27.6167C23.0537 27.8722 22.7407 28 22.3776 28H9.53327C9.17038 28 8.86116 27.8722 8.6056 27.6167C8.35005 27.3611 8.22227 27.0519 8.22227 26.689V13.5557Z" fill="#F99549"/>
</g>
</svg>
