<svg width="198" height="252" viewBox="0 0 198 252" fill="none" xmlns="http://www.w3.org/2000/svg">
<path d="M61.1644 11.4793C56.9766 14.7807 51.3368 20.7414 48.3106 25.1432C40.2407 36.8507 22.496 68.519 11.3999 104.666C-0.0783498 142.065 -4.44957 184.28 16.3519 214.19C49.946 262.488 141.833 262.488 180.15 214.19C221.447 162.103 173.761 58.2635 156.445 28.2611C149.949 17.0121 139.724 8.28498 127.39 4.1736C115.056 0.0622149 78.5728 -2.24566 61.1491 11.464L61.1644 11.4793Z" fill="white" stroke="#9D7E71" stroke-width="2" stroke-linejoin="round"/>
<path d="M9.00031 114.08L25.7057 133.094L52.7735 117.244L71.7868 133.949L93.6734 118.696" fill="white"/>
<path d="M9.00031 114.08L25.7057 133.094L52.7735 117.244L71.7868 133.949L93.6734 118.696" stroke="#9D7E71" stroke-width="2" stroke-linecap="round" stroke-linejoin="round"/>
</svg>
