<svg width="198" height="252" viewBox="0 0 198 252" fill="none" xmlns="http://www.w3.org/2000/svg">
<path d="M60.9344 11.4793C56.7466 14.7807 51.1069 20.7414 48.0806 25.1432C40.0107 36.8507 22.2661 68.519 11.1699 104.666C-0.30833 142.065 -4.67955 184.28 16.1219 214.19C49.716 262.488 141.603 262.488 179.92 214.19C221.217 162.103 173.531 58.2635 156.215 28.2611C149.719 17.0121 139.494 8.28498 127.16 4.1736C114.826 0.0622145 78.3428 -2.24566 60.9191 11.464L60.9344 11.4793Z" fill="white" stroke="#9D7E71" stroke-width="2" stroke-linejoin="round"/>
<path d="M8.77032 114.096L25.4757 133.109L52.5436 117.259L71.5568 133.965L93.4434 118.711L115.911 134.836L132.601 118.421" fill="white"/>
<path d="M8.77032 114.096L25.4757 133.109L52.5436 117.259L71.5568 133.965L93.4434 118.711L115.911 134.836L132.601 118.421" stroke="#9D7E71" stroke-width="2" stroke-linecap="round" stroke-linejoin="round"/>
</svg>
