<svg width="198" height="252" viewBox="0 0 198 252" fill="none" xmlns="http://www.w3.org/2000/svg">
<path d="M60.7061 11.4794C56.5161 14.7794 50.8761 20.7394 47.8461 25.1394C39.7661 36.8494 22.0361 68.5094 10.9361 104.659C-0.543898 142.059 -4.90389 184.269 15.8961 214.189C49.4861 262.489 141.376 262.489 179.686 214.189C220.986 162.109 173.296 58.2694 155.986 28.2694C149.496 17.0194 139.256 8.28936 126.936 4.18936C114.476 0.0393634 78.1161 -2.23064 60.6961 11.4894L60.7061 11.4794Z" fill="white" stroke="#9D7E71" stroke-width="2" stroke-linejoin="round"/>
<path d="M8.53613 114.079L25.2361 133.089L52.3061 117.249L71.3161 133.959L93.2061 118.689L115.666 134.819L132.376 118.399L153.636 136.869L172.526 119.689L194.166 137.209" fill="white"/>
<path d="M8.53613 114.079L25.2361 133.089L52.3061 117.249L71.3161 133.959L93.2061 118.689L115.666 134.819L132.376 118.399L153.636 136.869L172.526 119.689L194.166 137.209" stroke="#9D7E71" stroke-width="2" stroke-linejoin="round"/>
</svg>
