<svg width="180" height="132" viewBox="0 0 180 132" fill="none" xmlns="http://www.w3.org/2000/svg">
<g clip-path="url(#clip0_1714_536)">
<path d="M89.7398 1.05C89.7398 1.05 49.4998 -0.0399971 31.2798 24.92C31.2798 24.92 31.0298 19.49 23.1798 17.87C15.3398 16.24 10.2698 15.7 2.93984 28.45C-4.40016 41.2 11.5398 51.24 15.3398 48.52C15.3398 48.52 -0.600157 69.68 4.45984 102.5C4.45984 102.5 5.53984 114.22 21.0698 123.54C36.5998 132.86 141.27 132.87 160.04 121.58C163.82 119.3 166.02 115.79 168.13 113.2C173.05 107.16 173.89 99.63 174.09 91.84C174.79 65.17 164.14 48.52 164.14 48.52C167.94 51.23 183.88 41.2 176.54 28.45C169.2 15.7 164.14 16.24 156.3 17.87C148.46 19.5 148.2 24.92 148.2 24.92C129.98 -0.0399971 89.7398 1.05 89.7398 1.05Z" fill="#CCB5A9"/>
<path d="M85.1499 131.35C58.0699 131.35 28.5799 129.26 20.5399 124.44C4.73989 114.95 3.47989 103.11 3.42989 102.61C-0.730108 75.6199 9.33989 56.1699 13.1399 49.9899C10.6599 49.7699 7.57989 48.1299 5.25989 46.0299C-0.350109 40.9399 -1.55011 34.1699 2.03989 27.9299C9.62989 14.7399 15.0999 15.1299 23.3999 16.8499C28.6899 17.9499 30.8499 20.6699 31.7299 22.6399C41.3899 10.6499 56.1799 5.1399 67.1099 2.6099C79.2299 -0.1901 89.0299 -0.000100054 89.7399 -0.000100054C90.4499 -0.0201001 100.25 -0.1901 112.37 2.5999C123.3 5.1199 138.09 10.6399 147.76 22.6299C148.64 20.6599 150.79 17.9399 156.09 16.8399C164.38 15.1199 169.86 14.7299 177.45 27.9199C181.05 34.1699 179.84 40.9299 174.24 46.0099C171.87 48.1599 168.7 49.8299 166.19 49.9799C167.22 51.9399 168.81 55.2699 170.38 59.8299C172.76 66.7499 175.51 77.9199 175.15 91.8599C174.96 99.0499 174.31 107.27 168.96 113.84C168.55 114.35 168.13 114.89 167.7 115.45C165.87 117.83 163.8 120.53 160.6 122.46C150.31 128.65 117.06 131.1 89.3799 131.32C87.9899 131.33 86.5899 131.34 85.1799 131.34L85.1499 131.35ZM15.3399 47.4799C15.6099 47.4799 15.8799 47.5899 16.0799 47.7899C16.4399 48.1599 16.4799 48.7299 16.1699 49.1399C16.0099 49.3499 0.559891 70.3699 5.48989 102.34C5.48989 102.43 5.79989 105.25 7.91989 109.14C9.87989 112.73 13.8499 117.99 21.6099 122.65C36.2299 131.43 140.63 132.05 159.5 120.69C162.36 118.97 164.31 116.43 166.02 114.2C166.46 113.62 166.89 113.06 167.32 112.54C172.26 106.47 172.87 98.6599 173.05 91.8199C173.73 65.8099 163.37 49.2499 163.26 49.0899C162.99 48.6699 163.06 48.1199 163.42 47.7799C163.78 47.4399 164.33 47.3999 164.74 47.6899C165.78 48.4299 169.45 47.5599 172.83 44.4999C175.15 42.3999 180.07 36.6799 175.64 28.9899C168.42 16.4399 163.68 17.4199 156.51 18.9099C149.62 20.3399 149.25 24.8099 149.24 24.9999C149.21 25.4399 148.91 25.8099 148.49 25.9399C148.07 26.0599 147.62 25.9099 147.36 25.5599C129.67 1.3099 90.1599 2.0799 89.7699 2.0899C89.7499 2.0899 89.7299 2.0899 89.7099 2.0899C89.3099 2.0799 49.7999 1.3199 32.1199 25.5399C31.8599 25.8999 31.3999 26.0499 30.9799 25.9199C30.5599 25.7899 30.2599 25.4099 30.2399 24.9699C30.2299 24.7899 29.8599 20.3199 22.9699 18.8899C15.7999 17.3999 11.0599 16.4199 3.83989 28.9699C-0.590109 36.6599 4.32989 42.3799 6.64989 44.4799C10.0299 47.5399 13.6899 48.4199 14.7399 47.6699C14.9199 47.5399 15.1299 47.4799 15.3399 47.4799Z" fill="#997977"/>
<path d="M43.68 52.55L43.53 56.16C43.44 58.33 44.17 59.97 46.61 60.67L46.87 60.75C48.62 61.15 50.38 60.38 51.12 59.1C51.61 58.27 51.83 57.31 51.88 56.34L52 53.82C52.11 51.45 50.2 49.24 48.28 49.03L47.52 48.96C46.73 48.89 45.92 49.01 45.24 49.41C44.34 49.94 43.75 50.81 43.68 52.54V52.55Z" fill="#8A605A"/>
<path d="M128.37 48.23C126.18 48.28 124.43 49.77 124.4 51.6L124.31 56.3C124.27 58.28 126.25 59.88 128.62 59.78L129.5 59.74C131.9 59.64 132.47 57.79 132.64 55.88L132.56 51.18C132.27 49.45 130.47 48.19 128.39 48.24L128.37 48.23Z" fill="#8A605A"/>
<path d="M80.77 61.7701C80.77 61.7701 61.9 69.5501 64.93 86.1101C67.95 102.67 82.36 104.69 82.36 104.69C82.36 104.69 113.32 106.56 115.77 89.8601C118.22 73.1601 101.51 61.3401 95.17 61.3401C88.83 61.3401 80.77 61.7701 80.77 61.7701Z" fill="white"/>
<path d="M83.1799 59.0501C85.4099 57.9801 87.9699 57.8501 90.3599 58.4901C92.7499 59.1301 95.3899 60.2101 95.5699 62.0601C95.8799 65.2401 94.4599 69.8401 89.9399 69.3801C85.4199 68.9201 79.5399 67.8001 80.5099 61.9801C80.7399 60.6001 81.8799 59.6701 83.1699 59.0501H83.1799Z" fill="#8A605A"/>
</g>
<defs>
<clipPath id="clip0_1714_536">
<rect width="179.48" height="131.35" fill="white"/>
</clipPath>
</defs>
</svg>
