<svg width="32" height="32" viewBox="0 0 32 32" fill="none" xmlns="http://www.w3.org/2000/svg">
<mask id="mask0_1741_1087" style="mask-type:alpha" maskUnits="userSpaceOnUse" x="0" y="0" width="32" height="32">
<rect width="32" height="32" fill="#D9D9D9"/>
</mask>
<g mask="url(#mask0_1741_1087)">
<path d="M24 14.6668H21.3333C20.9555 14.6668 20.6389 14.5391 20.3833 14.2835C20.1278 14.0279 20 13.7113 20 13.3335C20 12.9557 20.1278 12.6391 20.3833 12.3835C20.6389 12.1279 20.9555 12.0002 21.3333 12.0002H24V9.3335C24 8.95572 24.1278 8.63905 24.3833 8.3835C24.6389 8.12794 24.9555 8.00016 25.3333 8.00016C25.7111 8.00016 26.0278 8.12794 26.2833 8.3835C26.5389 8.63905 26.6666 8.95572 26.6666 9.3335V12.0002H29.3333C29.7111 12.0002 30.0278 12.1279 30.2833 12.3835C30.5389 12.6391 30.6666 12.9557 30.6666 13.3335C30.6666 13.7113 30.5389 14.0279 30.2833 14.2835C30.0278 14.5391 29.7111 14.6668 29.3333 14.6668H26.6666V17.3335C26.6666 17.7113 26.5389 18.0279 26.2833 18.2835C26.0278 18.5391 25.7111 18.6668 25.3333 18.6668C24.9555 18.6668 24.6389 18.5391 24.3833 18.2835C24.1278 18.0279 24 17.7113 24 17.3335V14.6668ZM12 16.0002C10.5333 16.0002 9.27776 15.4779 8.23331 14.4335C7.18887 13.3891 6.66665 12.1335 6.66665 10.6668C6.66665 9.20016 7.18887 7.94461 8.23331 6.90016C9.27776 5.85572 10.5333 5.3335 12 5.3335C13.4666 5.3335 14.7222 5.85572 15.7666 6.90016C16.8111 7.94461 17.3333 9.20016 17.3333 10.6668C17.3333 12.1335 16.8111 13.3891 15.7666 14.4335C14.7222 15.4779 13.4666 16.0002 12 16.0002ZM1.33331 24.0002V22.9335C1.33331 22.1779 1.52776 21.4835 1.91665 20.8502C2.30554 20.2168 2.8222 19.7335 3.46665 19.4002C4.84442 18.7113 6.24442 18.1946 7.66665 17.8502C9.08887 17.5057 10.5333 17.3335 12 17.3335C13.4666 17.3335 14.9111 17.5057 16.3333 17.8502C17.7555 18.1946 19.1555 18.7113 20.5333 19.4002C21.1778 19.7335 21.6944 20.2168 22.0833 20.8502C22.4722 21.4835 22.6666 22.1779 22.6666 22.9335V24.0002C22.6666 24.7335 22.4055 25.3613 21.8833 25.8835C21.3611 26.4057 20.7333 26.6668 20 26.6668H3.99998C3.26665 26.6668 2.63887 26.4057 2.11665 25.8835C1.59442 25.3613 1.33331 24.7335 1.33331 24.0002ZM3.99998 24.0002H20V22.9335C20 22.6891 19.9389 22.4668 19.8166 22.2668C19.6944 22.0668 19.5333 21.9113 19.3333 21.8002C18.1333 21.2002 16.9222 20.7502 15.7 20.4502C14.4778 20.1502 13.2444 20.0002 12 20.0002C10.7555 20.0002 9.5222 20.1502 8.29998 20.4502C7.07776 20.7502 5.86665 21.2002 4.66665 21.8002C4.46665 21.9113 4.30554 22.0668 4.18331 22.2668C4.06109 22.4668 3.99998 22.6891 3.99998 22.9335V24.0002ZM12 13.3335C12.7333 13.3335 13.3611 13.0724 13.8833 12.5502C14.4055 12.0279 14.6666 11.4002 14.6666 10.6668C14.6666 9.9335 14.4055 9.30572 13.8833 8.7835C13.3611 8.26127 12.7333 8.00016 12 8.00016C11.2666 8.00016 10.6389 8.26127 10.1166 8.7835C9.59442 9.30572 9.33331 9.9335 9.33331 10.6668C9.33331 11.4002 9.59442 12.0279 10.1166 12.5502C10.6389 13.0724 11.2666 13.3335 12 13.3335Z" fill="#F99549"/>
</g>
</svg>
