<svg width="310" height="54" viewBox="0 0 310 54" fill="none" xmlns="http://www.w3.org/2000/svg">
<path d="M10.1137 47.6109C9.1915 47.993 8.26932 47.993 7.33396 47.6373C6.39861 47.2684 5.72674 46.6361 5.31835 45.7139C4.90995 44.7917 4.89678 43.8695 5.26565 42.921C5.6477 41.9725 6.29322 41.2874 7.2154 40.8791C17.4911 36.3867 24.8554 29.9183 29.3213 21.487C30.1776 19.8139 29.6112 18.9707 27.6087 18.9707H21.9176C20.4289 20.9995 18.769 22.9361 16.9378 24.7805C15.1066 26.6248 13.1569 28.2979 11.1017 29.7865C10.2849 30.353 9.37593 30.5507 8.37471 30.3794C7.37349 30.2081 6.58305 29.7075 5.97705 28.8907C5.41056 28.0739 5.21295 27.1518 5.38422 26.1374C5.55548 25.123 6.05609 24.3325 6.87287 23.766C8.54597 22.6594 10.2191 21.2893 11.879 19.6689C13.5389 18.0354 15.0539 16.2964 16.4108 14.4521C17.7678 12.6077 18.848 10.7897 19.6385 9.02435C20.0469 8.10217 20.7319 7.46983 21.6804 7.10096C22.629 6.73209 23.5643 6.7716 24.4733 7.21952C25.3955 7.62791 26.041 8.29978 26.4362 9.23514C26.8314 10.1705 26.8051 11.0795 26.3704 11.9622H28.7417C31.4555 11.9622 33.5634 12.4628 35.052 13.4508C36.5407 14.452 37.3838 15.8353 37.5946 17.6006C37.8054 19.3659 37.3443 21.4079 36.2377 23.7134C34.5909 27.1254 32.4172 30.3794 29.7166 33.4621C27.0159 36.5448 23.9859 39.2982 20.6397 41.7354C17.2935 44.1725 13.776 46.1355 10.1137 47.6109Z" fill="black"/>
<path d="M48.5291 40.1544C47.5542 40.1544 46.6979 39.7987 45.9733 39.0873C45.2488 38.3759 44.8799 37.5196 44.8799 36.5052C44.8799 35.4908 45.2488 34.6345 45.9733 33.9232C46.6979 33.2118 47.5542 32.8561 48.5291 32.8561H62.5725V22.8965H54.1807C53.1663 22.8965 52.2968 22.5408 51.5723 21.8294C50.8477 21.118 50.4788 20.2617 50.4788 19.2473C50.4788 18.2329 50.8477 17.3766 51.5723 16.6652C52.2968 15.9538 53.1663 15.5981 54.1807 15.5981H78.2232C79.2376 15.5981 80.0939 15.9538 80.8053 16.6652C81.5167 17.3766 81.8724 18.2329 81.8724 19.2473C81.8724 20.2617 81.5167 21.118 80.8053 21.8294C80.0939 22.5408 79.2376 22.8965 78.2232 22.8965H69.8709V32.8561H84.0988C85.1132 32.8561 85.9695 33.2118 86.6809 33.9232C87.3923 34.6345 87.748 35.4908 87.748 36.5052C87.748 37.5196 87.3923 38.3759 86.6809 39.0873C85.9695 39.7987 85.1132 40.1544 84.0988 40.1544H48.5291Z" fill="black"/>
<path d="M98.9855 44.8976C98.1029 45.3456 97.1807 45.3983 96.2058 45.0689C95.2441 44.7396 94.5327 44.1072 94.098 43.1982C93.6501 42.276 93.5974 41.3538 93.9267 40.4053C94.2561 39.4568 94.8884 38.7586 95.7974 38.3238C100.198 36.2028 104.084 33.6866 107.47 30.7883C110.855 27.8769 113.635 24.781 115.822 21.4875C116.546 20.4072 116.744 19.6168 116.415 19.1162C116.085 18.6155 115.321 18.3521 114.109 18.3521H101.541C100.566 18.3521 99.7101 17.9832 98.9855 17.2586C98.261 16.534 97.8921 15.6778 97.8921 14.7029C97.8921 13.728 98.261 12.819 98.9855 12.0944C99.7101 11.3699 100.566 11.001 101.541 11.001H114.491C117.627 11.001 120.038 11.5807 121.724 12.7268C123.41 13.8861 124.332 15.467 124.477 17.4958C124.622 19.5246 123.937 21.8432 122.409 24.4648C122.159 24.939 121.869 25.4265 121.526 25.9139C121.197 26.4014 120.854 26.902 120.512 27.4026C121.935 28.5751 123.357 29.8398 124.78 31.1967C126.203 32.5536 127.56 33.871 128.838 35.1357C130.116 36.4004 131.222 37.5071 132.131 38.4556C132.83 39.1538 133.172 40.0101 133.146 41.0377C133.132 42.0652 132.764 42.9479 132.026 43.6725C131.288 44.397 130.458 44.7132 129.417 44.6868C128.377 44.6737 127.494 44.318 126.756 43.6198C125.9 42.6976 124.872 41.6173 123.647 40.3658C122.435 39.1143 121.144 37.8232 119.8 36.4795C118.457 35.1357 117.139 33.8974 115.835 32.7512C113.437 35.1489 110.75 37.428 107.799 39.5622C104.848 41.6964 101.897 43.4748 98.9592 44.8976H98.9855Z" fill="black"/>
<path d="M148.836 48.3624C147.861 48.3624 147.005 48.0067 146.28 47.2953C145.555 46.5839 145.187 45.7276 145.187 44.7132V11.989C145.187 10.9746 145.555 10.1051 146.28 9.38057C147.005 8.656 147.861 8.28711 148.836 8.28711C149.811 8.28711 150.706 8.656 151.418 9.38057C152.129 10.1051 152.485 10.9746 152.485 11.989V22.8049C153.051 22.2647 153.736 21.9485 154.527 21.83C155.317 21.7246 156.055 21.8563 156.753 22.2384C158.624 23.2133 160.442 24.2935 162.207 25.466C163.973 26.6385 165.593 27.8241 167.042 29.023C167.833 29.6553 168.267 30.4853 168.346 31.5128C168.425 32.5404 168.149 33.4494 167.516 34.2399C166.884 35.0303 166.054 35.4782 165.027 35.5704C163.999 35.6627 163.09 35.3992 162.3 34.7668C161.417 34.0686 160.429 33.344 159.335 32.5799C158.242 31.8158 157.175 31.1045 156.134 30.4194C155.093 29.7344 154.158 29.1811 153.341 28.7331C153.209 28.6409 153.078 28.5355 152.933 28.4301C152.788 28.3247 152.643 28.2062 152.485 28.0744V44.7263C152.485 45.7407 152.129 46.5971 151.418 47.3085C150.706 48.0199 149.85 48.3756 148.836 48.3756V48.3624Z" fill="black"/>
<path d="M214.798 48.9821C211.346 47.9018 208.263 46.2287 205.549 43.9496C202.836 41.6705 200.675 39.1016 199.094 36.2165C197.513 39.128 195.366 41.6179 192.639 43.6862C189.925 45.7545 186.684 47.4671 182.917 48.8372C181.836 49.2192 180.848 49.2588 179.926 48.9821C179.004 48.6923 178.345 48.0599 177.937 47.085C177.528 46.1102 177.542 45.1748 177.99 44.2922C178.437 43.4095 179.175 42.8035 180.216 42.4873C183.628 41.3807 186.46 39.9448 188.7 38.1663C190.94 36.401 192.639 34.2272 193.772 31.6715H180.111C179.294 31.6715 178.569 31.3685 177.95 30.7493C177.331 30.1301 177.028 29.4187 177.028 28.5888C177.028 27.7588 177.331 27.0079 177.95 26.4019C178.569 25.7959 179.281 25.5061 180.111 25.5061H195.34C195.406 24.9659 195.445 24.4258 195.485 23.8988C195.511 23.3587 195.537 22.8054 195.537 22.2389V20.3946H187.238C186.987 20.8952 186.737 21.3695 186.474 21.8174C186.223 22.2653 185.973 22.6737 185.709 23.0557C185.169 23.8725 184.418 24.4126 183.457 24.663C182.495 24.9133 181.599 24.7947 180.782 24.2809C180.058 23.833 179.57 23.2006 179.333 22.3838C179.096 21.5671 179.215 20.7898 179.689 20.0652C180.255 19.143 180.875 18.0628 181.533 16.7981C182.192 15.5334 182.824 14.2555 183.404 12.9513C183.984 11.6602 184.445 10.5273 184.761 9.57873C185.077 8.69607 185.644 8.10324 186.474 7.80023C187.29 7.49723 188.133 7.51043 188.99 7.82661C189.912 8.14278 190.544 8.68292 190.913 9.43384C191.282 10.1979 191.322 11.0015 191.032 11.8578C190.781 12.6483 190.492 13.386 190.175 14.0842H195.537V8.39308C195.537 7.37868 195.867 6.56189 196.538 5.95589C197.197 5.33671 197.988 5.03369 198.91 5.03369C199.832 5.03369 200.622 5.33671 201.281 5.95589C201.94 6.57506 202.282 7.39186 202.282 8.39308V14.0842H213.375C214.257 14.0842 215.008 14.3872 215.601 15.0064C216.207 15.6256 216.497 16.3633 216.497 17.2065C216.497 18.0496 216.194 18.84 215.601 19.4592C214.995 20.0784 214.257 20.3814 213.375 20.3814H202.282V22.2258C202.282 23.306 202.23 24.3863 202.137 25.4929H217.696C218.552 25.4929 219.277 25.7959 219.883 26.3887C220.489 26.9947 220.779 27.7193 220.779 28.5756C220.779 29.4319 220.476 30.117 219.883 30.7361C219.277 31.3553 218.552 31.6583 217.696 31.6583H203.85C206.406 36.9016 211.056 40.5112 217.788 42.4742C218.803 42.764 219.514 43.37 219.949 44.3054C220.37 45.2407 220.37 46.2156 219.922 47.2168C219.514 48.2312 218.829 48.8503 217.854 49.0875C216.892 49.3246 215.865 49.2851 214.798 48.9689V48.9821Z" fill="black"/>
<path d="M225.429 48.1779C224.797 47.6773 224.402 46.9791 224.244 46.1096C224.086 45.2401 224.323 44.4629 224.955 43.7646C225.245 43.4221 225.627 42.9347 226.114 42.3155C226.602 41.6963 227.089 41.064 227.564 40.4184C228.038 39.7729 228.42 39.2591 228.697 38.8771C229.237 38.0866 229.909 37.5992 230.712 37.428C231.516 37.2567 232.319 37.4016 233.11 37.8759C233.834 38.2843 234.322 38.9034 234.585 39.7202C234.836 40.537 234.691 41.3801 234.164 42.2365C233.663 43.0269 233.044 43.9359 232.333 44.9635C231.621 45.991 231.002 46.821 230.462 47.4533C229.803 48.2701 229.013 48.7444 228.091 48.8761C227.168 49.0079 226.286 48.7707 225.429 48.1647V48.1779ZM248.563 48.4546C247.68 48.9552 246.732 49.1133 245.744 48.9025C244.742 48.6917 244.018 48.1516 243.544 47.2689C243.32 46.8605 243.201 46.4916 243.162 46.1755C242.595 46.3994 241.989 46.4389 241.357 46.294C240.724 46.1491 240.158 45.7802 239.644 45.1742C239.302 44.7658 238.867 44.2521 238.366 43.6329C237.866 43.0137 237.431 42.4868 237.088 42.0389C236.588 41.4065 236.403 40.7083 236.548 39.931C236.693 39.1537 237.088 38.5214 237.76 38.0076C238.393 37.507 239.104 37.2699 239.894 37.3225C240.685 37.3752 241.344 37.7046 241.884 38.3369C242.174 38.6531 242.569 39.0879 243.069 39.6412C243.57 40.1945 243.992 40.6292 244.308 40.9454C244.848 41.4855 245.164 42.052 245.256 42.658C248.128 41.0113 250.526 39.0747 252.423 36.8219C250.618 33.6865 249.34 30.3403 248.576 26.7702L248.154 27.4816C247.707 28.2457 247.074 28.7595 246.231 29.023C245.388 29.2864 244.558 29.2469 243.741 28.9044V30.09C243.741 32.0134 243.478 33.5153 242.964 34.5955C242.437 35.6758 241.541 36.4267 240.263 36.8483C238.985 37.2699 237.207 37.4938 234.928 37.4938C232.649 37.4938 230.923 37.283 229.645 36.8483C228.367 36.4267 227.458 35.6758 226.944 34.5955C226.417 33.5153 226.167 32.0134 226.167 30.09V14.0573C226.167 12.1339 226.431 10.6321 226.944 9.55182C227.458 8.47155 228.367 7.72061 229.645 7.29904C230.923 6.87747 232.688 6.65353 234.928 6.65353C237.167 6.65353 238.985 6.8643 240.263 7.29904C241.541 7.72061 242.45 8.47155 242.964 9.55182C243.478 10.6321 243.741 12.1339 243.741 14.0573V22.3042C244.848 20.0646 245.796 17.6406 246.587 15.0453C247.377 12.4501 247.931 10.0656 248.247 7.8787C248.405 6.77208 248.866 5.98166 249.617 5.5074C250.381 5.03313 251.224 4.88821 252.173 5.08582C253.147 5.27026 253.885 5.70499 254.373 6.39003C254.86 7.07508 255.031 7.86553 254.873 8.78771C254.741 9.64401 254.583 10.5004 254.373 11.3698C254.162 12.2393 253.938 13.0956 253.688 13.9519H265.597C266.545 13.9519 267.283 14.2549 267.823 14.8477C268.363 15.4537 268.627 16.1651 268.627 16.9819C268.627 17.7987 268.363 18.5628 267.823 19.1688C267.283 19.7748 266.545 20.0646 265.597 20.0646H265.03C264.398 26.5462 262.791 32.0793 260.195 36.6638C262.066 38.6926 264.293 40.537 266.888 42.2101C267.744 42.7766 268.232 43.5275 268.363 44.4365C268.495 45.3587 268.284 46.2018 267.744 46.9922C267.178 47.8485 266.374 48.336 265.32 48.4677C264.279 48.5995 263.331 48.3624 262.475 47.7564C260.103 46.0174 258.048 44.1467 256.309 42.1574C254.07 44.6605 251.488 46.742 248.576 48.4151L248.563 48.4546ZM232.491 15.5987H237.378V14.795C237.378 13.8465 237.233 13.201 236.957 12.8716C236.68 12.5423 235.995 12.371 234.915 12.371C233.834 12.371 233.202 12.5423 232.925 12.8716C232.636 13.201 232.504 13.8465 232.504 14.795V15.5987H232.491ZM232.491 23.7007H237.378V20.2886H232.491V23.7007ZM234.915 31.8158C235.995 31.8158 236.667 31.6446 236.957 31.3152C237.246 30.9859 237.378 30.3404 237.378 29.3918V28.3906H232.491V29.3918C232.491 30.3404 232.636 30.9859 232.912 31.3152C233.202 31.6446 233.861 31.8158 234.901 31.8158H234.915ZM256.256 30.6697C256.915 29.0888 257.455 27.4157 257.851 25.6372C258.246 23.8719 258.509 22.0144 258.628 20.091H253.885C254.07 24.0695 254.86 27.6002 256.256 30.6697Z" fill="black"/>
<path d="M276.307 45.8069C275.226 45.8069 274.317 45.438 273.58 44.6871C272.842 43.9494 272.46 43.0535 272.46 42.0128C272.46 40.9721 272.829 40.0235 273.58 39.2858C274.331 38.548 275.226 38.166 276.307 38.166C277.387 38.166 278.256 38.5349 279.007 39.2858C279.772 40.0235 280.14 40.9325 280.14 42.0128C280.14 43.0931 279.758 43.9494 279.007 44.6871C278.243 45.4249 277.348 45.8069 276.307 45.8069Z" fill="black"/>
<path d="M288.743 45.8069C287.663 45.8069 286.754 45.438 286.016 44.6871C285.279 43.9494 284.896 43.0535 284.896 42.0128C284.896 40.9721 285.265 40.0235 286.016 39.2858C286.767 38.548 287.663 38.166 288.743 38.166C289.824 38.166 290.693 38.5349 291.444 39.2858C292.208 40.0235 292.577 40.9325 292.577 42.0128C292.577 43.0931 292.195 43.9494 291.444 44.6871C290.68 45.4249 289.784 45.8069 288.743 45.8069Z" fill="black"/>
<path d="M301.166 45.8069C300.086 45.8069 299.177 45.438 298.439 44.6871C297.701 43.9494 297.319 43.0535 297.319 42.0128C297.319 40.9721 297.688 40.0235 298.439 39.2858C299.19 38.548 300.086 38.166 301.166 38.166C302.246 38.166 303.116 38.5349 303.867 39.2858C304.631 40.0235 305 40.9325 305 42.0128C305 43.0931 304.618 43.9494 303.867 44.6871C303.103 45.4249 302.207 45.8069 301.166 45.8069Z" fill="black"/>
<path d="M10.1137 47.6109C9.1915 47.993 8.26932 47.993 7.33396 47.6373C6.39861 47.2684 5.72674 46.6361 5.31835 45.7139C4.90995 44.7917 4.89678 43.8695 5.26565 42.921C5.6477 41.9725 6.29322 41.2874 7.2154 40.8791C17.4911 36.3867 24.8554 29.9183 29.3213 21.487C30.1776 19.8139 29.6112 18.9707 27.6087 18.9707H21.9176C20.4289 20.9995 18.769 22.9361 16.9378 24.7805C15.1066 26.6248 13.1569 28.2979 11.1017 29.7865C10.2849 30.353 9.37593 30.5507 8.37471 30.3794C7.37349 30.2081 6.58305 29.7075 5.97705 28.8907C5.41056 28.0739 5.21295 27.1518 5.38422 26.1374C5.55548 25.123 6.05609 24.3325 6.87287 23.766C8.54597 22.6594 10.2191 21.2893 11.879 19.6689C13.5389 18.0354 15.0539 16.2964 16.4108 14.4521C17.7678 12.6077 18.848 10.7897 19.6385 9.02435C20.0469 8.10217 20.7319 7.46983 21.6804 7.10096C22.629 6.73209 23.5643 6.7716 24.4733 7.21952C25.3955 7.62791 26.041 8.29978 26.4362 9.23514C26.8314 10.1705 26.8051 11.0795 26.3704 11.9622H28.7417C31.4555 11.9622 33.5634 12.4628 35.052 13.4508C36.5407 14.452 37.3838 15.8353 37.5946 17.6006C37.8054 19.3659 37.3443 21.4079 36.2377 23.7134C34.5909 27.1254 32.4172 30.3794 29.7166 33.4621C27.0159 36.5448 23.9859 39.2982 20.6397 41.7354C17.2935 44.1725 13.776 46.1355 10.1137 47.6109Z" stroke="url(#paint0_linear_1417_757)" stroke-width="8.5" stroke-linecap="round" stroke-linejoin="round"/>
<path d="M48.5291 40.1544C47.5542 40.1544 46.6979 39.7987 45.9733 39.0873C45.2488 38.3759 44.8799 37.5196 44.8799 36.5052C44.8799 35.4908 45.2488 34.6345 45.9733 33.9232C46.6979 33.2118 47.5542 32.8561 48.5291 32.8561H62.5725V22.8965H54.1807C53.1663 22.8965 52.2968 22.5408 51.5723 21.8294C50.8477 21.118 50.4788 20.2617 50.4788 19.2473C50.4788 18.2329 50.8477 17.3766 51.5723 16.6652C52.2968 15.9538 53.1663 15.5981 54.1807 15.5981H78.2232C79.2376 15.5981 80.0939 15.9538 80.8053 16.6652C81.5167 17.3766 81.8724 18.2329 81.8724 19.2473C81.8724 20.2617 81.5167 21.118 80.8053 21.8294C80.0939 22.5408 79.2376 22.8965 78.2232 22.8965H69.8709V32.8561H84.0988C85.1132 32.8561 85.9695 33.2118 86.6809 33.9232C87.3923 34.6345 87.748 35.4908 87.748 36.5052C87.748 37.5196 87.3923 38.3759 86.6809 39.0873C85.9695 39.7987 85.1132 40.1544 84.0988 40.1544H48.5291Z" stroke="url(#paint1_linear_1417_757)" stroke-width="8.5" stroke-linecap="round" stroke-linejoin="round"/>
<path d="M98.9855 44.8976C98.1029 45.3455 97.1807 45.3983 96.2058 45.0689C95.2441 44.7396 94.5327 44.1072 94.098 43.1982C93.6501 42.276 93.5974 41.3538 93.9267 40.4053C94.2561 39.4568 94.8884 38.7586 95.7974 38.3238C100.198 36.2028 104.084 33.6866 107.47 30.7883C110.855 27.8769 113.635 24.781 115.822 21.4875C116.546 20.4072 116.744 19.6168 116.415 19.1162C116.085 18.6155 115.321 18.3521 114.109 18.3521H101.541C100.566 18.3521 99.7101 17.9832 98.9855 17.2586C98.261 16.534 97.8921 15.6778 97.8921 14.7029C97.8921 13.728 98.261 12.819 98.9855 12.0944C99.7101 11.3699 100.566 11.001 101.541 11.001H114.491C117.627 11.001 120.038 11.5807 121.724 12.7268C123.41 13.8861 124.332 15.467 124.477 17.4958C124.622 19.5246 123.937 21.8432 122.409 24.4648C122.159 24.939 121.869 25.4265 121.526 25.9139C121.197 26.4014 120.854 26.902 120.512 27.4026C121.935 28.5751 123.357 29.8398 124.78 31.1967C126.203 32.5536 127.56 33.871 128.838 35.1357C130.116 36.4004 131.222 37.5071 132.131 38.4556C132.83 39.1538 133.172 40.0101 133.146 41.0377C133.132 42.0652 132.764 42.9479 132.026 43.6725C131.288 44.397 130.458 44.7132 129.417 44.6868C128.377 44.6737 127.494 44.318 126.756 43.6198C125.9 42.6976 124.872 41.6173 123.647 40.3658C122.435 39.1143 121.144 37.8232 119.8 36.4795C118.457 35.1357 117.139 33.8974 115.835 32.7512C113.437 35.1489 110.75 37.428 107.799 39.5622C104.848 41.6964 101.897 43.4748 98.9592 44.8976H98.9855Z" stroke="url(#paint2_linear_1417_757)" stroke-width="8.5" stroke-linecap="round" stroke-linejoin="round"/>
<path d="M148.836 48.3624C147.861 48.3624 147.005 48.0067 146.28 47.2953C145.555 46.5839 145.187 45.7276 145.187 44.7132V11.989C145.187 10.9746 145.555 10.1051 146.28 9.38057C147.005 8.656 147.861 8.28711 148.836 8.28711C149.811 8.28711 150.706 8.656 151.418 9.38057C152.129 10.1051 152.485 10.9746 152.485 11.989V22.8049C153.051 22.2647 153.736 21.9485 154.527 21.83C155.317 21.7246 156.055 21.8563 156.753 22.2384C158.624 23.2133 160.442 24.2935 162.207 25.466C163.973 26.6385 165.593 27.8241 167.042 29.023C167.833 29.6553 168.267 30.4853 168.346 31.5128C168.425 32.5404 168.149 33.4494 167.516 34.2399C166.884 35.0303 166.054 35.4782 165.027 35.5704C163.999 35.6627 163.09 35.3992 162.3 34.7668C161.417 34.0686 160.429 33.344 159.335 32.5799C158.242 31.8158 157.175 31.1045 156.134 30.4194C155.093 29.7344 154.158 29.1811 153.341 28.7331C153.209 28.6409 153.078 28.5355 152.933 28.4301C152.788 28.3247 152.643 28.2062 152.485 28.0744V44.7263C152.485 45.7407 152.129 46.5971 151.418 47.3085C150.706 48.0199 149.85 48.3756 148.836 48.3756V48.3624Z" stroke="url(#paint3_linear_1417_757)" stroke-width="8.5" stroke-linecap="round" stroke-linejoin="round"/>
<path d="M214.798 48.9821C211.346 47.9018 208.263 46.2287 205.549 43.9496C202.836 41.6705 200.675 39.1016 199.094 36.2165C197.513 39.128 195.366 41.6179 192.639 43.6862C189.925 45.7545 186.684 47.4671 182.917 48.8372C181.836 49.2192 180.848 49.2588 179.926 48.9821C179.004 48.6923 178.345 48.0599 177.937 47.085C177.528 46.1102 177.542 45.1748 177.99 44.2922C178.437 43.4095 179.175 42.8035 180.216 42.4873C183.628 41.3807 186.46 39.9448 188.7 38.1663C190.94 36.401 192.639 34.2272 193.772 31.6715H180.111C179.294 31.6715 178.569 31.3685 177.95 30.7493C177.331 30.1301 177.028 29.4187 177.028 28.5888C177.028 27.7588 177.331 27.0079 177.95 26.4019C178.569 25.7959 179.281 25.5061 180.111 25.5061H195.34C195.406 24.9659 195.445 24.4258 195.485 23.8988C195.511 23.3587 195.537 22.8054 195.537 22.2389V20.3946H187.238C186.987 20.8952 186.737 21.3695 186.474 21.8174C186.223 22.2653 185.973 22.6737 185.709 23.0557C185.169 23.8725 184.418 24.4126 183.457 24.663C182.495 24.9133 181.599 24.7947 180.782 24.2809C180.058 23.833 179.57 23.2006 179.333 22.3838C179.096 21.5671 179.215 20.7898 179.689 20.0652C180.255 19.143 180.875 18.0628 181.533 16.7981C182.192 15.5334 182.824 14.2555 183.404 12.9513C183.984 11.6602 184.445 10.5273 184.761 9.57873C185.077 8.69607 185.644 8.10324 186.474 7.80023C187.29 7.49723 188.133 7.51043 188.99 7.82661C189.912 8.14278 190.544 8.68292 190.913 9.43384C191.282 10.1979 191.322 11.0015 191.032 11.8578C190.781 12.6483 190.492 13.386 190.175 14.0842H195.537V8.39308C195.537 7.37868 195.867 6.56189 196.538 5.95589C197.197 5.33671 197.988 5.03369 198.91 5.03369C199.832 5.03369 200.622 5.33671 201.281 5.95589C201.94 6.57506 202.282 7.39186 202.282 8.39308V14.0842H213.375C214.257 14.0842 215.008 14.3872 215.601 15.0064C216.207 15.6256 216.497 16.3633 216.497 17.2065C216.497 18.0496 216.194 18.84 215.601 19.4592C214.995 20.0784 214.257 20.3814 213.375 20.3814H202.282V22.2258C202.282 23.306 202.23 24.3863 202.137 25.4929H217.696C218.552 25.4929 219.277 25.7959 219.883 26.3887C220.489 26.9947 220.779 27.7193 220.779 28.5756C220.779 29.4319 220.476 30.117 219.883 30.7361C219.277 31.3553 218.552 31.6583 217.696 31.6583H203.85C206.406 36.9016 211.056 40.5112 217.788 42.4742C218.803 42.764 219.514 43.37 219.949 44.3054C220.37 45.2407 220.37 46.2156 219.922 47.2168C219.514 48.2312 218.829 48.8503 217.854 49.0875C216.892 49.3246 215.865 49.2851 214.798 48.9689V48.9821Z" stroke="url(#paint4_linear_1417_757)" stroke-width="8.5" stroke-linecap="round" stroke-linejoin="round"/>
<path d="M225.429 48.1779C224.797 47.6773 224.402 46.9791 224.244 46.1096C224.086 45.2401 224.323 44.4629 224.955 43.7646C225.245 43.4221 225.627 42.9347 226.114 42.3155C226.602 41.6963 227.089 41.064 227.564 40.4184C228.038 39.7729 228.42 39.2591 228.697 38.8771C229.237 38.0866 229.909 37.5992 230.712 37.428C231.516 37.2567 232.319 37.4016 233.11 37.8759C233.834 38.2843 234.322 38.9034 234.585 39.7202C234.836 40.537 234.691 41.3801 234.164 42.2365C233.663 43.0269 233.044 43.9359 232.333 44.9635C231.621 45.991 231.002 46.821 230.462 47.4533C229.803 48.2701 229.013 48.7444 228.091 48.8761C227.168 49.0079 226.286 48.7707 225.429 48.1647V48.1779ZM248.563 48.4546C247.68 48.9552 246.732 49.1133 245.744 48.9025C244.742 48.6917 244.018 48.1516 243.544 47.2689C243.32 46.8605 243.201 46.4916 243.162 46.1755C242.595 46.3994 241.989 46.4389 241.357 46.294C240.724 46.1491 240.158 45.7802 239.644 45.1742C239.302 44.7658 238.867 44.2521 238.366 43.6329C237.866 43.0137 237.431 42.4868 237.088 42.0389C236.588 41.4065 236.403 40.7083 236.548 39.931C236.693 39.1537 237.088 38.5214 237.76 38.0076C238.393 37.507 239.104 37.2699 239.894 37.3225C240.685 37.3752 241.344 37.7046 241.884 38.3369C242.173 38.6531 242.569 39.0879 243.069 39.6412C243.57 40.1945 243.992 40.6292 244.308 40.9454C244.848 41.4855 245.164 42.052 245.256 42.658C248.128 41.0113 250.526 39.0747 252.423 36.8219C250.618 33.6865 249.34 30.3403 248.576 26.7702L248.154 27.4816C247.707 28.2457 247.074 28.7595 246.231 29.023C245.388 29.2864 244.558 29.2469 243.741 28.9044V30.09C243.741 32.0134 243.478 33.5153 242.964 34.5955C242.437 35.6758 241.541 36.4267 240.263 36.8483C238.985 37.2699 237.207 37.4938 234.928 37.4938C232.649 37.4938 230.923 37.283 229.645 36.8483C228.367 36.4267 227.458 35.6758 226.944 34.5955C226.417 33.5153 226.167 32.0134 226.167 30.09V14.0573C226.167 12.1339 226.431 10.6321 226.944 9.55182C227.458 8.47155 228.367 7.72061 229.645 7.29904C230.923 6.87747 232.688 6.65353 234.928 6.65353C237.167 6.65353 238.985 6.8643 240.263 7.29904C241.541 7.72061 242.45 8.47155 242.964 9.55182C243.478 10.6321 243.741 12.1339 243.741 14.0573V22.3042C244.848 20.0646 245.796 17.6406 246.587 15.0453C247.377 12.4501 247.931 10.0656 248.247 7.8787C248.405 6.77208 248.866 5.98166 249.617 5.5074C250.381 5.03313 251.224 4.88821 252.173 5.08582C253.147 5.27026 253.885 5.70499 254.373 6.39003C254.86 7.07508 255.031 7.86553 254.873 8.78771C254.741 9.64401 254.583 10.5004 254.373 11.3698C254.162 12.2393 253.938 13.0956 253.688 13.9519H265.597C266.545 13.9519 267.283 14.2549 267.823 14.8477C268.363 15.4537 268.627 16.1651 268.627 16.9819C268.627 17.7987 268.363 18.5628 267.823 19.1688C267.283 19.7748 266.545 20.0646 265.597 20.0646H265.03C264.398 26.5462 262.791 32.0793 260.195 36.6638C262.066 38.6926 264.293 40.537 266.888 42.2101C267.744 42.7766 268.232 43.5275 268.363 44.4365C268.495 45.3587 268.284 46.2018 267.744 46.9922C267.178 47.8486 266.374 48.336 265.32 48.4677C264.279 48.5995 263.331 48.3624 262.475 47.7564C260.103 46.0174 258.048 44.1467 256.309 42.1574C254.07 44.6605 251.488 46.742 248.576 48.4151L248.563 48.4546ZM232.491 15.5987H237.378V14.795C237.378 13.8465 237.233 13.201 236.957 12.8716C236.68 12.5423 235.995 12.371 234.915 12.371C233.834 12.371 233.202 12.5423 232.925 12.8716C232.636 13.201 232.504 13.8465 232.504 14.795V15.5987H232.491ZM232.491 23.7007H237.378V20.2886H232.491V23.7007ZM234.915 31.8158C235.995 31.8158 236.667 31.6446 236.957 31.3152C237.246 30.9859 237.378 30.3404 237.378 29.3918V28.3906H232.491V29.3918C232.491 30.3404 232.636 30.9859 232.912 31.3152C233.202 31.6446 233.861 31.8158 234.901 31.8158H234.915ZM256.256 30.6697C256.915 29.0888 257.455 27.4157 257.851 25.6372C258.246 23.8719 258.509 22.0144 258.628 20.091H253.885C254.07 24.0695 254.86 27.6002 256.256 30.6697Z" stroke="url(#paint5_linear_1417_757)" stroke-width="8.5" stroke-linecap="round" stroke-linejoin="round"/>
<path d="M276.307 45.8069C275.226 45.8069 274.317 45.438 273.58 44.6871C272.842 43.9494 272.46 43.0535 272.46 42.0128C272.46 40.9721 272.829 40.0235 273.58 39.2858C274.331 38.548 275.226 38.166 276.307 38.166C277.387 38.166 278.256 38.5349 279.007 39.2858C279.772 40.0235 280.14 40.9325 280.14 42.0128C280.14 43.0931 279.758 43.9494 279.007 44.6871C278.243 45.4249 277.348 45.8069 276.307 45.8069Z" stroke="url(#paint6_linear_1417_757)" stroke-width="8.5" stroke-linecap="round" stroke-linejoin="round"/>
<path d="M288.743 45.8069C287.663 45.8069 286.754 45.438 286.016 44.6871C285.279 43.9494 284.896 43.0535 284.896 42.0128C284.896 40.9721 285.265 40.0235 286.016 39.2858C286.767 38.548 287.663 38.166 288.743 38.166C289.824 38.166 290.693 38.5349 291.444 39.2858C292.208 40.0235 292.577 40.9325 292.577 42.0128C292.577 43.0931 292.195 43.9494 291.444 44.6871C290.68 45.4249 289.784 45.8069 288.743 45.8069Z" stroke="url(#paint7_linear_1417_757)" stroke-width="8.5" stroke-linecap="round" stroke-linejoin="round"/>
<path d="M301.166 45.8069C300.086 45.8069 299.177 45.438 298.439 44.6871C297.701 43.9494 297.319 43.0535 297.319 42.0128C297.319 40.9721 297.688 40.0235 298.439 39.2858C299.19 38.548 300.086 38.166 301.166 38.166C302.246 38.166 303.116 38.5349 303.867 39.2858C304.631 40.0235 305 40.9325 305 42.0128C305 43.0931 304.618 43.9494 303.867 44.6871C303.103 45.4249 302.207 45.8069 301.166 45.8069Z" stroke="url(#paint8_linear_1417_757)" stroke-width="8.5" stroke-linecap="round" stroke-linejoin="round"/>
<path d="M10.1137 47.6109C9.1915 47.993 8.26932 47.993 7.33396 47.6373C6.39861 47.2684 5.72674 46.6361 5.31835 45.7139C4.90995 44.7917 4.89678 43.8695 5.26565 42.921C5.6477 41.9725 6.29322 41.2874 7.2154 40.8791C17.4911 36.3867 24.8554 29.9183 29.3213 21.487C30.1776 19.8139 29.6112 18.9707 27.6087 18.9707H21.9176C20.4289 20.9995 18.769 22.9361 16.9378 24.7805C15.1066 26.6248 13.1569 28.2979 11.1017 29.7865C10.2849 30.353 9.37593 30.5507 8.37471 30.3794C7.37349 30.2081 6.58305 29.7075 5.97705 28.8907C5.41056 28.0739 5.21295 27.1518 5.38422 26.1374C5.55548 25.123 6.05609 24.3325 6.87287 23.766C8.54597 22.6594 10.2191 21.2893 11.879 19.6689C13.5389 18.0354 15.0539 16.2964 16.4108 14.4521C17.7678 12.6077 18.848 10.7897 19.6385 9.02435C20.0469 8.10217 20.7319 7.46983 21.6804 7.10096C22.629 6.73209 23.5643 6.7716 24.4733 7.21952C25.3955 7.62791 26.041 8.29978 26.4362 9.23514C26.8314 10.1705 26.8051 11.0795 26.3704 11.9622H28.7417C31.4555 11.9622 33.5634 12.4628 35.052 13.4508C36.5407 14.452 37.3838 15.8353 37.5946 17.6006C37.8054 19.3659 37.3443 21.4079 36.2377 23.7134C34.5909 27.1254 32.4172 30.3794 29.7166 33.4621C27.0159 36.5448 23.9859 39.2982 20.6397 41.7354C17.2935 44.1725 13.776 46.1355 10.1137 47.6109Z" fill="url(#paint9_linear_1417_757)"/>
<path d="M48.5291 40.1544C47.5542 40.1544 46.6979 39.7987 45.9733 39.0873C45.2488 38.3759 44.8799 37.5196 44.8799 36.5052C44.8799 35.4908 45.2488 34.6345 45.9733 33.9232C46.6979 33.2118 47.5542 32.8561 48.5291 32.8561H62.5725V22.8965H54.1807C53.1663 22.8965 52.2968 22.5408 51.5723 21.8294C50.8477 21.118 50.4788 20.2617 50.4788 19.2473C50.4788 18.2329 50.8477 17.3766 51.5723 16.6652C52.2968 15.9538 53.1663 15.5981 54.1807 15.5981H78.2232C79.2376 15.5981 80.0939 15.9538 80.8053 16.6652C81.5167 17.3766 81.8724 18.2329 81.8724 19.2473C81.8724 20.2617 81.5167 21.118 80.8053 21.8294C80.0939 22.5408 79.2376 22.8965 78.2232 22.8965H69.8709V32.8561H84.0988C85.1132 32.8561 85.9695 33.2118 86.6809 33.9232C87.3923 34.6345 87.748 35.4908 87.748 36.5052C87.748 37.5196 87.3923 38.3759 86.6809 39.0873C85.9695 39.7987 85.1132 40.1544 84.0988 40.1544H48.5291Z" fill="url(#paint10_linear_1417_757)"/>
<path d="M98.9855 44.8976C98.1029 45.3456 97.1807 45.3983 96.2058 45.0689C95.2441 44.7396 94.5327 44.1072 94.098 43.1982C93.6501 42.276 93.5974 41.3538 93.9267 40.4053C94.2561 39.4568 94.8884 38.7586 95.7974 38.3238C100.198 36.2028 104.084 33.6866 107.47 30.7883C110.855 27.8769 113.635 24.781 115.822 21.4875C116.546 20.4072 116.744 19.6168 116.415 19.1162C116.085 18.6155 115.321 18.3521 114.109 18.3521H101.541C100.566 18.3521 99.7101 17.9832 98.9855 17.2586C98.261 16.534 97.8921 15.6778 97.8921 14.7029C97.8921 13.728 98.261 12.819 98.9855 12.0944C99.7101 11.3699 100.566 11.001 101.541 11.001H114.491C117.627 11.001 120.038 11.5807 121.724 12.7268C123.41 13.8861 124.332 15.467 124.477 17.4958C124.622 19.5246 123.937 21.8432 122.409 24.4648C122.159 24.939 121.869 25.4265 121.526 25.9139C121.197 26.4014 120.854 26.902 120.512 27.4026C121.935 28.5751 123.357 29.8398 124.78 31.1967C126.203 32.5536 127.56 33.871 128.838 35.1357C130.116 36.4004 131.222 37.5071 132.131 38.4556C132.83 39.1538 133.172 40.0101 133.146 41.0377C133.132 42.0652 132.764 42.9479 132.026 43.6725C131.288 44.397 130.458 44.7132 129.417 44.6868C128.377 44.6737 127.494 44.318 126.756 43.6198C125.9 42.6976 124.872 41.6173 123.647 40.3658C122.435 39.1143 121.144 37.8232 119.8 36.4795C118.457 35.1357 117.139 33.8974 115.835 32.7512C113.437 35.1489 110.75 37.428 107.799 39.5622C104.848 41.6964 101.897 43.4748 98.9592 44.8976H98.9855Z" fill="url(#paint11_linear_1417_757)"/>
<path d="M148.836 48.3624C147.861 48.3624 147.005 48.0067 146.28 47.2953C145.555 46.5839 145.187 45.7276 145.187 44.7132V11.989C145.187 10.9746 145.555 10.1051 146.28 9.38057C147.005 8.656 147.861 8.28711 148.836 8.28711C149.811 8.28711 150.706 8.656 151.418 9.38057C152.129 10.1051 152.485 10.9746 152.485 11.989V22.8049C153.051 22.2647 153.736 21.9485 154.527 21.83C155.317 21.7246 156.055 21.8563 156.753 22.2384C158.624 23.2133 160.442 24.2935 162.207 25.466C163.973 26.6385 165.593 27.8241 167.042 29.023C167.833 29.6553 168.267 30.4853 168.346 31.5128C168.425 32.5404 168.149 33.4494 167.516 34.2399C166.884 35.0303 166.054 35.4782 165.027 35.5704C163.999 35.6627 163.09 35.3992 162.3 34.7668C161.417 34.0686 160.429 33.344 159.335 32.5799C158.242 31.8158 157.175 31.1045 156.134 30.4194C155.093 29.7344 154.158 29.1811 153.341 28.7331C153.209 28.6409 153.078 28.5355 152.933 28.4301C152.788 28.3247 152.643 28.2062 152.485 28.0744V44.7263C152.485 45.7407 152.129 46.5971 151.418 47.3085C150.706 48.0199 149.85 48.3756 148.836 48.3756V48.3624Z" fill="url(#paint12_linear_1417_757)"/>
<path d="M214.798 48.9821C211.346 47.9018 208.263 46.2287 205.549 43.9496C202.836 41.6705 200.675 39.1016 199.094 36.2165C197.513 39.128 195.366 41.6179 192.639 43.6862C189.925 45.7545 186.684 47.4671 182.917 48.8372C181.836 49.2192 180.848 49.2588 179.926 48.9821C179.004 48.6923 178.345 48.0599 177.937 47.085C177.528 46.1102 177.542 45.1748 177.99 44.2922C178.437 43.4095 179.175 42.8035 180.216 42.4873C183.628 41.3807 186.46 39.9448 188.7 38.1663C190.94 36.401 192.639 34.2272 193.772 31.6715H180.111C179.294 31.6715 178.569 31.3685 177.95 30.7493C177.331 30.1301 177.028 29.4187 177.028 28.5888C177.028 27.7588 177.331 27.0079 177.95 26.4019C178.569 25.7959 179.281 25.5061 180.111 25.5061H195.34C195.406 24.9659 195.445 24.4258 195.485 23.8988C195.511 23.3587 195.537 22.8054 195.537 22.2389V20.3946H187.238C186.987 20.8952 186.737 21.3695 186.474 21.8174C186.223 22.2653 185.973 22.6737 185.709 23.0557C185.169 23.8725 184.418 24.4126 183.457 24.663C182.495 24.9133 181.599 24.7947 180.782 24.2809C180.058 23.833 179.57 23.2006 179.333 22.3838C179.096 21.5671 179.215 20.7898 179.689 20.0652C180.255 19.143 180.875 18.0628 181.533 16.7981C182.192 15.5334 182.824 14.2555 183.404 12.9513C183.984 11.6602 184.445 10.5273 184.761 9.57873C185.077 8.69607 185.644 8.10324 186.474 7.80023C187.29 7.49723 188.133 7.51043 188.99 7.82661C189.912 8.14278 190.544 8.68292 190.913 9.43384C191.282 10.1979 191.322 11.0015 191.032 11.8578C190.781 12.6483 190.492 13.386 190.175 14.0842H195.537V8.39308C195.537 7.37868 195.867 6.56189 196.538 5.95589C197.197 5.33671 197.988 5.03369 198.91 5.03369C199.832 5.03369 200.622 5.33671 201.281 5.95589C201.94 6.57506 202.282 7.39186 202.282 8.39308V14.0842H213.375C214.257 14.0842 215.008 14.3872 215.601 15.0064C216.207 15.6256 216.497 16.3633 216.497 17.2065C216.497 18.0496 216.194 18.84 215.601 19.4592C214.995 20.0784 214.257 20.3814 213.375 20.3814H202.282V22.2258C202.282 23.306 202.23 24.3863 202.137 25.4929H217.696C218.552 25.4929 219.277 25.7959 219.883 26.3887C220.489 26.9947 220.779 27.7193 220.779 28.5756C220.779 29.4319 220.476 30.117 219.883 30.7361C219.277 31.3553 218.552 31.6583 217.696 31.6583H203.85C206.406 36.9016 211.056 40.5112 217.788 42.4742C218.803 42.764 219.514 43.37 219.949 44.3054C220.37 45.2407 220.37 46.2156 219.922 47.2168C219.514 48.2312 218.829 48.8503 217.854 49.0875C216.892 49.3246 215.865 49.2851 214.798 48.9689V48.9821Z" fill="url(#paint13_linear_1417_757)"/>
<path d="M225.429 48.1779C224.797 47.6773 224.402 46.9791 224.244 46.1096C224.086 45.2401 224.323 44.4629 224.955 43.7646C225.245 43.4221 225.627 42.9347 226.114 42.3155C226.602 41.6963 227.089 41.064 227.564 40.4184C228.038 39.7729 228.42 39.2591 228.697 38.8771C229.237 38.0866 229.909 37.5992 230.712 37.428C231.516 37.2567 232.319 37.4016 233.11 37.8759C233.834 38.2843 234.322 38.9034 234.585 39.7202C234.836 40.537 234.691 41.3801 234.164 42.2365C233.663 43.0269 233.044 43.9359 232.333 44.9635C231.621 45.991 231.002 46.821 230.462 47.4533C229.803 48.2701 229.013 48.7444 228.091 48.8761C227.168 49.0079 226.286 48.7707 225.429 48.1647V48.1779ZM248.563 48.4546C247.68 48.9552 246.732 49.1133 245.744 48.9025C244.742 48.6917 244.018 48.1516 243.544 47.2689C243.32 46.8605 243.201 46.4916 243.162 46.1755C242.595 46.3994 241.989 46.4389 241.357 46.294C240.724 46.1491 240.158 45.7802 239.644 45.1742C239.302 44.7658 238.867 44.2521 238.366 43.6329C237.866 43.0137 237.431 42.4868 237.088 42.0389C236.588 41.4065 236.403 40.7083 236.548 39.931C236.693 39.1537 237.088 38.5214 237.76 38.0076C238.393 37.507 239.104 37.2699 239.894 37.3225C240.685 37.3752 241.344 37.7046 241.884 38.3369C242.174 38.6531 242.569 39.0879 243.069 39.6412C243.57 40.1945 243.992 40.6292 244.308 40.9454C244.848 41.4855 245.164 42.052 245.256 42.658C248.128 41.0113 250.526 39.0747 252.423 36.8219C250.618 33.6865 249.34 30.3403 248.576 26.7702L248.154 27.4816C247.707 28.2457 247.074 28.7595 246.231 29.023C245.388 29.2864 244.558 29.2469 243.741 28.9044V30.09C243.741 32.0134 243.478 33.5153 242.964 34.5955C242.437 35.6758 241.541 36.4267 240.263 36.8483C238.985 37.2699 237.207 37.4938 234.928 37.4938C232.649 37.4938 230.923 37.283 229.645 36.8483C228.367 36.4267 227.458 35.6758 226.944 34.5955C226.417 33.5153 226.167 32.0134 226.167 30.09V14.0573C226.167 12.1339 226.431 10.6321 226.944 9.55182C227.458 8.47155 228.367 7.72061 229.645 7.29904C230.923 6.87747 232.688 6.65353 234.928 6.65353C237.167 6.65353 238.985 6.8643 240.263 7.29904C241.541 7.72061 242.45 8.47155 242.964 9.55182C243.478 10.6321 243.741 12.1339 243.741 14.0573V22.3042C244.848 20.0646 245.796 17.6406 246.587 15.0453C247.377 12.4501 247.931 10.0656 248.247 7.8787C248.405 6.77208 248.866 5.98166 249.617 5.5074C250.381 5.03313 251.224 4.88821 252.173 5.08582C253.147 5.27026 253.885 5.70499 254.373 6.39003C254.86 7.07508 255.031 7.86553 254.873 8.78771C254.741 9.64401 254.583 10.5004 254.373 11.3698C254.162 12.2393 253.938 13.0956 253.688 13.9519H265.597C266.545 13.9519 267.283 14.2549 267.823 14.8477C268.363 15.4537 268.627 16.1651 268.627 16.9819C268.627 17.7987 268.363 18.5628 267.823 19.1688C267.283 19.7748 266.545 20.0646 265.597 20.0646H265.03C264.398 26.5462 262.791 32.0793 260.195 36.6638C262.066 38.6926 264.293 40.537 266.888 42.2101C267.744 42.7766 268.232 43.5275 268.363 44.4365C268.495 45.3587 268.284 46.2018 267.744 46.9922C267.178 47.8485 266.374 48.336 265.32 48.4677C264.279 48.5995 263.331 48.3624 262.475 47.7564C260.103 46.0174 258.048 44.1467 256.309 42.1574C254.07 44.6605 251.488 46.742 248.576 48.4151L248.563 48.4546ZM232.491 15.5987H237.378V14.795C237.378 13.8465 237.233 13.201 236.957 12.8716C236.68 12.5423 235.995 12.371 234.915 12.371C233.834 12.371 233.202 12.5423 232.925 12.8716C232.636 13.201 232.504 13.8465 232.504 14.795V15.5987H232.491ZM232.491 23.7007H237.378V20.2886H232.491V23.7007ZM234.915 31.8158C235.995 31.8158 236.667 31.6446 236.957 31.3152C237.246 30.9859 237.378 30.3404 237.378 29.3918V28.3906H232.491V29.3918C232.491 30.3404 232.636 30.9859 232.912 31.3152C233.202 31.6446 233.861 31.8158 234.901 31.8158H234.915ZM256.256 30.6697C256.915 29.0888 257.455 27.4157 257.851 25.6372C258.246 23.8719 258.509 22.0144 258.628 20.091H253.885C254.07 24.0695 254.86 27.6002 256.256 30.6697Z" fill="url(#paint14_linear_1417_757)"/>
<path d="M276.307 45.8069C275.226 45.8069 274.317 45.438 273.58 44.6871C272.842 43.9494 272.46 43.0535 272.46 42.0128C272.46 40.9721 272.829 40.0235 273.58 39.2858C274.331 38.548 275.226 38.166 276.307 38.166C277.387 38.166 278.256 38.5349 279.007 39.2858C279.772 40.0235 280.14 40.9325 280.14 42.0128C280.14 43.0931 279.758 43.9494 279.007 44.6871C278.243 45.4249 277.348 45.8069 276.307 45.8069Z" fill="url(#paint15_linear_1417_757)"/>
<path d="M288.743 45.8069C287.663 45.8069 286.754 45.438 286.016 44.6871C285.279 43.9494 284.896 43.0535 284.896 42.0128C284.896 40.9721 285.265 40.0235 286.016 39.2858C286.767 38.548 287.663 38.166 288.743 38.166C289.824 38.166 290.693 38.5349 291.444 39.2858C292.208 40.0235 292.577 40.9325 292.577 42.0128C292.577 43.0931 292.195 43.9494 291.444 44.6871C290.68 45.4249 289.784 45.8069 288.743 45.8069Z" fill="url(#paint16_linear_1417_757)"/>
<path d="M301.166 45.8069C300.086 45.8069 299.177 45.438 298.439 44.6871C297.701 43.9494 297.319 43.0535 297.319 42.0128C297.319 40.9721 297.688 40.0235 298.439 39.2858C299.19 38.548 300.086 38.166 301.166 38.166C302.246 38.166 303.116 38.5349 303.867 39.2858C304.631 40.0235 305 40.9325 305 42.0128C305 43.0931 304.618 43.9494 303.867 44.6871C303.103 45.4249 302.207 45.8069 301.166 45.8069Z" fill="url(#paint17_linear_1417_757)"/>
<defs>
<linearGradient id="paint0_linear_1417_757" x1="155.001" y1="49.2577" x2="155.001" y2="5.01947" gradientUnits="userSpaceOnUse">
<stop stop-color="#583A6B"/>
<stop offset="1" stop-color="#3A8DDE"/>
</linearGradient>
<linearGradient id="paint1_linear_1417_757" x1="155.001" y1="49.2576" x2="155.001" y2="5.01945" gradientUnits="userSpaceOnUse">
<stop stop-color="#583A6B"/>
<stop offset="1" stop-color="#3A8DDE"/>
</linearGradient>
<linearGradient id="paint2_linear_1417_757" x1="155.001" y1="49.2582" x2="155.001" y2="5.01999" gradientUnits="userSpaceOnUse">
<stop stop-color="#583A6B"/>
<stop offset="1" stop-color="#3A8DDE"/>
</linearGradient>
<linearGradient id="paint3_linear_1417_757" x1="155.001" y1="49.2582" x2="155.001" y2="5.01996" gradientUnits="userSpaceOnUse">
<stop stop-color="#583A6B"/>
<stop offset="1" stop-color="#3A8DDE"/>
</linearGradient>
<linearGradient id="paint4_linear_1417_757" x1="155.001" y1="49.2587" x2="155.001" y2="5.02052" gradientUnits="userSpaceOnUse">
<stop stop-color="#583A6B"/>
<stop offset="1" stop-color="#3A8DDE"/>
</linearGradient>
<linearGradient id="paint5_linear_1417_757" x1="155.001" y1="49.2582" x2="155.001" y2="5.01996" gradientUnits="userSpaceOnUse">
<stop stop-color="#583A6B"/>
<stop offset="1" stop-color="#3A8DDE"/>
</linearGradient>
<linearGradient id="paint6_linear_1417_757" x1="155.001" y1="49.2585" x2="155.001" y2="5.02036" gradientUnits="userSpaceOnUse">
<stop stop-color="#583A6B"/>
<stop offset="1" stop-color="#3A8DDE"/>
</linearGradient>
<linearGradient id="paint7_linear_1417_757" x1="155.001" y1="49.2585" x2="155.001" y2="5.02036" gradientUnits="userSpaceOnUse">
<stop stop-color="#583A6B"/>
<stop offset="1" stop-color="#3A8DDE"/>
</linearGradient>
<linearGradient id="paint8_linear_1417_757" x1="155.001" y1="49.2585" x2="155.001" y2="5.02036" gradientUnits="userSpaceOnUse">
<stop stop-color="#583A6B"/>
<stop offset="1" stop-color="#3A8DDE"/>
</linearGradient>
<linearGradient id="paint9_linear_1417_757" x1="58.4095" y1="-33.8306" x2="275.253" y2="138.814" gradientUnits="userSpaceOnUse">
<stop stop-color="#FAFAF8"/>
<stop offset="1" stop-color="#FAFAF8"/>
</linearGradient>
<linearGradient id="paint10_linear_1417_757" x1="58.4096" y1="-33.8306" x2="275.253" y2="138.814" gradientUnits="userSpaceOnUse">
<stop stop-color="#FAFAF8"/>
<stop offset="1" stop-color="#FAFAF8"/>
</linearGradient>
<linearGradient id="paint11_linear_1417_757" x1="58.4097" y1="-33.8301" x2="275.253" y2="138.815" gradientUnits="userSpaceOnUse">
<stop stop-color="#FAFAF8"/>
<stop offset="1" stop-color="#FAFAF8"/>
</linearGradient>
<linearGradient id="paint12_linear_1417_757" x1="58.4096" y1="-33.8301" x2="275.253" y2="138.815" gradientUnits="userSpaceOnUse">
<stop stop-color="#FAFAF8"/>
<stop offset="1" stop-color="#FAFAF8"/>
</linearGradient>
<linearGradient id="paint13_linear_1417_757" x1="58.4094" y1="-33.8295" x2="275.253" y2="138.815" gradientUnits="userSpaceOnUse">
<stop stop-color="#FAFAF8"/>
<stop offset="1" stop-color="#FAFAF8"/>
</linearGradient>
<linearGradient id="paint14_linear_1417_757" x1="58.4097" y1="-33.8301" x2="275.253" y2="138.815" gradientUnits="userSpaceOnUse">
<stop stop-color="#FAFAF8"/>
<stop offset="1" stop-color="#FAFAF8"/>
</linearGradient>
<linearGradient id="paint15_linear_1417_757" x1="58.4097" y1="-33.8296" x2="275.253" y2="138.815" gradientUnits="userSpaceOnUse">
<stop stop-color="#FAFAF8"/>
<stop offset="1" stop-color="#FAFAF8"/>
</linearGradient>
<linearGradient id="paint16_linear_1417_757" x1="58.4094" y1="-33.8296" x2="275.253" y2="138.815" gradientUnits="userSpaceOnUse">
<stop stop-color="#FAFAF8"/>
<stop offset="1" stop-color="#FAFAF8"/>
</linearGradient>
<linearGradient id="paint17_linear_1417_757" x1="58.4092" y1="-33.8296" x2="275.253" y2="138.815" gradientUnits="userSpaceOnUse">
<stop stop-color="#FAFAF8"/>
<stop offset="1" stop-color="#FAFAF8"/>
</linearGradient>
</defs>
</svg>
