<svg width="326" height="70" viewBox="0 0 326 70" fill="none" xmlns="http://www.w3.org/2000/svg">
<g filter="url(#filter0_d_985_663)">
<path d="M18.1137 55.6109C17.1915 55.993 16.2693 55.993 15.334 55.6373C14.3986 55.2684 13.7267 54.6361 13.3183 53.7139C12.91 52.7917 12.8968 51.8695 13.2656 50.921C13.6477 49.9725 14.2932 49.2874 15.2154 48.8791C25.4911 44.3867 32.8554 37.9183 37.3213 29.487C38.1776 27.8139 37.6112 26.9707 35.6087 26.9707H29.9176C28.4289 28.9995 26.769 30.9361 24.9378 32.7805C23.1066 34.6248 21.1569 36.2979 19.1017 37.7865C18.2849 38.353 17.3759 38.5507 16.3747 38.3794C15.3735 38.2081 14.583 37.7075 13.977 36.8907C13.4106 36.0739 13.213 35.1518 13.3842 34.1374C13.5555 33.123 14.0561 32.3325 14.8729 31.766C16.546 30.6594 18.2191 29.2893 19.879 27.6689C21.5389 26.0354 23.0539 24.2964 24.4108 22.4521C25.7678 20.6077 26.848 18.7897 27.6385 17.0243C28.0469 16.1022 28.7319 15.4698 29.6804 15.101C30.629 14.7321 31.5643 14.7716 32.4733 15.2195C33.3955 15.6279 34.041 16.2998 34.4362 17.2351C34.8314 18.1705 34.8051 19.0795 34.3704 19.9622H36.7417C39.4555 19.9622 41.5634 20.4628 43.052 21.4508C44.5407 22.452 45.3838 23.8353 45.5946 25.6006C45.8054 27.3659 45.3443 29.4079 44.2377 31.7134C42.5909 35.1254 40.4172 38.3794 37.7166 41.4621C35.0159 44.5448 31.9859 47.2982 28.6397 49.7354C25.2935 52.1725 21.776 54.1355 18.1137 55.6109Z" fill="black"/>
<path d="M56.5291 48.1544C55.5542 48.1544 54.6979 47.7987 53.9733 47.0873C53.2488 46.3759 52.8799 45.5196 52.8799 44.5052C52.8799 43.4908 53.2488 42.6345 53.9733 41.9232C54.6979 41.2118 55.5542 40.8561 56.5291 40.8561H70.5725V30.8965H62.1807C61.1663 30.8965 60.2968 30.5408 59.5723 29.8294C58.8477 29.118 58.4788 28.2617 58.4788 27.2473C58.4788 26.2329 58.8477 25.3766 59.5723 24.6652C60.2968 23.9538 61.1663 23.5981 62.1807 23.5981H86.2232C87.2376 23.5981 88.0939 23.9538 88.8053 24.6652C89.5167 25.3766 89.8724 26.2329 89.8724 27.2473C89.8724 28.2617 89.5167 29.118 88.8053 29.8294C88.0939 30.5408 87.2376 30.8965 86.2232 30.8965H77.8709V40.8561H92.0988C93.1132 40.8561 93.9695 41.2118 94.6809 41.9232C95.3923 42.6345 95.748 43.4908 95.748 44.5052C95.748 45.5196 95.3923 46.3759 94.6809 47.0873C93.9695 47.7987 93.1132 48.1544 92.0988 48.1544H56.5291Z" fill="black"/>
<path d="M106.986 52.8976C106.103 53.3456 105.181 53.3983 104.206 53.0689C103.244 52.7396 102.533 52.1072 102.098 51.1982C101.65 50.276 101.597 49.3538 101.927 48.4053C102.256 47.4568 102.888 46.7586 103.797 46.3238C108.198 44.2028 112.084 41.6866 115.47 38.7883C118.855 35.8769 121.635 32.781 123.822 29.4875C124.546 28.4072 124.744 27.6168 124.415 27.1162C124.085 26.6155 123.321 26.3521 122.109 26.3521H109.541C108.566 26.3521 107.71 25.9832 106.986 25.2586C106.261 24.534 105.892 23.6778 105.892 22.7029C105.892 21.728 106.261 20.819 106.986 20.0944C107.71 19.3699 108.566 19.001 109.541 19.001H122.491C125.627 19.001 128.038 19.5807 129.724 20.7268C131.41 21.8861 132.332 23.467 132.477 25.4958C132.622 27.5246 131.937 29.8432 130.409 32.4648C130.159 32.939 129.869 33.4265 129.526 33.9139C129.197 34.4014 128.854 34.902 128.512 35.4026C129.935 36.5751 131.357 37.8398 132.78 39.1967C134.203 40.5536 135.56 41.871 136.838 43.1357C138.116 44.4004 139.222 45.5071 140.131 46.4556C140.83 47.1538 141.172 48.0101 141.146 49.0377C141.132 50.0652 140.764 50.9479 140.026 51.6725C139.288 52.397 138.458 52.7132 137.417 52.6868C136.377 52.6737 135.494 52.318 134.756 51.6198C133.9 50.6976 132.872 49.6173 131.647 48.3658C130.435 47.1143 129.144 45.8232 127.8 44.4795C126.457 43.1357 125.139 41.8974 123.835 40.7512C121.437 43.1489 118.75 45.428 115.799 47.5622C112.848 49.6964 109.897 51.4748 106.959 52.8976H106.986Z" fill="black"/>
<path d="M156.836 56.3624C155.861 56.3624 155.005 56.0067 154.28 55.2953C153.555 54.5839 153.187 53.7276 153.187 52.7132V19.989C153.187 18.9746 153.555 18.1051 154.28 17.3806C155.005 16.656 155.861 16.2871 156.836 16.2871C157.811 16.2871 158.706 16.656 159.418 17.3806C160.129 18.1051 160.485 18.9746 160.485 19.989V30.8049C161.051 30.2647 161.736 29.9485 162.527 29.83C163.317 29.7246 164.055 29.8563 164.753 30.2384C166.624 31.2133 168.442 32.2935 170.207 33.466C171.973 34.6385 173.593 35.8241 175.042 37.023C175.833 37.6553 176.267 38.4853 176.346 39.5128C176.425 40.5404 176.149 41.4494 175.516 42.2399C174.884 43.0303 174.054 43.4782 173.027 43.5704C171.999 43.6627 171.09 43.3992 170.3 42.7668C169.417 42.0686 168.429 41.344 167.335 40.5799C166.242 39.8158 165.175 39.1045 164.134 38.4194C163.093 37.7344 162.158 37.1811 161.341 36.7331C161.209 36.6409 161.078 36.5355 160.933 36.4301C160.788 36.3247 160.643 36.2062 160.485 36.0744V52.7263C160.485 53.7407 160.129 54.5971 159.418 55.3085C158.706 56.0199 157.85 56.3756 156.836 56.3756V56.3624Z" fill="black"/>
<path d="M222.798 56.9821C219.346 55.9018 216.263 54.2287 213.549 51.9496C210.836 49.6705 208.675 47.1016 207.094 44.2165C205.513 47.128 203.366 49.6179 200.639 51.6862C197.925 53.7545 194.684 55.4671 190.917 56.8372C189.836 57.2192 188.848 57.2588 187.926 56.9821C187.004 56.6923 186.345 56.0599 185.937 55.085C185.528 54.1102 185.542 53.1748 185.99 52.2922C186.437 51.4095 187.175 50.8035 188.216 50.4873C191.628 49.3807 194.46 47.9448 196.7 46.1663C198.94 44.401 200.639 42.2272 201.772 39.6715H188.111C187.294 39.6715 186.569 39.3685 185.95 38.7493C185.331 38.1301 185.028 37.4187 185.028 36.5888C185.028 35.7588 185.331 35.0079 185.95 34.4019C186.569 33.7959 187.281 33.5061 188.111 33.5061H203.34C203.406 32.9659 203.445 32.4258 203.485 31.8988C203.511 31.3587 203.537 30.8054 203.537 30.2389V28.3946H195.238C194.987 28.8952 194.737 29.3695 194.474 29.8174C194.223 30.2653 193.973 30.6737 193.709 31.0557C193.169 31.8725 192.418 32.4126 191.457 32.663C190.495 32.9133 189.599 32.7947 188.782 32.2809C188.058 31.833 187.57 31.2006 187.333 30.3838C187.096 29.5671 187.215 28.7898 187.689 28.0652C188.255 27.143 188.875 26.0628 189.533 24.7981C190.192 23.5334 190.824 22.2555 191.404 20.9513C191.984 19.6602 192.445 18.5273 192.761 17.5787C193.077 16.6961 193.644 16.1032 194.474 15.8002C195.29 15.4972 196.133 15.5104 196.99 15.8266C197.912 16.1428 198.544 16.6829 198.913 17.4338C199.282 18.1979 199.322 19.0015 199.032 19.8578C198.781 20.6483 198.492 21.386 198.175 22.0842H203.537V16.3931C203.537 15.3787 203.867 14.5619 204.538 13.9559C205.197 13.3367 205.988 13.0337 206.91 13.0337C207.832 13.0337 208.622 13.3367 209.281 13.9559C209.94 14.5751 210.282 15.3919 210.282 16.3931V22.0842H221.375C222.257 22.0842 223.008 22.3872 223.601 23.0064C224.207 23.6256 224.497 24.3633 224.497 25.2065C224.497 26.0496 224.194 26.84 223.601 27.4592C222.995 28.0784 222.257 28.3814 221.375 28.3814H210.282V30.2258C210.282 31.306 210.23 32.3863 210.137 33.4929H225.696C226.552 33.4929 227.277 33.7959 227.883 34.3887C228.489 34.9947 228.779 35.7193 228.779 36.5756C228.779 37.4319 228.476 38.117 227.883 38.7361C227.277 39.3553 226.552 39.6583 225.696 39.6583H211.85C214.406 44.9016 219.056 48.5112 225.788 50.4742C226.803 50.764 227.514 51.37 227.949 52.3054C228.37 53.2407 228.37 54.2156 227.922 55.2168C227.514 56.2312 226.829 56.8503 225.854 57.0875C224.892 57.3246 223.865 57.2851 222.798 56.9689V56.9821Z" fill="black"/>
<path d="M233.429 56.1779C232.797 55.6773 232.402 54.9791 232.244 54.1096C232.086 53.2401 232.323 52.4629 232.955 51.7646C233.245 51.4221 233.627 50.9347 234.114 50.3155C234.602 49.6963 235.089 49.064 235.564 48.4184C236.038 47.7729 236.42 47.2591 236.697 46.8771C237.237 46.0866 237.909 45.5992 238.712 45.428C239.516 45.2567 240.319 45.4016 241.11 45.8759C241.834 46.2843 242.322 46.9034 242.585 47.7202C242.836 48.537 242.691 49.3801 242.164 50.2365C241.663 51.0269 241.044 51.9359 240.333 52.9635C239.621 53.991 239.002 54.821 238.462 55.4533C237.803 56.2701 237.013 56.7444 236.091 56.8761C235.168 57.0079 234.286 56.7707 233.429 56.1647V56.1779ZM256.563 56.4546C255.68 56.9552 254.732 57.1133 253.744 56.9025C252.742 56.6917 252.018 56.1516 251.544 55.2689C251.32 54.8605 251.201 54.4916 251.162 54.1755C250.595 54.3994 249.989 54.4389 249.357 54.294C248.724 54.1491 248.158 53.7802 247.644 53.1742C247.302 52.7658 246.867 52.2521 246.366 51.6329C245.866 51.0137 245.431 50.4868 245.088 50.0389C244.588 49.4065 244.403 48.7083 244.548 47.931C244.693 47.1537 245.088 46.5214 245.76 46.0076C246.393 45.507 247.104 45.2699 247.894 45.3225C248.685 45.3752 249.344 45.7046 249.884 46.3369C250.174 46.6531 250.569 47.0879 251.069 47.6412C251.57 48.1945 251.992 48.6292 252.308 48.9454C252.848 49.4855 253.164 50.052 253.256 50.658C256.128 49.0113 258.526 47.0747 260.423 44.8219C258.618 41.6865 257.34 38.3403 256.576 34.7702L256.154 35.4816C255.707 36.2457 255.074 36.7595 254.231 37.023C253.388 37.2864 252.558 37.2469 251.741 36.9044V38.09C251.741 40.0134 251.478 41.5153 250.964 42.5955C250.437 43.6758 249.541 44.4267 248.263 44.8483C246.985 45.2699 245.207 45.4938 242.928 45.4938C240.649 45.4938 238.923 45.283 237.645 44.8483C236.367 44.4267 235.458 43.6758 234.944 42.5955C234.417 41.5153 234.167 40.0134 234.167 38.09V22.0573C234.167 20.1339 234.431 18.6321 234.944 17.5518C235.458 16.4716 236.367 15.7206 237.645 15.299C238.923 14.8775 240.688 14.6535 242.928 14.6535C245.167 14.6535 246.985 14.8643 248.263 15.299C249.541 15.7206 250.45 16.4716 250.964 17.5518C251.478 18.6321 251.741 20.1339 251.741 22.0573V30.3042C252.848 28.0646 253.796 25.6406 254.587 23.0453C255.377 20.4501 255.931 18.0656 256.247 15.8787C256.405 14.7721 256.866 13.9817 257.617 13.5074C258.381 13.0331 259.224 12.8882 260.173 13.0858C261.147 13.2703 261.885 13.705 262.373 14.39C262.86 15.0751 263.031 15.8655 262.873 16.7877C262.741 17.644 262.583 18.5004 262.373 19.3698C262.162 20.2393 261.938 21.0956 261.688 21.9519H273.597C274.545 21.9519 275.283 22.2549 275.823 22.8477C276.363 23.4537 276.627 24.1651 276.627 24.9819C276.627 25.7987 276.363 26.5628 275.823 27.1688C275.283 27.7748 274.545 28.0646 273.597 28.0646H273.03C272.398 34.5462 270.791 40.0793 268.195 44.6638C270.066 46.6926 272.293 48.537 274.888 50.2101C275.744 50.7766 276.232 51.5275 276.363 52.4365C276.495 53.3587 276.284 54.2018 275.744 54.9922C275.178 55.8485 274.374 56.336 273.32 56.4677C272.279 56.5995 271.331 56.3624 270.475 55.7564C268.103 54.0174 266.048 52.1467 264.309 50.1574C262.07 52.6605 259.488 54.742 256.576 56.4151L256.563 56.4546ZM240.491 23.5987H245.378V22.795C245.378 21.8465 245.233 21.201 244.957 20.8716C244.68 20.5423 243.995 20.371 242.915 20.371C241.834 20.371 241.202 20.5423 240.925 20.8716C240.636 21.201 240.504 21.8465 240.504 22.795V23.5987H240.491ZM240.491 31.7007H245.378V28.2886H240.491V31.7007ZM242.915 39.8158C243.995 39.8158 244.667 39.6446 244.957 39.3152C245.246 38.9859 245.378 38.3404 245.378 37.3918V36.3906H240.491V37.3918C240.491 38.3404 240.636 38.9859 240.912 39.3152C241.202 39.6446 241.861 39.8158 242.901 39.8158H242.915ZM264.256 38.6697C264.915 37.0888 265.455 35.4157 265.851 33.6372C266.246 31.8719 266.509 30.0144 266.628 28.091H261.885C262.07 32.0695 262.86 35.6002 264.256 38.6697Z" fill="black"/>
<path d="M284.307 53.8069C283.226 53.8069 282.317 53.438 281.58 52.6871C280.842 51.9494 280.46 51.0535 280.46 50.0128C280.46 48.9721 280.829 48.0235 281.58 47.2858C282.331 46.548 283.226 46.166 284.307 46.166C285.387 46.166 286.256 46.5349 287.007 47.2858C287.772 48.0235 288.14 48.9325 288.14 50.0128C288.14 51.0931 287.758 51.9494 287.007 52.6871C286.243 53.4249 285.348 53.8069 284.307 53.8069Z" fill="black"/>
<path d="M296.743 53.8069C295.663 53.8069 294.754 53.438 294.016 52.6871C293.279 51.9494 292.896 51.0535 292.896 50.0128C292.896 48.9721 293.265 48.0235 294.016 47.2858C294.767 46.548 295.663 46.166 296.743 46.166C297.824 46.166 298.693 46.5349 299.444 47.2858C300.208 48.0235 300.577 48.9325 300.577 50.0128C300.577 51.0931 300.195 51.9494 299.444 52.6871C298.68 53.4249 297.784 53.8069 296.743 53.8069Z" fill="black"/>
<path d="M309.166 53.8069C308.086 53.8069 307.177 53.438 306.439 52.6871C305.701 51.9494 305.319 51.0535 305.319 50.0128C305.319 48.9721 305.688 48.0235 306.439 47.2858C307.19 46.548 308.086 46.166 309.166 46.166C310.246 46.166 311.116 46.5349 311.867 47.2858C312.631 48.0235 313 48.9325 313 50.0128C313 51.0931 312.618 51.9494 311.867 52.6871C311.103 53.4249 310.207 53.8069 309.166 53.8069Z" fill="black"/>
<path d="M18.1137 55.6109C17.1915 55.993 16.2693 55.993 15.334 55.6373C14.3986 55.2684 13.7267 54.6361 13.3183 53.7139C12.91 52.7917 12.8968 51.8695 13.2656 50.921C13.6477 49.9725 14.2932 49.2874 15.2154 48.8791C25.4911 44.3867 32.8554 37.9183 37.3213 29.487C38.1776 27.8139 37.6112 26.9707 35.6087 26.9707H29.9176C28.4289 28.9995 26.769 30.9361 24.9378 32.7805C23.1066 34.6248 21.1569 36.2979 19.1017 37.7865C18.2849 38.353 17.3759 38.5507 16.3747 38.3794C15.3735 38.2081 14.583 37.7075 13.977 36.8907C13.4106 36.0739 13.213 35.1518 13.3842 34.1374C13.5555 33.123 14.0561 32.3325 14.8729 31.766C16.546 30.6594 18.2191 29.2893 19.879 27.6689C21.5389 26.0354 23.0539 24.2964 24.4108 22.4521C25.7678 20.6077 26.848 18.7897 27.6385 17.0243C28.0469 16.1022 28.7319 15.4698 29.6804 15.101C30.629 14.7321 31.5643 14.7716 32.4733 15.2195C33.3955 15.6279 34.041 16.2998 34.4362 17.2351C34.8314 18.1705 34.8051 19.0795 34.3704 19.9622H36.7417C39.4555 19.9622 41.5634 20.4628 43.052 21.4508C44.5407 22.452 45.3838 23.8353 45.5946 25.6006C45.8054 27.3659 45.3443 29.4079 44.2377 31.7134C42.5909 35.1254 40.4172 38.3794 37.7166 41.4621C35.0159 44.5448 31.9859 47.2982 28.6397 49.7354C25.2935 52.1725 21.776 54.1355 18.1137 55.6109Z" stroke="url(#paint0_linear_985_663)" stroke-width="8.5" stroke-linecap="round" stroke-linejoin="round"/>
<path d="M56.5291 48.1544C55.5542 48.1544 54.6979 47.7987 53.9733 47.0873C53.2488 46.3759 52.8799 45.5196 52.8799 44.5052C52.8799 43.4908 53.2488 42.6345 53.9733 41.9232C54.6979 41.2118 55.5542 40.8561 56.5291 40.8561H70.5725V30.8965H62.1807C61.1663 30.8965 60.2968 30.5408 59.5723 29.8294C58.8477 29.118 58.4788 28.2617 58.4788 27.2473C58.4788 26.2329 58.8477 25.3766 59.5723 24.6652C60.2968 23.9538 61.1663 23.5981 62.1807 23.5981H86.2232C87.2376 23.5981 88.0939 23.9538 88.8053 24.6652C89.5167 25.3766 89.8724 26.2329 89.8724 27.2473C89.8724 28.2617 89.5167 29.118 88.8053 29.8294C88.0939 30.5408 87.2376 30.8965 86.2232 30.8965H77.8709V40.8561H92.0988C93.1132 40.8561 93.9695 41.2118 94.6809 41.9232C95.3923 42.6345 95.748 43.4908 95.748 44.5052C95.748 45.5196 95.3923 46.3759 94.6809 47.0873C93.9695 47.7987 93.1132 48.1544 92.0988 48.1544H56.5291Z" stroke="url(#paint1_linear_985_663)" stroke-width="8.5" stroke-linecap="round" stroke-linejoin="round"/>
<path d="M106.986 52.8976C106.103 53.3455 105.181 53.3983 104.206 53.0689C103.244 52.7396 102.533 52.1072 102.098 51.1982C101.65 50.276 101.597 49.3538 101.927 48.4053C102.256 47.4568 102.888 46.7586 103.797 46.3238C108.198 44.2028 112.084 41.6866 115.47 38.7883C118.855 35.8769 121.635 32.781 123.822 29.4875C124.546 28.4072 124.744 27.6168 124.415 27.1162C124.085 26.6155 123.321 26.3521 122.109 26.3521H109.541C108.566 26.3521 107.71 25.9832 106.986 25.2586C106.261 24.534 105.892 23.6778 105.892 22.7029C105.892 21.728 106.261 20.819 106.986 20.0944C107.71 19.3699 108.566 19.001 109.541 19.001H122.491C125.627 19.001 128.038 19.5807 129.724 20.7268C131.41 21.8861 132.332 23.467 132.477 25.4958C132.622 27.5246 131.937 29.8432 130.409 32.4648C130.159 32.939 129.869 33.4265 129.526 33.9139C129.197 34.4014 128.854 34.902 128.512 35.4026C129.935 36.5751 131.357 37.8398 132.78 39.1967C134.203 40.5536 135.56 41.871 136.838 43.1357C138.116 44.4004 139.222 45.5071 140.131 46.4556C140.83 47.1538 141.172 48.0101 141.146 49.0377C141.132 50.0652 140.764 50.9479 140.026 51.6725C139.288 52.397 138.458 52.7132 137.417 52.6868C136.377 52.6737 135.494 52.318 134.756 51.6198C133.9 50.6976 132.872 49.6173 131.647 48.3658C130.435 47.1143 129.144 45.8232 127.8 44.4795C126.457 43.1357 125.139 41.8974 123.835 40.7512C121.437 43.1489 118.75 45.428 115.799 47.5622C112.848 49.6964 109.897 51.4748 106.959 52.8976H106.986Z" stroke="url(#paint2_linear_985_663)" stroke-width="8.5" stroke-linecap="round" stroke-linejoin="round"/>
<path d="M156.836 56.3624C155.861 56.3624 155.005 56.0067 154.28 55.2953C153.555 54.5839 153.187 53.7276 153.187 52.7132V19.989C153.187 18.9746 153.555 18.1051 154.28 17.3806C155.005 16.656 155.861 16.2871 156.836 16.2871C157.811 16.2871 158.706 16.656 159.418 17.3806C160.129 18.1051 160.485 18.9746 160.485 19.989V30.8049C161.051 30.2647 161.736 29.9485 162.527 29.83C163.317 29.7246 164.055 29.8563 164.753 30.2384C166.624 31.2133 168.442 32.2935 170.207 33.466C171.973 34.6385 173.593 35.8241 175.042 37.023C175.833 37.6553 176.267 38.4853 176.346 39.5128C176.425 40.5404 176.149 41.4494 175.516 42.2399C174.884 43.0303 174.054 43.4782 173.027 43.5704C171.999 43.6627 171.09 43.3992 170.3 42.7668C169.417 42.0686 168.429 41.344 167.335 40.5799C166.242 39.8158 165.175 39.1045 164.134 38.4194C163.093 37.7344 162.158 37.1811 161.341 36.7331C161.209 36.6409 161.078 36.5355 160.933 36.4301C160.788 36.3247 160.643 36.2062 160.485 36.0744V52.7263C160.485 53.7407 160.129 54.5971 159.418 55.3085C158.706 56.0199 157.85 56.3756 156.836 56.3756V56.3624Z" stroke="url(#paint3_linear_985_663)" stroke-width="8.5" stroke-linecap="round" stroke-linejoin="round"/>
<path d="M222.798 56.9821C219.346 55.9018 216.263 54.2287 213.549 51.9496C210.836 49.6705 208.675 47.1016 207.094 44.2165C205.513 47.128 203.366 49.6179 200.639 51.6862C197.925 53.7545 194.684 55.4671 190.917 56.8372C189.836 57.2192 188.848 57.2588 187.926 56.9821C187.004 56.6923 186.345 56.0599 185.937 55.085C185.528 54.1102 185.542 53.1748 185.99 52.2922C186.437 51.4095 187.175 50.8035 188.216 50.4873C191.628 49.3807 194.46 47.9448 196.7 46.1663C198.94 44.401 200.639 42.2272 201.772 39.6715H188.111C187.294 39.6715 186.569 39.3685 185.95 38.7493C185.331 38.1301 185.028 37.4187 185.028 36.5888C185.028 35.7588 185.331 35.0079 185.95 34.4019C186.569 33.7959 187.281 33.5061 188.111 33.5061H203.34C203.406 32.9659 203.445 32.4258 203.485 31.8988C203.511 31.3587 203.537 30.8054 203.537 30.2389V28.3946H195.238C194.987 28.8952 194.737 29.3695 194.474 29.8174C194.223 30.2653 193.973 30.6737 193.709 31.0557C193.169 31.8725 192.418 32.4126 191.457 32.663C190.495 32.9133 189.599 32.7947 188.782 32.2809C188.058 31.833 187.57 31.2006 187.333 30.3838C187.096 29.5671 187.215 28.7898 187.689 28.0652C188.255 27.143 188.875 26.0628 189.533 24.7981C190.192 23.5334 190.824 22.2555 191.404 20.9513C191.984 19.6602 192.445 18.5273 192.761 17.5787C193.077 16.6961 193.644 16.1032 194.474 15.8002C195.29 15.4972 196.133 15.5104 196.99 15.8266C197.912 16.1428 198.544 16.6829 198.913 17.4338C199.282 18.1979 199.322 19.0015 199.032 19.8578C198.781 20.6483 198.492 21.386 198.175 22.0842H203.537V16.3931C203.537 15.3787 203.867 14.5619 204.538 13.9559C205.197 13.3367 205.988 13.0337 206.91 13.0337C207.832 13.0337 208.622 13.3367 209.281 13.9559C209.94 14.5751 210.282 15.3919 210.282 16.3931V22.0842H221.375C222.257 22.0842 223.008 22.3872 223.601 23.0064C224.207 23.6256 224.497 24.3633 224.497 25.2065C224.497 26.0496 224.194 26.84 223.601 27.4592C222.995 28.0784 222.257 28.3814 221.375 28.3814H210.282V30.2258C210.282 31.306 210.23 32.3863 210.137 33.4929H225.696C226.552 33.4929 227.277 33.7959 227.883 34.3887C228.489 34.9947 228.779 35.7193 228.779 36.5756C228.779 37.4319 228.476 38.117 227.883 38.7361C227.277 39.3553 226.552 39.6583 225.696 39.6583H211.85C214.406 44.9016 219.056 48.5112 225.788 50.4742C226.803 50.764 227.514 51.37 227.949 52.3054C228.37 53.2407 228.37 54.2156 227.922 55.2168C227.514 56.2312 226.829 56.8503 225.854 57.0875C224.892 57.3246 223.865 57.2851 222.798 56.9689V56.9821Z" stroke="url(#paint4_linear_985_663)" stroke-width="8.5" stroke-linecap="round" stroke-linejoin="round"/>
<path d="M233.429 56.1779C232.797 55.6773 232.402 54.9791 232.244 54.1096C232.086 53.2401 232.323 52.4629 232.955 51.7646C233.245 51.4221 233.627 50.9347 234.114 50.3155C234.602 49.6963 235.089 49.064 235.564 48.4184C236.038 47.7729 236.42 47.2591 236.697 46.8771C237.237 46.0866 237.909 45.5992 238.712 45.428C239.516 45.2567 240.319 45.4016 241.11 45.8759C241.834 46.2843 242.322 46.9034 242.585 47.7202C242.836 48.537 242.691 49.3801 242.164 50.2365C241.663 51.0269 241.044 51.9359 240.333 52.9635C239.621 53.991 239.002 54.821 238.462 55.4533C237.803 56.2701 237.013 56.7444 236.091 56.8761C235.168 57.0079 234.286 56.7707 233.429 56.1647V56.1779ZM256.563 56.4546C255.68 56.9552 254.732 57.1133 253.744 56.9025C252.742 56.6917 252.018 56.1516 251.544 55.2689C251.32 54.8605 251.201 54.4916 251.162 54.1755C250.595 54.3994 249.989 54.4389 249.357 54.294C248.724 54.1491 248.158 53.7802 247.644 53.1742C247.302 52.7658 246.867 52.2521 246.366 51.6329C245.866 51.0137 245.431 50.4868 245.088 50.0389C244.588 49.4065 244.403 48.7083 244.548 47.931C244.693 47.1537 245.088 46.5214 245.76 46.0076C246.393 45.507 247.104 45.2699 247.894 45.3225C248.685 45.3752 249.344 45.7046 249.884 46.3369C250.173 46.6531 250.569 47.0879 251.069 47.6412C251.57 48.1945 251.992 48.6292 252.308 48.9454C252.848 49.4855 253.164 50.052 253.256 50.658C256.128 49.0113 258.526 47.0747 260.423 44.8219C258.618 41.6865 257.34 38.3403 256.576 34.7702L256.154 35.4816C255.707 36.2457 255.074 36.7595 254.231 37.023C253.388 37.2864 252.558 37.2469 251.741 36.9044V38.09C251.741 40.0134 251.478 41.5153 250.964 42.5955C250.437 43.6758 249.541 44.4267 248.263 44.8483C246.985 45.2699 245.207 45.4938 242.928 45.4938C240.649 45.4938 238.923 45.283 237.645 44.8483C236.367 44.4267 235.458 43.6758 234.944 42.5955C234.417 41.5153 234.167 40.0134 234.167 38.09V22.0573C234.167 20.1339 234.431 18.6321 234.944 17.5518C235.458 16.4716 236.367 15.7206 237.645 15.299C238.923 14.8775 240.688 14.6535 242.928 14.6535C245.167 14.6535 246.985 14.8643 248.263 15.299C249.541 15.7206 250.45 16.4716 250.964 17.5518C251.478 18.6321 251.741 20.1339 251.741 22.0573V30.3042C252.848 28.0646 253.796 25.6406 254.587 23.0453C255.377 20.4501 255.931 18.0656 256.247 15.8787C256.405 14.7721 256.866 13.9817 257.617 13.5074C258.381 13.0331 259.224 12.8882 260.173 13.0858C261.147 13.2703 261.885 13.705 262.373 14.39C262.86 15.0751 263.031 15.8655 262.873 16.7877C262.741 17.644 262.583 18.5004 262.373 19.3698C262.162 20.2393 261.938 21.0956 261.688 21.9519H273.597C274.545 21.9519 275.283 22.2549 275.823 22.8477C276.363 23.4537 276.627 24.1651 276.627 24.9819C276.627 25.7987 276.363 26.5628 275.823 27.1688C275.283 27.7748 274.545 28.0646 273.597 28.0646H273.03C272.398 34.5462 270.791 40.0793 268.195 44.6638C270.066 46.6926 272.293 48.537 274.888 50.2101C275.744 50.7766 276.232 51.5275 276.363 52.4365C276.495 53.3587 276.284 54.2018 275.744 54.9922C275.178 55.8486 274.374 56.336 273.32 56.4677C272.279 56.5995 271.331 56.3624 270.475 55.7564C268.103 54.0174 266.048 52.1467 264.309 50.1574C262.07 52.6605 259.488 54.742 256.576 56.4151L256.563 56.4546ZM240.491 23.5987H245.378V22.795C245.378 21.8465 245.233 21.201 244.957 20.8716C244.68 20.5423 243.995 20.371 242.915 20.371C241.834 20.371 241.202 20.5423 240.925 20.8716C240.636 21.201 240.504 21.8465 240.504 22.795V23.5987H240.491ZM240.491 31.7007H245.378V28.2886H240.491V31.7007ZM242.915 39.8158C243.995 39.8158 244.667 39.6446 244.957 39.3152C245.246 38.9859 245.378 38.3404 245.378 37.3918V36.3906H240.491V37.3918C240.491 38.3404 240.636 38.9859 240.912 39.3152C241.202 39.6446 241.861 39.8158 242.901 39.8158H242.915ZM264.256 38.6697C264.915 37.0888 265.455 35.4157 265.851 33.6372C266.246 31.8719 266.509 30.0144 266.628 28.091H261.885C262.07 32.0695 262.86 35.6002 264.256 38.6697Z" stroke="url(#paint5_linear_985_663)" stroke-width="8.5" stroke-linecap="round" stroke-linejoin="round"/>
<path d="M284.307 53.8069C283.226 53.8069 282.317 53.438 281.58 52.6871C280.842 51.9494 280.46 51.0535 280.46 50.0128C280.46 48.9721 280.829 48.0235 281.58 47.2858C282.331 46.548 283.226 46.166 284.307 46.166C285.387 46.166 286.256 46.5349 287.007 47.2858C287.772 48.0235 288.14 48.9325 288.14 50.0128C288.14 51.0931 287.758 51.9494 287.007 52.6871C286.243 53.4249 285.348 53.8069 284.307 53.8069Z" stroke="url(#paint6_linear_985_663)" stroke-width="8.5" stroke-linecap="round" stroke-linejoin="round"/>
<path d="M296.743 53.8069C295.663 53.8069 294.754 53.438 294.016 52.6871C293.279 51.9494 292.896 51.0535 292.896 50.0128C292.896 48.9721 293.265 48.0235 294.016 47.2858C294.767 46.548 295.663 46.166 296.743 46.166C297.824 46.166 298.693 46.5349 299.444 47.2858C300.208 48.0235 300.577 48.9325 300.577 50.0128C300.577 51.0931 300.195 51.9494 299.444 52.6871C298.68 53.4249 297.784 53.8069 296.743 53.8069Z" stroke="url(#paint7_linear_985_663)" stroke-width="8.5" stroke-linecap="round" stroke-linejoin="round"/>
<path d="M309.166 53.8069C308.086 53.8069 307.177 53.438 306.439 52.6871C305.701 51.9494 305.319 51.0535 305.319 50.0128C305.319 48.9721 305.688 48.0235 306.439 47.2858C307.19 46.548 308.086 46.166 309.166 46.166C310.246 46.166 311.116 46.5349 311.867 47.2858C312.631 48.0235 313 48.9325 313 50.0128C313 51.0931 312.618 51.9494 311.867 52.6871C311.103 53.4249 310.207 53.8069 309.166 53.8069Z" stroke="url(#paint8_linear_985_663)" stroke-width="8.5" stroke-linecap="round" stroke-linejoin="round"/>
<g filter="url(#filter1_d_985_663)">
<path d="M18.1137 55.6109C17.1915 55.993 16.2693 55.993 15.334 55.6373C14.3986 55.2684 13.7267 54.6361 13.3183 53.7139C12.91 52.7917 12.8968 51.8695 13.2656 50.921C13.6477 49.9725 14.2932 49.2874 15.2154 48.8791C25.4911 44.3867 32.8554 37.9183 37.3213 29.487C38.1776 27.8139 37.6112 26.9707 35.6087 26.9707H29.9176C28.4289 28.9995 26.769 30.9361 24.9378 32.7805C23.1066 34.6248 21.1569 36.2979 19.1017 37.7865C18.2849 38.353 17.3759 38.5507 16.3747 38.3794C15.3735 38.2081 14.583 37.7075 13.977 36.8907C13.4106 36.0739 13.213 35.1518 13.3842 34.1374C13.5555 33.123 14.0561 32.3325 14.8729 31.766C16.546 30.6594 18.2191 29.2893 19.879 27.6689C21.5389 26.0354 23.0539 24.2964 24.4108 22.4521C25.7678 20.6077 26.848 18.7897 27.6385 17.0243C28.0469 16.1022 28.7319 15.4698 29.6804 15.101C30.629 14.7321 31.5643 14.7716 32.4733 15.2195C33.3955 15.6279 34.041 16.2998 34.4362 17.2351C34.8314 18.1705 34.8051 19.0795 34.3704 19.9622H36.7417C39.4555 19.9622 41.5634 20.4628 43.052 21.4508C44.5407 22.452 45.3838 23.8353 45.5946 25.6006C45.8054 27.3659 45.3443 29.4079 44.2377 31.7134C42.5909 35.1254 40.4172 38.3794 37.7166 41.4621C35.0159 44.5448 31.9859 47.2982 28.6397 49.7354C25.2935 52.1725 21.776 54.1355 18.1137 55.6109Z" fill="url(#paint9_linear_985_663)"/>
<path d="M56.5291 48.1544C55.5542 48.1544 54.6979 47.7987 53.9733 47.0873C53.2488 46.3759 52.8799 45.5196 52.8799 44.5052C52.8799 43.4908 53.2488 42.6345 53.9733 41.9232C54.6979 41.2118 55.5542 40.8561 56.5291 40.8561H70.5725V30.8965H62.1807C61.1663 30.8965 60.2968 30.5408 59.5723 29.8294C58.8477 29.118 58.4788 28.2617 58.4788 27.2473C58.4788 26.2329 58.8477 25.3766 59.5723 24.6652C60.2968 23.9538 61.1663 23.5981 62.1807 23.5981H86.2232C87.2376 23.5981 88.0939 23.9538 88.8053 24.6652C89.5167 25.3766 89.8724 26.2329 89.8724 27.2473C89.8724 28.2617 89.5167 29.118 88.8053 29.8294C88.0939 30.5408 87.2376 30.8965 86.2232 30.8965H77.8709V40.8561H92.0988C93.1132 40.8561 93.9695 41.2118 94.6809 41.9232C95.3923 42.6345 95.748 43.4908 95.748 44.5052C95.748 45.5196 95.3923 46.3759 94.6809 47.0873C93.9695 47.7987 93.1132 48.1544 92.0988 48.1544H56.5291Z" fill="url(#paint10_linear_985_663)"/>
<path d="M106.986 52.8976C106.103 53.3456 105.181 53.3983 104.206 53.0689C103.244 52.7396 102.533 52.1072 102.098 51.1982C101.65 50.276 101.597 49.3538 101.927 48.4053C102.256 47.4568 102.888 46.7586 103.797 46.3238C108.198 44.2028 112.084 41.6866 115.47 38.7883C118.855 35.8769 121.635 32.781 123.822 29.4875C124.546 28.4072 124.744 27.6168 124.415 27.1162C124.085 26.6155 123.321 26.3521 122.109 26.3521H109.541C108.566 26.3521 107.71 25.9832 106.986 25.2586C106.261 24.534 105.892 23.6778 105.892 22.7029C105.892 21.728 106.261 20.819 106.986 20.0944C107.71 19.3699 108.566 19.001 109.541 19.001H122.491C125.627 19.001 128.038 19.5807 129.724 20.7268C131.41 21.8861 132.332 23.467 132.477 25.4958C132.622 27.5246 131.937 29.8432 130.409 32.4648C130.159 32.939 129.869 33.4265 129.526 33.9139C129.197 34.4014 128.854 34.902 128.512 35.4026C129.935 36.5751 131.357 37.8398 132.78 39.1967C134.203 40.5536 135.56 41.871 136.838 43.1357C138.116 44.4004 139.222 45.5071 140.131 46.4556C140.83 47.1538 141.172 48.0101 141.146 49.0377C141.132 50.0652 140.764 50.9479 140.026 51.6725C139.288 52.397 138.458 52.7132 137.417 52.6868C136.377 52.6737 135.494 52.318 134.756 51.6198C133.9 50.6976 132.872 49.6173 131.647 48.3658C130.435 47.1143 129.144 45.8232 127.8 44.4795C126.457 43.1357 125.139 41.8974 123.835 40.7512C121.437 43.1489 118.75 45.428 115.799 47.5622C112.848 49.6964 109.897 51.4748 106.959 52.8976H106.986Z" fill="url(#paint11_linear_985_663)"/>
<path d="M156.836 56.3624C155.861 56.3624 155.005 56.0067 154.28 55.2953C153.555 54.5839 153.187 53.7276 153.187 52.7132V19.989C153.187 18.9746 153.555 18.1051 154.28 17.3806C155.005 16.656 155.861 16.2871 156.836 16.2871C157.811 16.2871 158.706 16.656 159.418 17.3806C160.129 18.1051 160.485 18.9746 160.485 19.989V30.8049C161.051 30.2647 161.736 29.9485 162.527 29.83C163.317 29.7246 164.055 29.8563 164.753 30.2384C166.624 31.2133 168.442 32.2935 170.207 33.466C171.973 34.6385 173.593 35.8241 175.042 37.023C175.833 37.6553 176.267 38.4853 176.346 39.5128C176.425 40.5404 176.149 41.4494 175.516 42.2399C174.884 43.0303 174.054 43.4782 173.027 43.5704C171.999 43.6627 171.09 43.3992 170.3 42.7668C169.417 42.0686 168.429 41.344 167.335 40.5799C166.242 39.8158 165.175 39.1045 164.134 38.4194C163.093 37.7344 162.158 37.1811 161.341 36.7331C161.209 36.6409 161.078 36.5355 160.933 36.4301C160.788 36.3247 160.643 36.2062 160.485 36.0744V52.7263C160.485 53.7407 160.129 54.5971 159.418 55.3085C158.706 56.0199 157.85 56.3756 156.836 56.3756V56.3624Z" fill="url(#paint12_linear_985_663)"/>
<path d="M222.798 56.9821C219.346 55.9018 216.263 54.2287 213.549 51.9496C210.836 49.6705 208.675 47.1016 207.094 44.2165C205.513 47.128 203.366 49.6179 200.639 51.6862C197.925 53.7545 194.684 55.4671 190.917 56.8372C189.836 57.2192 188.848 57.2588 187.926 56.9821C187.004 56.6923 186.345 56.0599 185.937 55.085C185.528 54.1102 185.542 53.1748 185.99 52.2922C186.437 51.4095 187.175 50.8035 188.216 50.4873C191.628 49.3807 194.46 47.9448 196.7 46.1663C198.94 44.401 200.639 42.2272 201.772 39.6715H188.111C187.294 39.6715 186.569 39.3685 185.95 38.7493C185.331 38.1301 185.028 37.4187 185.028 36.5888C185.028 35.7588 185.331 35.0079 185.95 34.4019C186.569 33.7959 187.281 33.5061 188.111 33.5061H203.34C203.406 32.9659 203.445 32.4258 203.485 31.8988C203.511 31.3587 203.537 30.8054 203.537 30.2389V28.3946H195.238C194.987 28.8952 194.737 29.3695 194.474 29.8174C194.223 30.2653 193.973 30.6737 193.709 31.0557C193.169 31.8725 192.418 32.4126 191.457 32.663C190.495 32.9133 189.599 32.7947 188.782 32.2809C188.058 31.833 187.57 31.2006 187.333 30.3838C187.096 29.5671 187.215 28.7898 187.689 28.0652C188.255 27.143 188.875 26.0628 189.533 24.7981C190.192 23.5334 190.824 22.2555 191.404 20.9513C191.984 19.6602 192.445 18.5273 192.761 17.5787C193.077 16.6961 193.644 16.1032 194.474 15.8002C195.29 15.4972 196.133 15.5104 196.99 15.8266C197.912 16.1428 198.544 16.6829 198.913 17.4338C199.282 18.1979 199.322 19.0015 199.032 19.8578C198.781 20.6483 198.492 21.386 198.175 22.0842H203.537V16.3931C203.537 15.3787 203.867 14.5619 204.538 13.9559C205.197 13.3367 205.988 13.0337 206.91 13.0337C207.832 13.0337 208.622 13.3367 209.281 13.9559C209.94 14.5751 210.282 15.3919 210.282 16.3931V22.0842H221.375C222.257 22.0842 223.008 22.3872 223.601 23.0064C224.207 23.6256 224.497 24.3633 224.497 25.2065C224.497 26.0496 224.194 26.84 223.601 27.4592C222.995 28.0784 222.257 28.3814 221.375 28.3814H210.282V30.2258C210.282 31.306 210.23 32.3863 210.137 33.4929H225.696C226.552 33.4929 227.277 33.7959 227.883 34.3887C228.489 34.9947 228.779 35.7193 228.779 36.5756C228.779 37.4319 228.476 38.117 227.883 38.7361C227.277 39.3553 226.552 39.6583 225.696 39.6583H211.85C214.406 44.9016 219.056 48.5112 225.788 50.4742C226.803 50.764 227.514 51.37 227.949 52.3054C228.37 53.2407 228.37 54.2156 227.922 55.2168C227.514 56.2312 226.829 56.8503 225.854 57.0875C224.892 57.3246 223.865 57.2851 222.798 56.9689V56.9821Z" fill="url(#paint13_linear_985_663)"/>
<path d="M233.429 56.1779C232.797 55.6773 232.402 54.9791 232.244 54.1096C232.086 53.2401 232.323 52.4629 232.955 51.7646C233.245 51.4221 233.627 50.9347 234.114 50.3155C234.602 49.6963 235.089 49.064 235.564 48.4184C236.038 47.7729 236.42 47.2591 236.697 46.8771C237.237 46.0866 237.909 45.5992 238.712 45.428C239.516 45.2567 240.319 45.4016 241.11 45.8759C241.834 46.2843 242.322 46.9034 242.585 47.7202C242.836 48.537 242.691 49.3801 242.164 50.2365C241.663 51.0269 241.044 51.9359 240.333 52.9635C239.621 53.991 239.002 54.821 238.462 55.4533C237.803 56.2701 237.013 56.7444 236.091 56.8761C235.168 57.0079 234.286 56.7707 233.429 56.1647V56.1779ZM256.563 56.4546C255.68 56.9552 254.732 57.1133 253.744 56.9025C252.742 56.6917 252.018 56.1516 251.544 55.2689C251.32 54.8605 251.201 54.4916 251.162 54.1755C250.595 54.3994 249.989 54.4389 249.357 54.294C248.724 54.1491 248.158 53.7802 247.644 53.1742C247.302 52.7658 246.867 52.2521 246.366 51.6329C245.866 51.0137 245.431 50.4868 245.088 50.0389C244.588 49.4065 244.403 48.7083 244.548 47.931C244.693 47.1537 245.088 46.5214 245.76 46.0076C246.393 45.507 247.104 45.2699 247.894 45.3225C248.685 45.3752 249.344 45.7046 249.884 46.3369C250.174 46.6531 250.569 47.0879 251.069 47.6412C251.57 48.1945 251.992 48.6292 252.308 48.9454C252.848 49.4855 253.164 50.052 253.256 50.658C256.128 49.0113 258.526 47.0747 260.423 44.8219C258.618 41.6865 257.34 38.3403 256.576 34.7702L256.154 35.4816C255.707 36.2457 255.074 36.7595 254.231 37.023C253.388 37.2864 252.558 37.2469 251.741 36.9044V38.09C251.741 40.0134 251.478 41.5153 250.964 42.5955C250.437 43.6758 249.541 44.4267 248.263 44.8483C246.985 45.2699 245.207 45.4938 242.928 45.4938C240.649 45.4938 238.923 45.283 237.645 44.8483C236.367 44.4267 235.458 43.6758 234.944 42.5955C234.417 41.5153 234.167 40.0134 234.167 38.09V22.0573C234.167 20.1339 234.431 18.6321 234.944 17.5518C235.458 16.4716 236.367 15.7206 237.645 15.299C238.923 14.8775 240.688 14.6535 242.928 14.6535C245.167 14.6535 246.985 14.8643 248.263 15.299C249.541 15.7206 250.45 16.4716 250.964 17.5518C251.478 18.6321 251.741 20.1339 251.741 22.0573V30.3042C252.848 28.0646 253.796 25.6406 254.587 23.0453C255.377 20.4501 255.931 18.0656 256.247 15.8787C256.405 14.7721 256.866 13.9817 257.617 13.5074C258.381 13.0331 259.224 12.8882 260.173 13.0858C261.147 13.2703 261.885 13.705 262.373 14.39C262.86 15.0751 263.031 15.8655 262.873 16.7877C262.741 17.644 262.583 18.5004 262.373 19.3698C262.162 20.2393 261.938 21.0956 261.688 21.9519H273.597C274.545 21.9519 275.283 22.2549 275.823 22.8477C276.363 23.4537 276.627 24.1651 276.627 24.9819C276.627 25.7987 276.363 26.5628 275.823 27.1688C275.283 27.7748 274.545 28.0646 273.597 28.0646H273.03C272.398 34.5462 270.791 40.0793 268.195 44.6638C270.066 46.6926 272.293 48.537 274.888 50.2101C275.744 50.7766 276.232 51.5275 276.363 52.4365C276.495 53.3587 276.284 54.2018 275.744 54.9922C275.178 55.8485 274.374 56.336 273.32 56.4677C272.279 56.5995 271.331 56.3624 270.475 55.7564C268.103 54.0174 266.048 52.1467 264.309 50.1574C262.07 52.6605 259.488 54.742 256.576 56.4151L256.563 56.4546ZM240.491 23.5987H245.378V22.795C245.378 21.8465 245.233 21.201 244.957 20.8716C244.68 20.5423 243.995 20.371 242.915 20.371C241.834 20.371 241.202 20.5423 240.925 20.8716C240.636 21.201 240.504 21.8465 240.504 22.795V23.5987H240.491ZM240.491 31.7007H245.378V28.2886H240.491V31.7007ZM242.915 39.8158C243.995 39.8158 244.667 39.6446 244.957 39.3152C245.246 38.9859 245.378 38.3404 245.378 37.3918V36.3906H240.491V37.3918C240.491 38.3404 240.636 38.9859 240.912 39.3152C241.202 39.6446 241.861 39.8158 242.901 39.8158H242.915ZM264.256 38.6697C264.915 37.0888 265.455 35.4157 265.851 33.6372C266.246 31.8719 266.509 30.0144 266.628 28.091H261.885C262.07 32.0695 262.86 35.6002 264.256 38.6697Z" fill="url(#paint14_linear_985_663)"/>
<path d="M284.307 53.8069C283.226 53.8069 282.317 53.438 281.58 52.6871C280.842 51.9494 280.46 51.0535 280.46 50.0128C280.46 48.9721 280.829 48.0235 281.58 47.2858C282.331 46.548 283.226 46.166 284.307 46.166C285.387 46.166 286.256 46.5349 287.007 47.2858C287.772 48.0235 288.14 48.9325 288.14 50.0128C288.14 51.0931 287.758 51.9494 287.007 52.6871C286.243 53.4249 285.348 53.8069 284.307 53.8069Z" fill="url(#paint15_linear_985_663)"/>
<path d="M296.743 53.8069C295.663 53.8069 294.754 53.438 294.016 52.6871C293.279 51.9494 292.896 51.0535 292.896 50.0128C292.896 48.9721 293.265 48.0235 294.016 47.2858C294.767 46.548 295.663 46.166 296.743 46.166C297.824 46.166 298.693 46.5349 299.444 47.2858C300.208 48.0235 300.577 48.9325 300.577 50.0128C300.577 51.0931 300.195 51.9494 299.444 52.6871C298.68 53.4249 297.784 53.8069 296.743 53.8069Z" fill="url(#paint16_linear_985_663)"/>
<path d="M309.166 53.8069C308.086 53.8069 307.177 53.438 306.439 52.6871C305.701 51.9494 305.319 51.0535 305.319 50.0128C305.319 48.9721 305.688 48.0235 306.439 47.2858C307.19 46.548 308.086 46.166 309.166 46.166C310.246 46.166 311.116 46.5349 311.867 47.2858C312.631 48.0235 313 48.9325 313 50.0128C313 51.0931 312.618 51.9494 311.867 52.6871C311.103 53.4249 310.207 53.8069 309.166 53.8069Z" fill="url(#paint17_linear_985_663)"/>
</g>
</g>
<defs>
<filter id="filter0_d_985_663" x="0.75" y="0.750488" width="324.5" height="68.7393" filterUnits="userSpaceOnUse" color-interpolation-filters="sRGB">
<feFlood flood-opacity="0" result="BackgroundImageFix"/>
<feColorMatrix in="SourceAlpha" type="matrix" values="0 0 0 0 0 0 0 0 0 0 0 0 0 0 0 0 0 0 127 0" result="hardAlpha"/>
<feOffset/>
<feGaussianBlur stdDeviation="4"/>
<feComposite in2="hardAlpha" operator="out"/>
<feColorMatrix type="matrix" values="0 0 0 0 0.329412 0 0 0 0 0.270588 0 0 0 0 0.47451 0 0 0 0.25 0"/>
<feBlend mode="normal" in2="BackgroundImageFix" result="effect1_dropShadow_985_663"/>
<feBlend mode="normal" in="SourceGraphic" in2="effect1_dropShadow_985_663" result="shape"/>
</filter>
<filter id="filter1_d_985_663" x="5" y="5" width="316" height="60.2397" filterUnits="userSpaceOnUse" color-interpolation-filters="sRGB">
<feFlood flood-opacity="0" result="BackgroundImageFix"/>
<feColorMatrix in="SourceAlpha" type="matrix" values="0 0 0 0 0 0 0 0 0 0 0 0 0 0 0 0 0 0 127 0" result="hardAlpha"/>
<feOffset/>
<feGaussianBlur stdDeviation="4"/>
<feComposite in2="hardAlpha" operator="out"/>
<feColorMatrix type="matrix" values="0 0 0 0 0.266667 0 0 0 0 0.266667 0 0 0 0 0.266667 0 0 0 0.25 0"/>
<feBlend mode="normal" in2="BackgroundImageFix" result="effect1_dropShadow_985_663"/>
<feBlend mode="normal" in="SourceGraphic" in2="effect1_dropShadow_985_663" result="shape"/>
</filter>
<linearGradient id="paint0_linear_985_663" x1="163.001" y1="57.2577" x2="163.001" y2="13.0195" gradientUnits="userSpaceOnUse">
<stop stop-color="#583A6B"/>
<stop offset="1" stop-color="#3A8DDE"/>
</linearGradient>
<linearGradient id="paint1_linear_985_663" x1="163.001" y1="57.2576" x2="163.001" y2="13.0194" gradientUnits="userSpaceOnUse">
<stop stop-color="#583A6B"/>
<stop offset="1" stop-color="#3A8DDE"/>
</linearGradient>
<linearGradient id="paint2_linear_985_663" x1="163.001" y1="57.2582" x2="163.001" y2="13.02" gradientUnits="userSpaceOnUse">
<stop stop-color="#583A6B"/>
<stop offset="1" stop-color="#3A8DDE"/>
</linearGradient>
<linearGradient id="paint3_linear_985_663" x1="163.001" y1="57.2582" x2="163.001" y2="13.02" gradientUnits="userSpaceOnUse">
<stop stop-color="#583A6B"/>
<stop offset="1" stop-color="#3A8DDE"/>
</linearGradient>
<linearGradient id="paint4_linear_985_663" x1="163.001" y1="57.2587" x2="163.001" y2="13.0205" gradientUnits="userSpaceOnUse">
<stop stop-color="#583A6B"/>
<stop offset="1" stop-color="#3A8DDE"/>
</linearGradient>
<linearGradient id="paint5_linear_985_663" x1="163.001" y1="57.2582" x2="163.001" y2="13.02" gradientUnits="userSpaceOnUse">
<stop stop-color="#583A6B"/>
<stop offset="1" stop-color="#3A8DDE"/>
</linearGradient>
<linearGradient id="paint6_linear_985_663" x1="163.001" y1="57.2585" x2="163.001" y2="13.0204" gradientUnits="userSpaceOnUse">
<stop stop-color="#583A6B"/>
<stop offset="1" stop-color="#3A8DDE"/>
</linearGradient>
<linearGradient id="paint7_linear_985_663" x1="163.001" y1="57.2585" x2="163.001" y2="13.0204" gradientUnits="userSpaceOnUse">
<stop stop-color="#583A6B"/>
<stop offset="1" stop-color="#3A8DDE"/>
</linearGradient>
<linearGradient id="paint8_linear_985_663" x1="163.001" y1="57.2585" x2="163.001" y2="13.0204" gradientUnits="userSpaceOnUse">
<stop stop-color="#583A6B"/>
<stop offset="1" stop-color="#3A8DDE"/>
</linearGradient>
<linearGradient id="paint9_linear_985_663" x1="66.4095" y1="-25.8306" x2="283.253" y2="146.814" gradientUnits="userSpaceOnUse">
<stop stop-color="#FAFAF8"/>
<stop offset="1" stop-color="#FAFAF8"/>
</linearGradient>
<linearGradient id="paint10_linear_985_663" x1="66.4096" y1="-25.8306" x2="283.253" y2="146.814" gradientUnits="userSpaceOnUse">
<stop stop-color="#FAFAF8"/>
<stop offset="1" stop-color="#FAFAF8"/>
</linearGradient>
<linearGradient id="paint11_linear_985_663" x1="66.4097" y1="-25.8301" x2="283.253" y2="146.815" gradientUnits="userSpaceOnUse">
<stop stop-color="#FAFAF8"/>
<stop offset="1" stop-color="#FAFAF8"/>
</linearGradient>
<linearGradient id="paint12_linear_985_663" x1="66.4096" y1="-25.8301" x2="283.253" y2="146.815" gradientUnits="userSpaceOnUse">
<stop stop-color="#FAFAF8"/>
<stop offset="1" stop-color="#FAFAF8"/>
</linearGradient>
<linearGradient id="paint13_linear_985_663" x1="66.4094" y1="-25.8295" x2="283.253" y2="146.815" gradientUnits="userSpaceOnUse">
<stop stop-color="#FAFAF8"/>
<stop offset="1" stop-color="#FAFAF8"/>
</linearGradient>
<linearGradient id="paint14_linear_985_663" x1="66.4097" y1="-25.8301" x2="283.253" y2="146.815" gradientUnits="userSpaceOnUse">
<stop stop-color="#FAFAF8"/>
<stop offset="1" stop-color="#FAFAF8"/>
</linearGradient>
<linearGradient id="paint15_linear_985_663" x1="66.4097" y1="-25.8296" x2="283.253" y2="146.815" gradientUnits="userSpaceOnUse">
<stop stop-color="#FAFAF8"/>
<stop offset="1" stop-color="#FAFAF8"/>
</linearGradient>
<linearGradient id="paint16_linear_985_663" x1="66.4094" y1="-25.8296" x2="283.253" y2="146.815" gradientUnits="userSpaceOnUse">
<stop stop-color="#FAFAF8"/>
<stop offset="1" stop-color="#FAFAF8"/>
</linearGradient>
<linearGradient id="paint17_linear_985_663" x1="66.4092" y1="-25.8296" x2="283.253" y2="146.815" gradientUnits="userSpaceOnUse">
<stop stop-color="#FAFAF8"/>
<stop offset="1" stop-color="#FAFAF8"/>
</linearGradient>
</defs>
</svg>
