<svg width="342" height="100" viewBox="0 0 342 100" fill="none" xmlns="http://www.w3.org/2000/svg">
<g filter="url(#filter0_d_1345_300)">
<path d="M30.9663 78.1053C30.1103 78.7032 29.1726 78.9342 28.1399 78.7848C27.1071 78.6489 26.2646 78.1597 25.626 77.3444C24.9873 76.529 24.7427 75.5914 24.9058 74.5451C25.0688 73.4988 25.5716 72.6563 26.4277 72.0176C35.967 65.0059 42.3537 56.9207 45.4519 47.4359C46.0362 45.5607 45.2617 44.8269 43.1147 45.2618C41.0764 45.6694 39.0381 46.0907 36.9997 46.5119C35.8311 48.8899 34.4722 51.2271 32.9367 53.51C31.4012 55.8065 29.7162 57.9399 27.8953 59.9238C27.1615 60.6984 26.2511 61.1196 25.164 61.1876C24.0769 61.2555 23.1257 60.9566 22.2967 60.2771C21.495 59.5977 21.0738 58.728 21.0058 57.6681C20.9515 56.6082 21.2776 55.6842 22.025 54.9096C23.5469 53.3741 25.0009 51.594 26.4005 49.5557C27.8002 47.5175 29.0367 45.3976 30.0967 43.2099C31.1566 41.0221 31.9311 38.9431 32.4068 36.9727C32.6513 35.9536 33.2628 35.1519 34.2276 34.5676C35.1924 33.9833 36.2252 33.8066 37.3123 34.0512C38.3994 34.255 39.2555 34.7986 39.8806 35.6546C40.5056 36.5107 40.6551 37.4347 40.3562 38.4267C41.2122 38.2501 42.0819 38.087 42.938 37.9103C45.9004 37.326 48.292 37.394 50.0857 38.1006C51.893 38.8072 53.0616 40.0437 53.6188 41.7967C54.1623 43.5496 54.0536 45.7102 53.3062 48.2648C52.1919 52.056 50.4933 55.7793 48.2648 59.4618C46.0362 63.1443 43.4408 66.5686 40.492 69.7619C37.5433 72.9553 34.3771 75.7273 30.9799 78.0781L30.9663 78.1053Z" fill="black"/>
<path d="M69.1912 62.7643C68.1721 62.9273 67.2209 62.7235 66.3376 62.1256C65.4543 61.5277 64.9244 60.7124 64.7477 59.6932C64.5711 58.6605 64.8021 57.7229 65.4543 56.8668C66.093 56.0107 66.9491 55.508 67.9818 55.3313C72.9281 54.5296 77.888 53.7822 82.8479 53.0892C82.3723 49.6921 81.9103 46.3085 81.4347 42.9114C78.418 43.3326 75.4013 43.7674 72.3982 44.2295C71.3111 44.3925 70.3191 44.1751 69.4222 43.5772C68.5254 42.9793 67.9954 42.164 67.8323 41.1313C67.6693 40.0985 67.9139 39.1609 68.5933 38.3048C69.2727 37.4488 70.156 36.946 71.2567 36.7693C79.9807 35.4376 88.7182 34.269 97.483 33.2907C98.5836 33.1684 99.5756 33.4265 100.432 34.0788C101.288 34.731 101.763 35.5735 101.872 36.6063C101.981 37.639 101.695 38.563 101.002 39.3783C100.309 40.1937 99.4261 40.6557 98.3255 40.778C95.3223 41.1177 92.3192 41.471 89.3161 41.8515C89.751 45.2486 90.1722 48.6457 90.6071 52.0429C95.6349 51.4042 100.676 50.8335 105.731 50.3171C106.805 50.2084 107.756 50.4802 108.585 51.1324C109.414 51.7847 109.876 52.6408 109.971 53.6735C110.066 54.7198 109.781 55.6303 109.101 56.432C108.422 57.2337 107.552 57.6957 106.492 57.8044C94.0314 59.0682 81.5977 60.726 69.2048 62.7371L69.1912 62.7643Z" fill="black"/>
<path d="M122.514 61.2962C121.617 61.8261 120.666 61.9484 119.633 61.6902C118.6 61.4321 117.812 60.8478 117.268 59.9509C116.725 59.0541 116.589 58.0893 116.847 57.0837C117.119 56.0782 117.717 55.3036 118.641 54.7737C123.098 52.219 127.052 49.3382 130.477 46.1177C133.915 42.8973 136.741 39.5545 138.956 36.0486C139.69 34.9072 139.866 34.0783 139.486 33.5755C139.105 33.0727 138.249 32.8553 136.931 32.9097C132.352 33.1407 127.786 33.426 123.207 33.7522C122.133 33.8337 121.182 33.5211 120.326 32.8417C119.47 32.1487 119.008 31.3062 118.926 30.3007C118.845 29.2543 119.171 28.3303 119.918 27.5286C120.666 26.7133 121.576 26.2784 122.663 26.1969C127.433 25.8572 132.189 25.5582 136.958 25.3272C140.424 25.1506 143.114 25.6398 145.017 26.754C146.933 27.8683 147.992 29.4853 148.21 31.5644C148.441 33.6434 147.761 36.0622 146.212 38.8343C145.954 39.3371 145.655 39.8398 145.315 40.3562C144.976 40.8726 144.636 41.4025 144.283 41.9461C145.859 43.0875 147.435 44.3376 149.012 45.6965C150.574 47.0418 152.055 48.3599 153.455 49.6236C154.855 50.8873 156.037 52.0016 157.029 52.9664C157.776 53.673 158.157 54.5562 158.157 55.6162C158.157 56.6761 157.79 57.5865 157.043 58.3475C156.322 59.0812 155.425 59.4481 154.338 59.4617C153.251 59.4617 152.314 59.1356 151.526 58.4426C150.601 57.5186 149.474 56.4451 148.156 55.1949C146.824 53.9584 145.424 52.6674 143.943 51.3358C142.462 50.0041 140.994 48.7947 139.554 47.694C137.108 50.2894 134.39 52.7761 131.414 55.1677C128.425 57.5593 125.462 59.5976 122.514 61.2962Z" fill="black"/>
<path d="M174.626 63.0898C173.607 63.0898 172.724 62.7094 171.963 61.9756C171.202 61.2418 170.821 60.3449 170.835 59.3122C170.848 48.0609 170.876 36.8095 170.889 25.5582C170.889 24.5119 171.297 23.6151 172.099 22.8677C172.914 22.1203 173.852 21.7534 174.952 21.7534C176.08 21.7534 177.031 22.1475 177.806 22.9084C178.58 23.6694 178.961 24.5662 178.947 25.6126C178.893 29.3358 178.839 33.0455 178.798 36.7688C179.423 36.2252 180.17 35.8991 181.026 35.804C181.882 35.7089 182.698 35.8583 183.445 36.266C185.456 37.3259 187.386 38.4809 189.261 39.7447C191.136 41.0084 192.835 42.2993 194.343 43.5902C195.172 44.2697 195.593 45.1529 195.634 46.2128C195.675 47.2727 195.335 48.1968 194.629 48.9849C193.922 49.773 193.025 50.1943 191.925 50.2486C190.824 50.303 189.873 50.004 189.057 49.3246C188.133 48.5772 187.101 47.8027 185.959 46.9874C184.818 46.1721 183.69 45.4111 182.589 44.6773C181.488 43.9571 180.496 43.3592 179.613 42.8836C179.477 42.7885 179.341 42.6798 179.178 42.5575C179.029 42.4352 178.866 42.3129 178.703 42.177C178.621 47.8978 178.54 53.6186 178.458 59.3394C178.445 60.3857 178.064 61.269 177.303 61.9892C176.556 62.7094 175.645 63.0762 174.599 63.0627L174.626 63.0898Z" fill="black"/>
<path d="M232.542 66.7587C227.5 66.2424 223.464 65.5901 220.42 64.7476C217.377 63.9052 215.053 62.6958 213.449 61.0787C212.797 61.4592 212.023 61.9076 211.139 62.4104C210.256 62.9268 209.631 63.2937 209.25 63.5383C208.422 64.0139 207.511 64.1226 206.506 63.878C205.5 63.6334 204.766 63.0627 204.331 62.1658C203.883 61.2961 203.801 60.3993 204.1 59.5025C204.399 58.6056 204.997 57.9669 205.88 57.6001C206.329 57.3962 206.886 57.1652 207.579 56.8935C208.259 56.6217 208.938 56.3499 209.59 56.0646C209.808 52.7082 210.025 49.3654 210.229 46.009C210.283 45.2616 210.202 44.7589 210.011 44.5007C209.821 44.2425 209.332 44.093 208.557 44.0387C208.204 44.0115 207.851 43.9979 207.484 43.9707C206.465 43.9164 205.69 43.5495 205.147 42.9108C204.603 42.2586 204.359 41.5112 204.399 40.6687C204.44 39.8262 204.78 39.1196 205.391 38.5489C206.003 37.9782 206.832 37.72 207.864 37.7879C209.237 37.8695 210.609 37.951 211.982 38.0461C215.759 38.2907 217.499 40.2203 217.241 43.7669C216.928 47.9114 216.616 52.0559 216.317 56.2004C217.118 57.0429 218.083 57.7359 219.197 58.2931C220.312 58.8366 221.752 59.285 223.546 59.6383C225.34 59.9916 227.595 60.3314 230.34 60.6575C230.014 60.3042 229.742 59.8829 229.552 59.4209C229.362 58.9589 229.294 58.4426 229.348 57.8582C229.362 57.7088 229.375 57.5729 229.389 57.4234C226.236 57.1245 223.07 56.8391 219.904 56.5945C219.211 56.5401 218.627 56.2412 218.165 55.7248C217.703 55.1949 217.499 54.597 217.553 53.9176C217.608 53.2381 217.906 52.6674 218.436 52.219C218.98 51.7706 219.605 51.5803 220.312 51.6347C223.505 51.8929 226.685 52.1782 229.865 52.4772C229.905 51.988 229.96 51.4988 230 51.0232C227.772 50.8058 225.53 50.6019 223.301 50.4117C222.567 50.3438 221.956 50.0448 221.494 49.5013C221.032 48.9577 220.828 48.3327 220.882 47.6125C220.937 46.8923 221.236 46.3215 221.793 45.8731C222.336 45.4247 222.989 45.2345 223.736 45.3024C225.992 45.4926 228.248 45.6965 230.49 45.9139C230.503 45.7236 230.53 45.5198 230.544 45.3296C230.571 45.0035 230.653 44.7045 230.789 44.4191C228.057 44.161 225.326 43.9164 222.581 43.6854C221.834 43.6174 221.222 43.3321 220.76 42.8021C220.285 42.2722 220.081 41.6471 220.135 40.9405C220.189 40.2203 220.502 39.636 221.045 39.174C221.603 38.712 222.255 38.5081 223.002 38.5761C223.818 38.644 224.646 38.712 225.462 38.7799C225.353 38.5081 225.244 38.2364 225.149 37.9646C225.054 37.6928 224.973 37.4754 224.918 37.3123C224.782 36.8367 224.769 36.3883 224.878 35.9399C223.627 35.8312 222.364 35.7225 221.113 35.6273C220.352 35.573 219.741 35.2605 219.265 34.7169C218.79 34.1734 218.572 33.5483 218.627 32.8281C218.681 32.1079 218.98 31.5236 219.537 31.0888C220.094 30.6403 220.76 30.4501 221.521 30.5044C224.973 30.7762 228.424 31.0888 231.862 31.4149C231.903 30.9393 231.957 30.4773 231.998 30.0017C229.43 29.7571 226.861 29.5261 224.293 29.3087C223.532 29.2407 222.894 28.9418 222.404 28.3982C221.902 27.8547 221.684 27.216 221.739 26.5094C221.793 25.7892 222.119 25.2185 222.69 24.7701C223.274 24.3217 223.953 24.1314 224.714 24.1994C227.31 24.4168 229.892 24.6478 232.487 24.8924C232.501 24.7429 232.514 24.5934 232.528 24.4575C232.637 23.384 233.085 22.5823 233.9 22.0388C234.716 21.4952 235.653 21.2778 236.713 21.3865C237.8 21.4952 238.684 21.9029 239.363 22.5959C240.029 23.2889 240.314 24.1722 240.192 25.2457C240.178 25.3952 240.165 25.531 240.151 25.6805C242.828 25.9659 245.505 26.2784 248.169 26.5909C248.93 26.6861 249.568 27.0122 250.044 27.5557C250.519 28.1129 250.723 28.7379 250.628 29.4581C250.533 30.1647 250.193 30.749 249.595 31.1839C248.998 31.6187 248.318 31.7954 247.557 31.7003C244.907 31.3877 242.257 31.0752 239.594 30.7898C239.54 31.2654 239.499 31.7274 239.445 32.203C243.263 32.6107 247.095 33.0591 250.914 33.5347C251.674 33.6298 252.286 33.956 252.734 34.5131C253.183 35.0702 253.373 35.6953 253.278 36.4019C253.183 37.1085 252.843 37.6928 252.272 38.1276C251.688 38.5625 251.022 38.7391 250.275 38.644C248.712 38.4538 247.149 38.2635 245.6 38.0733C245.655 38.5353 245.546 38.9837 245.288 39.4186C245.206 39.568 245.084 39.7719 244.962 40.0164C244.826 40.261 244.676 40.5056 244.513 40.7502C245.437 40.8589 246.361 40.9677 247.285 41.0764C248.033 41.1715 248.644 41.4976 249.093 42.0683C249.541 42.639 249.718 43.2777 249.636 43.9843C249.541 44.6909 249.215 45.2616 248.644 45.6829C248.073 46.1041 247.421 46.2672 246.674 46.1857C243.779 45.8324 240.885 45.5062 237.977 45.1937C238.031 45.3296 238.045 45.4791 238.031 45.6421C238.018 45.8052 237.991 45.9682 237.977 46.1313C237.95 46.3215 237.936 46.5254 237.909 46.7156C240.206 46.9602 242.516 47.2184 244.812 47.4902C245.56 47.5717 246.157 47.8978 246.606 48.4414C247.054 48.9849 247.231 49.6236 247.149 50.3302C247.068 51.0368 246.728 51.6211 246.171 52.0559C245.6 52.4908 244.962 52.6674 244.214 52.5859C241.931 52.3141 239.648 52.0559 237.366 51.8113C237.311 52.3005 237.257 52.7897 237.202 53.2653C240.858 53.6594 244.5 54.0806 248.141 54.5426C248.848 54.6242 249.419 54.9503 249.854 55.4938C250.288 56.0374 250.465 56.6624 250.384 57.3419C250.302 58.0213 249.976 58.5648 249.405 58.9861C248.848 59.4073 248.223 59.5704 247.516 59.4889C243.902 59.0404 240.287 58.6192 236.659 58.2251C236.645 58.3746 236.632 58.5105 236.618 58.66C236.496 59.8286 235.98 60.6711 235.096 61.201C237.583 61.432 239.784 61.6359 241.7 61.7853C243.63 61.9484 245.315 62.0707 246.783 62.1522C247.883 62.193 248.753 62.5463 249.392 63.1985C250.03 63.8508 250.288 64.6525 250.166 65.5901C250.044 66.5277 249.65 67.2615 248.998 67.8051C248.345 68.3486 247.394 68.5389 246.157 68.3758C241.632 67.8051 237.094 67.2887 232.555 66.8267L232.542 66.7587ZM212.784 30.4909C212.485 30.1783 212.063 29.7435 211.506 29.1864C210.949 28.6292 210.392 28.0857 209.848 27.5422C209.305 26.9986 208.87 26.5909 208.53 26.3056C207.864 25.7077 207.552 24.9875 207.606 24.145C207.661 23.3025 208.014 22.5823 208.68 21.998C209.427 21.3865 210.283 21.0604 211.248 21.006C212.226 20.9517 213.083 21.2642 213.803 21.9301C214.102 22.1747 214.55 22.5823 215.148 23.153C215.746 23.7238 216.33 24.2809 216.901 24.8516C217.472 25.4223 217.893 25.8436 218.151 26.1153C218.871 26.822 219.17 27.6373 219.075 28.5341C218.966 29.4445 218.491 30.2055 217.648 30.8306C216.874 31.4013 216.031 31.6595 215.107 31.6323C214.183 31.6051 213.409 31.2247 212.756 30.4909H212.784ZM232.65 39.3914C234.213 39.5408 235.762 39.7039 237.325 39.867C237.542 39.5001 237.76 39.0652 238.004 38.5625C238.249 38.0597 238.48 37.6113 238.697 37.2036C236.401 36.959 234.091 36.728 231.794 36.497C231.93 36.9318 232.08 37.421 232.256 37.9646C232.433 38.5081 232.569 38.9837 232.664 39.3778L232.65 39.3914Z" fill="black"/>
<path d="M256.186 69.5989C255.371 69.0553 254.868 68.308 254.705 67.3432C254.542 66.3784 254.746 65.5087 255.316 64.7342C256.947 62.6279 258.374 60.0733 259.597 57.0838C260.806 54.0943 261.757 50.3303 262.423 45.7781C262.532 45.0579 262.641 44.3242 262.736 43.604C263.103 41.0493 263.796 39.1197 264.815 37.8016C265.834 36.4835 267.247 35.6546 269.041 35.3285C270.835 34.9888 273.077 35.0432 275.727 35.478C278.363 35.9128 280.999 36.3612 283.635 36.8233C283.853 35.0024 284.124 33.1679 284.45 31.3063C284.641 30.2192 285.143 29.4447 285.959 28.9963C286.774 28.5478 287.725 28.4255 288.812 28.6158C289.859 28.806 290.701 29.2408 291.326 29.9067C291.965 30.5725 292.155 31.5101 291.924 32.7331C291.707 33.6571 291.53 34.5676 291.381 35.4644C291.231 36.3612 291.082 37.2717 290.946 38.1685C293.202 38.5898 295.444 39.0382 297.699 39.4866C297.659 39.4323 297.618 39.3643 297.577 39.31C297.387 39.0382 297.115 38.6849 296.775 38.2501C296.436 37.8152 296.096 37.3804 295.77 36.932C295.444 36.4835 295.199 36.1574 295.022 35.9672C294.479 35.3013 294.275 34.5404 294.438 33.7115C294.601 32.8826 295.036 32.2167 295.743 31.7275C296.49 31.2112 297.333 31.0074 298.27 31.1297C299.208 31.252 299.996 31.6596 300.648 32.3526C301.029 32.7603 301.518 33.3038 302.075 33.9968C302.646 34.6763 303.121 35.2878 303.502 35.8449C304.127 36.6738 304.317 37.5299 304.1 38.3995C303.882 39.2692 303.366 39.935 302.551 40.3971C302.51 40.4242 302.469 40.4514 302.428 40.4786C303.067 40.6145 303.692 40.7368 304.331 40.8727C305.431 41.1037 306.233 41.5929 306.736 42.3402C307.239 43.0876 307.388 43.9165 307.184 44.8405C306.981 45.7645 306.505 46.4711 305.744 46.9603C304.983 47.4495 304.059 47.5718 302.972 47.3408C298.719 46.444 294.452 45.5879 290.171 44.7726C289.886 49.0666 289.995 52.8849 290.484 56.2413C292.264 54.1894 293.84 51.9745 295.199 49.5829C295.661 48.6725 296.368 48.1018 297.333 47.8708C298.297 47.6398 299.235 47.7756 300.159 48.292C301.015 48.7676 301.586 49.4063 301.871 50.2216C302.157 51.0369 302.034 51.893 301.491 52.817C300.268 54.964 298.922 56.9887 297.455 58.8911C295.987 60.8071 294.384 62.56 292.658 64.1771C292.971 64.8701 293.283 65.5223 293.623 66.1474C293.963 66.7589 294.343 67.3704 294.764 67.9547C295.172 68.471 295.498 68.7156 295.743 68.702C295.987 68.6884 296.286 68.4167 296.626 67.8867C296.735 67.7101 296.857 67.5063 296.979 67.2888C297.115 67.0714 297.224 66.8676 297.333 66.6909C297.89 65.8349 298.624 65.3185 299.548 65.1282C300.472 64.938 301.355 65.0875 302.225 65.5767C303.149 66.1066 303.706 66.8132 303.91 67.6693C304.113 68.539 303.991 69.3543 303.556 70.1152C303.312 70.5909 303.04 71.0665 302.754 71.5421C302.469 72.0177 302.089 72.5884 301.64 73.2542C299.656 76.2301 297.577 77.5754 295.335 77.29C293.107 77.0047 291 75.4284 289.003 72.534C288.609 71.9633 288.228 71.3382 287.861 70.686C287.494 70.0337 287.141 69.3543 286.801 68.6613C284.124 70.3734 281.298 71.7187 278.308 72.7107C277.344 73.0368 276.42 73.0096 275.536 72.6156C274.653 72.2351 274.001 71.5692 273.593 70.6452C273.213 69.7212 273.226 68.8379 273.634 67.9954C274.042 67.1529 274.721 66.5822 275.645 66.2833C277.235 65.7261 278.757 65.0739 280.224 64.3129C281.692 63.552 283.092 62.6959 284.437 61.7447C283.798 59.1085 283.35 56.2549 283.105 53.1975C282.861 50.1401 282.833 46.8788 283.024 43.4409C280.292 42.9517 277.561 42.4897 274.83 42.0413C273.457 41.8103 272.397 41.8782 271.623 42.2179C270.848 42.5576 270.345 43.4953 270.101 45.0443C270.101 45.0715 270.101 45.1123 270.087 45.1395C271.568 45.3705 273.036 45.6151 274.517 45.8597C277.167 46.2945 278.974 47.1234 279.939 48.292C280.904 49.4742 281.094 51.2815 280.523 53.7274C280.265 55.0048 279.939 56.3229 279.572 57.6545C279.192 58.9998 278.77 60.25 278.295 61.4322C277.425 63.6607 276.243 65.1011 274.735 65.7533C273.24 66.4056 271.528 66.6094 269.612 66.3648C268.552 66.2289 267.655 65.8484 266.907 65.237C266.16 64.6255 265.807 63.7558 265.847 62.6415C265.875 61.5952 266.201 60.7663 266.812 60.1684C267.437 59.5705 268.171 59.2716 269.014 59.2852C270.074 59.2852 270.78 59.19 271.161 58.9862C271.541 58.7824 271.867 58.2932 272.166 57.5187C272.533 56.5539 272.873 55.426 273.185 54.1215C273.389 53.2654 273.362 52.6675 273.09 52.3414C272.819 52.0153 272.248 51.7843 271.365 51.6348C270.576 51.5125 269.788 51.3766 269 51.2543C268.144 55.1135 267.098 58.4291 265.847 61.2147C264.597 63.9868 263.143 66.4735 261.472 68.6613C260.847 69.4902 260.018 70.0065 258.985 70.224C257.952 70.4414 257.001 70.224 256.132 69.6125L256.186 69.5989Z" fill="black"/>
<path d="M310.256 76.7735C309.155 76.5153 308.313 75.931 307.715 75.007C307.117 74.083 306.94 73.091 307.185 72.0039C307.429 70.9169 308.014 70.088 308.965 69.5172C309.902 68.9465 310.935 68.7835 312.049 69.0552C313.164 69.3134 314.033 69.9113 314.631 70.8489C315.243 71.7865 315.406 72.7921 315.148 73.8656C314.889 74.9391 314.278 75.768 313.327 76.3251C312.376 76.8822 311.343 77.0317 310.242 76.7735H310.256ZM312.756 66.256C311.18 65.8891 310.568 64.6661 310.949 62.5735C312.022 56.7576 313.082 50.9553 314.128 45.1393C314.509 42.9924 315.841 42.1634 318.137 42.6934C320.529 43.2505 321.426 44.5958 320.814 46.6884C319.184 52.3685 317.566 58.0485 315.963 63.7421C315.379 65.7804 314.305 66.6093 312.756 66.256Z" fill="black"/>
<path d="M30.9663 78.1053C30.1103 78.7032 29.1726 78.9342 28.1399 78.7848C27.1071 78.6489 26.2646 78.1597 25.626 77.3444C24.9873 76.529 24.7427 75.5914 24.9058 74.5451C25.0688 73.4988 25.5716 72.6563 26.4277 72.0176C35.967 65.0059 42.3537 56.9208 45.4519 47.4359C46.0362 45.5607 45.2617 44.8269 43.1147 45.2618C41.0764 45.6694 39.0381 46.0907 36.9997 46.5119C35.8311 48.8899 34.4722 51.2271 32.9367 53.51C31.4012 55.8065 29.7162 57.9399 27.8953 59.9238C27.1615 60.6984 26.2511 61.1196 25.164 61.1876C24.0769 61.2555 23.1257 60.9566 22.2967 60.2771C21.495 59.5977 21.0738 58.728 21.0058 57.6681C20.9515 56.6082 21.2776 55.6842 22.025 54.9096C23.5469 53.3741 25.0009 51.594 26.4005 49.5557C27.8002 47.5175 29.0367 45.3976 30.0967 43.2099C31.1566 41.0221 31.9311 38.9431 32.4068 36.9727C32.6513 35.9536 33.2628 35.1519 34.2276 34.5676C35.1924 33.9833 36.2252 33.8066 37.3123 34.0512C38.3994 34.255 39.2555 34.7986 39.8806 35.6546C40.5056 36.5107 40.6551 37.4347 40.3562 38.4267C41.2122 38.2501 42.0819 38.087 42.938 37.9103C45.9004 37.326 48.292 37.394 50.0857 38.1006C51.893 38.8072 53.0616 40.0437 53.6188 41.7967C54.1623 43.5496 54.0536 45.7102 53.3062 48.2648C52.1919 52.056 50.4933 55.7793 48.2648 59.4618C46.0362 63.1443 43.4408 66.5686 40.492 69.7619C37.5433 72.9553 34.3771 75.7273 30.9799 78.0781L30.9663 78.1053Z" stroke="url(#paint0_linear_1345_300)" stroke-width="8.5" stroke-linecap="round" stroke-linejoin="round"/>
<path d="M69.1912 62.7643C68.1721 62.9273 67.2209 62.7235 66.3376 62.1256C65.4543 61.5277 64.9244 60.7124 64.7477 59.6932C64.5711 58.6605 64.8021 57.7229 65.4543 56.8668C66.093 56.0107 66.9491 55.508 67.9818 55.3313C72.9281 54.5296 77.888 53.7822 82.8479 53.0892C82.3723 49.6921 81.9103 46.3085 81.4347 42.9114C78.418 43.3326 75.4013 43.7674 72.3982 44.2295C71.3111 44.3925 70.3191 44.1751 69.4222 43.5772C68.5254 42.9793 67.9954 42.164 67.8323 41.1313C67.6693 40.0985 67.9139 39.1609 68.5933 38.3048C69.2727 37.4488 70.156 36.946 71.2567 36.7693C79.9807 35.4376 88.7182 34.269 97.483 33.2907C98.5836 33.1684 99.5756 33.4265 100.432 34.0788C101.288 34.731 101.763 35.5735 101.872 36.6063C101.981 37.639 101.695 38.563 101.002 39.3783C100.309 40.1937 99.4261 40.6557 98.3255 40.778C95.3223 41.1177 92.3192 41.471 89.3161 41.8515C89.751 45.2486 90.1722 48.6457 90.6071 52.0429C95.6349 51.4042 100.676 50.8335 105.731 50.3171C106.805 50.2084 107.756 50.4802 108.585 51.1324C109.414 51.7847 109.876 52.6408 109.971 53.6735C110.066 54.7198 109.781 55.6303 109.101 56.432C108.422 57.2337 107.552 57.6957 106.492 57.8044C94.0314 59.0682 81.5977 60.726 69.2048 62.7371L69.1912 62.7643Z" stroke="url(#paint1_linear_1345_300)" stroke-width="8.5" stroke-linecap="round" stroke-linejoin="round"/>
<path d="M122.514 61.2962C121.617 61.8261 120.666 61.9484 119.633 61.6902C118.6 61.4321 117.812 60.8478 117.268 59.9509C116.725 59.0541 116.589 58.0893 116.847 57.0837C117.119 56.0782 117.717 55.3036 118.641 54.7737C123.098 52.219 127.052 49.3382 130.477 46.1177C133.915 42.8973 136.741 39.5545 138.956 36.0486C139.69 34.9072 139.866 34.0783 139.486 33.5755C139.105 33.0727 138.249 32.8553 136.931 32.9097C132.352 33.1407 127.786 33.426 123.207 33.7522C122.133 33.8337 121.182 33.5211 120.326 32.8417C119.47 32.1487 119.008 31.3062 118.926 30.3007C118.845 29.2543 119.171 28.3303 119.918 27.5286C120.666 26.7133 121.576 26.2784 122.663 26.1969C127.433 25.8572 132.189 25.5582 136.958 25.3272C140.424 25.1506 143.114 25.6398 145.017 26.754C146.933 27.8683 147.992 29.4853 148.21 31.5644C148.441 33.6434 147.761 36.0622 146.212 38.8343C145.954 39.3371 145.655 39.8398 145.315 40.3562C144.976 40.8726 144.636 41.4025 144.283 41.9461C145.859 43.0875 147.435 44.3376 149.012 45.6965C150.574 47.0418 152.055 48.3599 153.455 49.6236C154.855 50.8873 156.037 52.0016 157.029 52.9664C157.776 53.673 158.157 54.5562 158.157 55.6162C158.157 56.6761 157.79 57.5865 157.043 58.3475C156.322 59.0812 155.425 59.4481 154.338 59.4617C153.251 59.4617 152.314 59.1356 151.526 58.4426C150.601 57.5186 149.474 56.4451 148.156 55.1949C146.824 53.9584 145.424 52.6674 143.943 51.3358C142.462 50.0041 140.994 48.7947 139.554 47.694C137.108 50.2894 134.39 52.7761 131.414 55.1677C128.425 57.5593 125.462 59.5976 122.514 61.2962Z" stroke="url(#paint2_linear_1345_300)" stroke-width="8.5" stroke-linecap="round" stroke-linejoin="round"/>
<path d="M174.626 63.0898C173.607 63.0898 172.724 62.7094 171.963 61.9756C171.202 61.2418 170.821 60.3449 170.835 59.3122C170.848 48.0609 170.876 36.8095 170.889 25.5582C170.889 24.5119 171.297 23.6151 172.099 22.8677C172.914 22.1203 173.852 21.7534 174.952 21.7534C176.08 21.7534 177.031 22.1475 177.806 22.9084C178.58 23.6694 178.961 24.5662 178.947 25.6126C178.893 29.3358 178.839 33.0455 178.798 36.7688C179.423 36.2252 180.17 35.8991 181.026 35.804C181.882 35.7089 182.698 35.8583 183.445 36.266C185.456 37.3259 187.386 38.4809 189.261 39.7447C191.136 41.0084 192.835 42.2993 194.343 43.5902C195.172 44.2697 195.593 45.1529 195.634 46.2128C195.675 47.2727 195.335 48.1968 194.629 48.9849C193.922 49.773 193.025 50.1943 191.925 50.2486C190.824 50.303 189.873 50.004 189.057 49.3246C188.133 48.5772 187.101 47.8027 185.959 46.9874C184.818 46.1721 183.69 45.4111 182.589 44.6773C181.488 43.9571 180.496 43.3592 179.613 42.8836C179.477 42.7885 179.341 42.6798 179.178 42.5575C179.029 42.4352 178.866 42.3129 178.703 42.177C178.621 47.8978 178.54 53.6186 178.458 59.3394C178.445 60.3857 178.064 61.269 177.303 61.9892C176.556 62.7094 175.645 63.0762 174.599 63.0627L174.626 63.0898Z" stroke="url(#paint3_linear_1345_300)" stroke-width="8.5" stroke-linecap="round" stroke-linejoin="round"/>
<path d="M232.542 66.7587C227.5 66.2424 223.464 65.5901 220.42 64.7476C217.377 63.9052 215.053 62.6958 213.449 61.0787C212.797 61.4592 212.023 61.9076 211.139 62.4104C210.256 62.9268 209.631 63.2937 209.25 63.5383C208.422 64.0139 207.511 64.1226 206.506 63.878C205.5 63.6334 204.766 63.0627 204.331 62.1658C203.883 61.2961 203.801 60.3993 204.1 59.5025C204.399 58.6056 204.997 57.9669 205.88 57.6001C206.329 57.3962 206.886 57.1652 207.579 56.8935C208.259 56.6217 208.938 56.3499 209.59 56.0646C209.808 52.7082 210.025 49.3654 210.229 46.009C210.283 45.2616 210.202 44.7589 210.011 44.5007C209.821 44.2425 209.332 44.093 208.557 44.0387C208.204 44.0115 207.851 43.9979 207.484 43.9707C206.465 43.9164 205.69 43.5495 205.147 42.9108C204.603 42.2586 204.359 41.5112 204.399 40.6687C204.44 39.8262 204.78 39.1196 205.391 38.5489C206.003 37.9782 206.832 37.72 207.864 37.7879C209.237 37.8695 210.609 37.951 211.982 38.0461C215.759 38.2907 217.499 40.2203 217.241 43.7669C216.928 47.9114 216.616 52.0559 216.317 56.2004C217.118 57.0429 218.083 57.7359 219.197 58.2931C220.312 58.8366 221.752 59.285 223.546 59.6383C225.34 59.9916 227.595 60.3314 230.34 60.6575C230.014 60.3042 229.742 59.8829 229.552 59.4209C229.362 58.9589 229.294 58.4425 229.348 57.8582C229.362 57.7088 229.375 57.5729 229.389 57.4234C226.236 57.1245 223.07 56.8391 219.904 56.5945C219.211 56.5401 218.627 56.2412 218.165 55.7248C217.703 55.1949 217.499 54.597 217.553 53.9176C217.608 53.2381 217.906 52.6674 218.436 52.219C218.98 51.7706 219.605 51.5803 220.312 51.6347C223.505 51.8929 226.685 52.1782 229.865 52.4772C229.905 51.988 229.96 51.4988 230 51.0232C227.772 50.8058 225.53 50.6019 223.301 50.4117C222.567 50.3438 221.956 50.0448 221.494 49.5013C221.032 48.9577 220.828 48.3327 220.882 47.6125C220.937 46.8923 221.236 46.3215 221.793 45.8731C222.336 45.4247 222.989 45.2345 223.736 45.3024C225.992 45.4926 228.248 45.6965 230.49 45.9139C230.503 45.7236 230.53 45.5198 230.544 45.3296C230.571 45.0035 230.653 44.7045 230.789 44.4191C228.057 44.161 225.326 43.9164 222.581 43.6854C221.834 43.6174 221.222 43.3321 220.76 42.8021C220.285 42.2722 220.081 41.6471 220.135 40.9405C220.189 40.2203 220.502 39.636 221.045 39.174C221.603 38.712 222.255 38.5081 223.002 38.5761C223.818 38.644 224.646 38.712 225.462 38.7799C225.353 38.5081 225.244 38.2364 225.149 37.9646C225.054 37.6928 224.973 37.4754 224.918 37.3123C224.782 36.8367 224.769 36.3883 224.878 35.9399C223.627 35.8312 222.364 35.7225 221.113 35.6273C220.352 35.573 219.741 35.2605 219.265 34.7169C218.79 34.1734 218.572 33.5483 218.627 32.8281C218.681 32.1079 218.98 31.5236 219.537 31.0888C220.094 30.6403 220.76 30.4501 221.521 30.5045C224.973 30.7762 228.424 31.0888 231.862 31.4149C231.903 30.9393 231.957 30.4773 231.998 30.0017C229.43 29.7571 226.861 29.5261 224.293 29.3087C223.532 29.2407 222.894 28.9418 222.404 28.3982C221.902 27.8547 221.684 27.216 221.739 26.5094C221.793 25.7892 222.119 25.2185 222.69 24.7701C223.274 24.3217 223.953 24.1314 224.714 24.1994C227.31 24.4168 229.892 24.6478 232.487 24.8924C232.501 24.7429 232.514 24.5934 232.528 24.4575C232.637 23.384 233.085 22.5823 233.9 22.0388C234.716 21.4952 235.653 21.2778 236.713 21.3865C237.8 21.4952 238.684 21.9029 239.363 22.5959C240.029 23.2889 240.314 24.1722 240.192 25.2457C240.178 25.3952 240.165 25.531 240.151 25.6805C242.828 25.9659 245.505 26.2784 248.169 26.5909C248.93 26.6861 249.568 27.0122 250.044 27.5557C250.519 28.1129 250.723 28.7379 250.628 29.4581C250.533 30.1647 250.193 30.749 249.595 31.1839C248.998 31.6187 248.318 31.7954 247.557 31.7003C244.907 31.3877 242.257 31.0752 239.594 30.7898C239.54 31.2654 239.499 31.7274 239.445 32.203C243.263 32.6107 247.095 33.0591 250.914 33.5347C251.674 33.6298 252.286 33.956 252.734 34.5131C253.183 35.0702 253.373 35.6953 253.278 36.4019C253.183 37.1085 252.843 37.6928 252.272 38.1276C251.688 38.5625 251.022 38.7391 250.275 38.644C248.712 38.4538 247.149 38.2635 245.6 38.0733C245.655 38.5353 245.546 38.9837 245.288 39.4186C245.206 39.568 245.084 39.7719 244.962 40.0164C244.826 40.261 244.676 40.5056 244.513 40.7502C245.437 40.8589 246.361 40.9677 247.285 41.0764C248.033 41.1715 248.644 41.4976 249.093 42.0683C249.541 42.639 249.718 43.2777 249.636 43.9843C249.541 44.6909 249.215 45.2616 248.644 45.6829C248.073 46.1041 247.421 46.2672 246.674 46.1857C243.779 45.8324 240.885 45.5062 237.977 45.1937C238.031 45.3296 238.045 45.4791 238.031 45.6421C238.018 45.8052 237.991 45.9682 237.977 46.1313C237.95 46.3215 237.936 46.5254 237.909 46.7156C240.206 46.9602 242.516 47.2184 244.812 47.4902C245.56 47.5717 246.157 47.8978 246.606 48.4414C247.054 48.9849 247.231 49.6236 247.149 50.3302C247.068 51.0368 246.728 51.6211 246.171 52.0559C245.6 52.4908 244.962 52.6674 244.214 52.5859C241.931 52.3141 239.648 52.0559 237.366 51.8113C237.311 52.3005 237.257 52.7897 237.202 53.2653C240.858 53.6594 244.5 54.0806 248.141 54.5426C248.848 54.6242 249.419 54.9503 249.854 55.4938C250.288 56.0374 250.465 56.6624 250.384 57.3419C250.302 58.0213 249.976 58.5648 249.405 58.9861C248.848 59.4073 248.223 59.5704 247.516 59.4889C243.902 59.0404 240.287 58.6192 236.659 58.2251C236.645 58.3746 236.632 58.5105 236.618 58.66C236.496 59.8286 235.98 60.6711 235.096 61.201C237.583 61.432 239.784 61.6359 241.7 61.7853C243.63 61.9484 245.315 62.0707 246.783 62.1522C247.883 62.193 248.753 62.5463 249.392 63.1985C250.03 63.8508 250.288 64.6525 250.166 65.5901C250.044 66.5277 249.65 67.2615 248.998 67.8051C248.345 68.3486 247.394 68.5389 246.157 68.3758C241.632 67.8051 237.094 67.2887 232.555 66.8267L232.542 66.7587ZM212.784 30.4909C212.485 30.1783 212.063 29.7435 211.506 29.1864C210.949 28.6292 210.392 28.0857 209.848 27.5422C209.305 26.9986 208.87 26.5909 208.53 26.3056C207.864 25.7077 207.552 24.9875 207.606 24.145C207.661 23.3025 208.014 22.5823 208.68 21.998C209.427 21.3865 210.283 21.0604 211.248 21.006C212.226 20.9517 213.083 21.2642 213.803 21.9301C214.102 22.1747 214.55 22.5823 215.148 23.153C215.746 23.7238 216.33 24.2809 216.901 24.8516C217.472 25.4223 217.893 25.8436 218.151 26.1153C218.871 26.822 219.17 27.6373 219.075 28.5341C218.966 29.4445 218.491 30.2055 217.648 30.8306C216.874 31.4013 216.031 31.6595 215.107 31.6323C214.183 31.6051 213.409 31.2247 212.756 30.4909H212.784ZM232.65 39.3914C234.213 39.5408 235.762 39.7039 237.325 39.867C237.542 39.5001 237.76 39.0652 238.004 38.5625C238.249 38.0597 238.48 37.6113 238.697 37.2036C236.401 36.959 234.091 36.728 231.794 36.497C231.93 36.9318 232.08 37.421 232.256 37.9646C232.433 38.5081 232.569 38.9837 232.664 39.3778L232.65 39.3914Z" stroke="url(#paint4_linear_1345_300)" stroke-width="8.5" stroke-linecap="round" stroke-linejoin="round"/>
<path d="M256.186 69.5989C255.371 69.0553 254.868 68.308 254.705 67.3432C254.542 66.3784 254.746 65.5087 255.316 64.7342C256.947 62.628 258.374 60.0733 259.597 57.0838C260.806 54.0943 261.757 50.3303 262.423 45.7781C262.532 45.0579 262.641 44.3242 262.736 43.604C263.103 41.0493 263.796 39.1197 264.815 37.8016C265.834 36.4835 267.247 35.6546 269.041 35.3285C270.835 34.9888 273.077 35.0432 275.727 35.478C278.363 35.9128 280.999 36.3612 283.635 36.8233C283.853 35.0024 284.124 33.1679 284.45 31.3063C284.641 30.2192 285.143 29.4447 285.959 28.9963C286.774 28.5478 287.725 28.4255 288.812 28.6158C289.859 28.806 290.701 29.2408 291.326 29.9067C291.965 30.5725 292.155 31.5101 291.924 32.7331C291.707 33.6571 291.53 34.5676 291.381 35.4644C291.231 36.3612 291.082 37.2717 290.946 38.1685C293.202 38.5898 295.444 39.0382 297.699 39.4866C297.659 39.4323 297.618 39.3643 297.577 39.31C297.387 39.0382 297.115 38.6849 296.775 38.2501C296.436 37.8152 296.096 37.3804 295.77 36.932C295.444 36.4835 295.199 36.1574 295.022 35.9672C294.479 35.3013 294.275 34.5404 294.438 33.7115C294.601 32.8826 295.036 32.2167 295.743 31.7275C296.49 31.2112 297.333 31.0074 298.27 31.1297C299.208 31.252 299.996 31.6596 300.648 32.3526C301.029 32.7603 301.518 33.3038 302.075 33.9968C302.646 34.6763 303.121 35.2878 303.502 35.8449C304.127 36.6738 304.317 37.5299 304.1 38.3995C303.882 39.2692 303.366 39.935 302.551 40.3971C302.51 40.4242 302.469 40.4514 302.428 40.4786C303.067 40.6145 303.692 40.7368 304.331 40.8727C305.431 41.1037 306.233 41.5929 306.736 42.3402C307.239 43.0876 307.388 43.9165 307.184 44.8405C306.981 45.7645 306.505 46.4711 305.744 46.9603C304.983 47.4495 304.059 47.5718 302.972 47.3408C298.719 46.444 294.452 45.5879 290.171 44.7726C289.886 49.0666 289.995 52.8849 290.484 56.2413C292.264 54.1895 293.84 51.9745 295.199 49.5829C295.661 48.6725 296.368 48.1018 297.333 47.8708C298.297 47.6398 299.235 47.7756 300.159 48.292C301.015 48.7676 301.586 49.4063 301.871 50.2216C302.157 51.0369 302.034 51.893 301.491 52.817C300.268 54.964 298.922 56.9887 297.455 58.8911C295.987 60.8071 294.384 62.56 292.658 64.1771C292.971 64.8701 293.283 65.5223 293.623 66.1474C293.963 66.7589 294.343 67.3704 294.764 67.9547C295.172 68.471 295.498 68.7156 295.743 68.702C295.987 68.6884 296.286 68.4167 296.626 67.8867C296.735 67.7101 296.857 67.5063 296.979 67.2888C297.115 67.0714 297.224 66.8676 297.333 66.6909C297.89 65.8349 298.624 65.3185 299.548 65.1282C300.472 64.938 301.355 65.0875 302.225 65.5767C303.149 66.1066 303.706 66.8132 303.91 67.6693C304.113 68.539 303.991 69.3543 303.556 70.1152C303.312 70.5908 303.04 71.0665 302.754 71.5421C302.469 72.0177 302.089 72.5884 301.64 73.2542C299.656 76.2301 297.577 77.5754 295.335 77.29C293.107 77.0047 291 75.4284 289.003 72.534C288.609 71.9633 288.228 71.3382 287.861 70.686C287.494 70.0337 287.141 69.3543 286.801 68.6613C284.124 70.3734 281.298 71.7187 278.308 72.7107C277.344 73.0368 276.42 73.0096 275.536 72.6156C274.653 72.2351 274.001 71.5692 273.593 70.6452C273.213 69.7212 273.226 68.8379 273.634 67.9954C274.042 67.1529 274.721 66.5822 275.645 66.2833C277.235 65.7261 278.757 65.0739 280.224 64.3129C281.692 63.552 283.092 62.6959 284.437 61.7447C283.798 59.1085 283.35 56.2549 283.105 53.1975C282.861 50.1401 282.833 46.8788 283.024 43.4409C280.292 42.9517 277.561 42.4897 274.83 42.0413C273.457 41.8103 272.397 41.8782 271.623 42.2179C270.848 42.5576 270.345 43.4953 270.101 45.0443C270.101 45.0715 270.101 45.1123 270.087 45.1395C271.568 45.3705 273.036 45.6151 274.517 45.8597C277.167 46.2945 278.974 47.1234 279.939 48.292C280.904 49.4742 281.094 51.2815 280.523 53.7274C280.265 55.0048 279.939 56.3229 279.572 57.6545C279.192 58.9998 278.77 60.25 278.295 61.4322C277.425 63.6607 276.243 65.1011 274.735 65.7533C273.24 66.4056 271.528 66.6094 269.612 66.3648C268.552 66.2289 267.655 65.8484 266.907 65.237C266.16 64.6255 265.807 63.7558 265.847 62.6415C265.875 61.5952 266.201 60.7663 266.812 60.1684C267.437 59.5705 268.171 59.2716 269.014 59.2852C270.074 59.2852 270.78 59.19 271.161 58.9862C271.541 58.7824 271.867 58.2932 272.166 57.5187C272.533 56.5539 272.873 55.426 273.185 54.1215C273.389 53.2654 273.362 52.6675 273.09 52.3414C272.819 52.0153 272.248 51.7843 271.365 51.6348C270.576 51.5125 269.788 51.3766 269 51.2543C268.144 55.1135 267.098 58.4291 265.847 61.2147C264.597 63.9868 263.143 66.4735 261.472 68.6613C260.847 69.4902 260.018 70.0065 258.985 70.224C257.952 70.4414 257.001 70.224 256.132 69.6125L256.186 69.5989Z" stroke="url(#paint5_linear_1345_300)" stroke-width="8.5" stroke-linecap="round" stroke-linejoin="round"/>
<path d="M310.256 76.7735C309.155 76.5153 308.313 75.931 307.715 75.007C307.117 74.083 306.94 73.091 307.185 72.0039C307.429 70.9169 308.014 70.088 308.965 69.5172C309.902 68.9465 310.935 68.7835 312.049 69.0552C313.164 69.3134 314.033 69.9113 314.631 70.8489C315.243 71.7865 315.406 72.7921 315.148 73.8656C314.889 74.9391 314.278 75.768 313.327 76.3251C312.376 76.8822 311.343 77.0317 310.242 76.7735H310.256ZM312.756 66.256C311.18 65.8891 310.568 64.6661 310.949 62.5735C312.022 56.7576 313.082 50.9553 314.128 45.1393C314.509 42.9924 315.841 42.1634 318.137 42.6934C320.529 43.2505 321.426 44.5958 320.814 46.6884C319.184 52.3685 317.566 58.0485 315.963 63.7421C315.379 65.7804 314.305 66.6093 312.756 66.256Z" stroke="url(#paint6_linear_1345_300)" stroke-width="8.5" stroke-linecap="round" stroke-linejoin="round"/>
<g filter="url(#filter1_d_1345_300)">
<path d="M30.9663 78.1048C30.1103 78.7027 29.1726 78.9337 28.1399 78.7843C27.1071 78.6484 26.2646 78.1592 25.626 77.3439C24.9873 76.5286 24.7427 75.5909 24.9058 74.5446C25.0688 73.4983 25.5716 72.6558 26.4277 72.0172C35.967 65.0055 42.3537 56.9203 45.4519 47.4354C46.0362 45.5602 45.2617 44.8264 43.1147 45.2613C41.0764 45.6689 39.0381 46.0902 36.9997 46.5114C35.8311 48.8894 34.4722 51.2266 32.9367 53.5095C31.4012 55.806 29.7162 57.9394 27.8953 59.9233C27.1615 60.6979 26.2511 61.1191 25.164 61.1871C24.0769 61.255 23.1257 60.9561 22.2967 60.2766C21.495 59.5972 21.0738 58.7275 21.0058 57.6676C20.9515 56.6077 21.2776 55.6837 22.025 54.9092C23.5469 53.3736 25.0009 51.5935 26.4005 49.5553C27.8002 47.517 29.0367 45.3972 30.0967 43.2094C31.1566 41.0216 31.9311 38.9426 32.4068 36.9722C32.6513 35.9531 33.2628 35.1514 34.2276 34.5671C35.1924 33.9828 36.2252 33.8061 37.3123 34.0507C38.3994 34.2545 39.2555 34.7981 39.8806 35.6541C40.5056 36.5102 40.6551 37.4343 40.3562 38.4262C41.2122 38.2496 42.0819 38.0865 42.938 37.9099C45.9004 37.3255 48.292 37.3935 50.0857 38.1001C51.893 38.8067 53.0616 40.0433 53.6188 41.7962C54.1623 43.5491 54.0536 45.7097 53.3062 48.2643C52.1919 52.0556 50.4933 55.7788 48.2648 59.4613C46.0362 63.1438 43.4408 66.5681 40.492 69.7615C37.5433 72.9548 34.3771 75.7268 30.9799 78.0777L30.9663 78.1048Z" fill="url(#paint7_linear_1345_300)"/>
<path d="M69.1912 62.7628C68.1721 62.9259 67.2209 62.722 66.3376 62.1241C65.4543 61.5262 64.9244 60.7109 64.7477 59.6918C64.5711 58.659 64.8021 57.7214 65.4543 56.8654C66.093 56.0093 66.9491 55.5065 67.9818 55.3298C72.9281 54.5281 77.888 53.7808 82.8479 53.0877C82.3723 49.6906 81.9103 46.307 81.4347 42.9099C78.418 43.3311 75.4013 43.766 72.3982 44.228C71.3111 44.3911 70.3191 44.1736 69.4222 43.5757C68.5254 42.9778 67.9954 42.1625 67.8323 41.1298C67.6693 40.0971 67.9139 39.1595 68.5933 38.3034C69.2727 37.4473 70.156 36.9445 71.2567 36.7679C79.9807 35.4362 88.7182 34.2676 97.483 33.2892C98.5836 33.1669 99.5756 33.4251 100.432 34.0773C101.288 34.7296 101.763 35.5721 101.872 36.6048C101.981 37.6375 101.695 38.5616 101.002 39.3769C100.309 40.1922 99.4261 40.6542 98.3255 40.7765C95.3223 41.1162 92.3192 41.4695 89.3161 41.85C89.751 45.2471 90.1722 48.6443 90.6071 52.0414C95.6349 51.4028 100.676 50.832 105.731 50.3157C106.805 50.207 107.756 50.4787 108.585 51.131C109.414 51.7832 109.876 52.6393 109.971 53.672C110.066 54.7184 109.781 55.6288 109.101 56.4305C108.422 57.2322 107.552 57.6943 106.492 57.803C94.0314 59.0667 81.5977 60.7245 69.2048 62.7356L69.1912 62.7628Z" fill="url(#paint8_linear_1345_300)"/>
<path d="M122.514 61.2957C121.617 61.8256 120.666 61.9479 119.633 61.6898C118.6 61.4316 117.812 60.8473 117.268 59.9504C116.725 59.0536 116.589 58.0888 116.847 57.0832C117.119 56.0777 117.717 55.3031 118.641 54.7732C123.098 52.2185 127.052 49.3377 130.477 46.1173C133.915 42.8968 136.741 39.554 138.956 36.0481C139.69 34.9067 139.866 34.0778 139.486 33.575C139.105 33.0722 138.249 32.8548 136.931 32.9092C132.352 33.1402 127.786 33.4255 123.207 33.7517C122.133 33.8332 121.182 33.5207 120.326 32.8412C119.47 32.1482 119.008 31.3057 118.926 30.3002C118.845 29.2538 119.171 28.3298 119.918 27.5281C120.666 26.7128 121.576 26.2779 122.663 26.1964C127.433 25.8567 132.189 25.5578 136.958 25.3267C140.424 25.1501 143.114 25.6393 145.017 26.7536C146.933 27.8678 147.992 29.4849 148.21 31.5639C148.441 33.643 147.761 36.0617 146.212 38.8338C145.954 39.3366 145.655 39.8393 145.315 40.3557C144.976 40.8721 144.636 41.402 144.283 41.9456C145.859 43.087 147.435 44.3372 149.012 45.696C150.574 47.0413 152.055 48.3594 153.455 49.6231C154.855 50.8868 156.037 52.0011 157.029 52.9659C157.776 53.6725 158.157 54.5558 158.157 55.6157C158.157 56.6756 157.79 57.586 157.043 58.347C156.322 59.0807 155.425 59.4476 154.338 59.4612C153.251 59.4612 152.314 59.1351 151.526 58.4421C150.601 57.5181 149.474 56.4446 148.156 55.1944C146.824 53.9579 145.424 52.6669 143.943 51.3353C142.462 50.0036 140.994 48.7942 139.554 47.6935C137.108 50.2889 134.39 52.7757 131.414 55.1672C128.425 57.5588 125.462 59.5971 122.514 61.2957Z" fill="url(#paint9_linear_1345_300)"/>
<path d="M174.626 63.0898C173.607 63.0898 172.724 62.7094 171.963 61.9756C171.202 61.2418 170.821 60.3449 170.835 59.3122C170.848 48.0609 170.876 36.8095 170.889 25.5582C170.889 24.5119 171.297 23.6151 172.099 22.8677C172.914 22.1203 173.852 21.7534 174.952 21.7534C176.08 21.7534 177.031 22.1475 177.806 22.9084C178.58 23.6694 178.961 24.5662 178.947 25.6126C178.893 29.3358 178.839 33.0455 178.798 36.7688C179.423 36.2252 180.17 35.8991 181.026 35.804C181.882 35.7089 182.698 35.8583 183.445 36.266C185.456 37.3259 187.386 38.4809 189.261 39.7447C191.136 41.0084 192.835 42.2993 194.343 43.5902C195.172 44.2697 195.593 45.1529 195.634 46.2128C195.675 47.2727 195.335 48.1968 194.629 48.9849C193.922 49.773 193.025 50.1943 191.925 50.2486C190.824 50.303 189.873 50.004 189.057 49.3246C188.133 48.5772 187.101 47.8027 185.959 46.9874C184.818 46.1721 183.69 45.4111 182.589 44.6773C181.488 43.9571 180.496 43.3592 179.613 42.8836C179.477 42.7885 179.341 42.6798 179.178 42.5575C179.029 42.4352 178.866 42.3129 178.703 42.177C178.621 47.8978 178.54 53.6186 178.458 59.3394C178.445 60.3857 178.064 61.269 177.303 61.9892C176.556 62.7094 175.645 63.0762 174.599 63.0627L174.626 63.0898Z" fill="url(#paint10_linear_1345_300)"/>
<path d="M232.542 66.7587C227.5 66.2424 223.464 65.5901 220.42 64.7476C217.377 63.9052 215.053 62.6958 213.449 61.0787C212.797 61.4592 212.023 61.9076 211.139 62.4104C210.256 62.9268 209.631 63.2937 209.25 63.5383C208.422 64.0139 207.511 64.1226 206.506 63.878C205.5 63.6334 204.766 63.0627 204.331 62.1658C203.883 61.2961 203.801 60.3993 204.1 59.5025C204.399 58.6056 204.997 57.9669 205.88 57.6001C206.329 57.3962 206.886 57.1652 207.579 56.8935C208.259 56.6217 208.938 56.3499 209.59 56.0646C209.808 52.7082 210.025 49.3654 210.229 46.009C210.283 45.2616 210.202 44.7589 210.011 44.5007C209.821 44.2425 209.332 44.093 208.557 44.0387C208.204 44.0115 207.851 43.9979 207.484 43.9707C206.465 43.9164 205.69 43.5495 205.147 42.9108C204.603 42.2586 204.359 41.5112 204.399 40.6687C204.44 39.8262 204.78 39.1196 205.391 38.5489C206.003 37.9782 206.832 37.72 207.864 37.7879C209.237 37.8695 210.609 37.951 211.982 38.0461C215.759 38.2907 217.499 40.2203 217.241 43.7669C216.928 47.9114 216.616 52.0559 216.317 56.2004C217.118 57.0429 218.083 57.7359 219.197 58.2931C220.312 58.8366 221.752 59.285 223.546 59.6383C225.34 59.9916 227.595 60.3314 230.34 60.6575C230.014 60.3042 229.742 59.8829 229.552 59.4209C229.362 58.9589 229.294 58.4426 229.348 57.8582C229.362 57.7088 229.375 57.5729 229.389 57.4234C226.236 57.1245 223.07 56.8391 219.904 56.5945C219.211 56.5401 218.627 56.2412 218.165 55.7248C217.703 55.1949 217.499 54.597 217.553 53.9176C217.608 53.2381 217.906 52.6674 218.436 52.219C218.98 51.7706 219.605 51.5803 220.312 51.6347C223.505 51.8929 226.685 52.1782 229.865 52.4772C229.905 51.988 229.96 51.4988 230 51.0232C227.772 50.8058 225.53 50.6019 223.301 50.4117C222.567 50.3438 221.956 50.0448 221.494 49.5013C221.032 48.9577 220.828 48.3327 220.882 47.6125C220.937 46.8923 221.236 46.3215 221.793 45.8731C222.336 45.4247 222.989 45.2345 223.736 45.3024C225.992 45.4926 228.248 45.6965 230.49 45.9139C230.503 45.7236 230.53 45.5198 230.544 45.3296C230.571 45.0035 230.653 44.7045 230.789 44.4191C228.057 44.161 225.326 43.9164 222.581 43.6854C221.834 43.6174 221.222 43.3321 220.76 42.8021C220.285 42.2722 220.081 41.6471 220.135 40.9405C220.189 40.2203 220.502 39.636 221.045 39.174C221.603 38.712 222.255 38.5081 223.002 38.5761C223.818 38.644 224.646 38.712 225.462 38.7799C225.353 38.5081 225.244 38.2364 225.149 37.9646C225.054 37.6928 224.973 37.4754 224.918 37.3123C224.782 36.8367 224.769 36.3883 224.878 35.9399C223.627 35.8312 222.364 35.7225 221.113 35.6273C220.352 35.573 219.741 35.2605 219.265 34.7169C218.79 34.1734 218.572 33.5483 218.627 32.8281C218.681 32.1079 218.98 31.5236 219.537 31.0888C220.094 30.6403 220.76 30.4501 221.521 30.5044C224.973 30.7762 228.424 31.0888 231.862 31.4149C231.903 30.9393 231.957 30.4773 231.998 30.0017C229.43 29.7571 226.861 29.5261 224.293 29.3087C223.532 29.2407 222.894 28.9418 222.404 28.3982C221.902 27.8547 221.684 27.216 221.739 26.5094C221.793 25.7892 222.119 25.2185 222.69 24.7701C223.274 24.3217 223.953 24.1314 224.714 24.1994C227.31 24.4168 229.892 24.6478 232.487 24.8924C232.501 24.7429 232.514 24.5934 232.528 24.4575C232.637 23.384 233.085 22.5823 233.9 22.0388C234.716 21.4952 235.653 21.2778 236.713 21.3865C237.8 21.4952 238.684 21.9029 239.363 22.5959C240.029 23.2889 240.314 24.1722 240.192 25.2457C240.178 25.3952 240.165 25.531 240.151 25.6805C242.828 25.9659 245.505 26.2784 248.169 26.5909C248.93 26.6861 249.568 27.0122 250.044 27.5557C250.519 28.1129 250.723 28.7379 250.628 29.4581C250.533 30.1647 250.193 30.749 249.595 31.1839C248.998 31.6187 248.318 31.7954 247.557 31.7003C244.907 31.3877 242.257 31.0752 239.594 30.7898C239.54 31.2654 239.499 31.7274 239.445 32.203C243.263 32.6107 247.095 33.0591 250.914 33.5347C251.674 33.6298 252.286 33.956 252.734 34.5131C253.183 35.0702 253.373 35.6953 253.278 36.4019C253.183 37.1085 252.843 37.6928 252.272 38.1276C251.688 38.5625 251.022 38.7391 250.275 38.644C248.712 38.4538 247.149 38.2635 245.6 38.0733C245.655 38.5353 245.546 38.9837 245.288 39.4186C245.206 39.568 245.084 39.7719 244.962 40.0164C244.826 40.261 244.676 40.5056 244.513 40.7502C245.437 40.8589 246.361 40.9677 247.285 41.0764C248.033 41.1715 248.644 41.4976 249.093 42.0683C249.541 42.639 249.718 43.2777 249.636 43.9843C249.541 44.6909 249.215 45.2616 248.644 45.6829C248.073 46.1041 247.421 46.2672 246.674 46.1857C243.779 45.8324 240.885 45.5062 237.977 45.1937C238.031 45.3296 238.045 45.4791 238.031 45.6421C238.018 45.8052 237.991 45.9682 237.977 46.1313C237.95 46.3215 237.936 46.5254 237.909 46.7156C240.206 46.9602 242.516 47.2184 244.812 47.4902C245.56 47.5717 246.157 47.8978 246.606 48.4414C247.054 48.9849 247.231 49.6236 247.149 50.3302C247.068 51.0368 246.728 51.6211 246.171 52.0559C245.6 52.4908 244.962 52.6674 244.214 52.5859C241.931 52.3141 239.648 52.0559 237.366 51.8113C237.311 52.3005 237.257 52.7897 237.202 53.2653C240.858 53.6594 244.5 54.0806 248.141 54.5426C248.848 54.6242 249.419 54.9503 249.854 55.4938C250.288 56.0374 250.465 56.6624 250.384 57.3419C250.302 58.0213 249.976 58.5648 249.405 58.9861C248.848 59.4073 248.223 59.5704 247.516 59.4889C243.902 59.0404 240.287 58.6192 236.659 58.2251C236.645 58.3746 236.632 58.5105 236.618 58.66C236.496 59.8286 235.98 60.6711 235.096 61.201C237.583 61.432 239.784 61.6359 241.7 61.7853C243.63 61.9484 245.315 62.0707 246.783 62.1522C247.883 62.193 248.753 62.5463 249.392 63.1985C250.03 63.8508 250.288 64.6525 250.166 65.5901C250.044 66.5277 249.65 67.2615 248.998 67.8051C248.345 68.3486 247.394 68.5389 246.157 68.3758C241.632 67.8051 237.094 67.2887 232.555 66.8267L232.542 66.7587ZM212.784 30.4909C212.485 30.1783 212.063 29.7435 211.506 29.1864C210.949 28.6292 210.392 28.0857 209.848 27.5422C209.305 26.9986 208.87 26.5909 208.53 26.3056C207.864 25.7077 207.552 24.9875 207.606 24.145C207.661 23.3025 208.014 22.5823 208.68 21.998C209.427 21.3865 210.283 21.0604 211.248 21.006C212.226 20.9517 213.083 21.2642 213.803 21.9301C214.102 22.1747 214.55 22.5823 215.148 23.153C215.746 23.7238 216.33 24.2809 216.901 24.8516C217.472 25.4223 217.893 25.8436 218.151 26.1153C218.871 26.822 219.17 27.6373 219.075 28.5341C218.966 29.4445 218.491 30.2055 217.648 30.8306C216.874 31.4013 216.031 31.6595 215.107 31.6323C214.183 31.6051 213.409 31.2247 212.756 30.4909H212.784ZM232.65 39.3914C234.213 39.5408 235.762 39.7039 237.325 39.867C237.542 39.5001 237.76 39.0652 238.004 38.5625C238.249 38.0597 238.48 37.6113 238.697 37.2036C236.401 36.959 234.091 36.728 231.794 36.497C231.93 36.9318 232.08 37.421 232.256 37.9646C232.433 38.5081 232.569 38.9837 232.664 39.3778L232.65 39.3914Z" fill="url(#paint11_linear_1345_300)"/>
<path d="M256.186 69.5989C255.371 69.0553 254.868 68.308 254.705 67.3432C254.542 66.3784 254.746 65.5087 255.316 64.7342C256.947 62.6279 258.374 60.0733 259.597 57.0838C260.806 54.0943 261.757 50.3303 262.423 45.7781C262.532 45.0579 262.641 44.3242 262.736 43.604C263.103 41.0493 263.796 39.1197 264.815 37.8016C265.834 36.4835 267.247 35.6546 269.041 35.3285C270.835 34.9888 273.077 35.0432 275.727 35.478C278.363 35.9128 280.999 36.3612 283.635 36.8233C283.853 35.0024 284.124 33.1679 284.45 31.3063C284.641 30.2192 285.143 29.4447 285.959 28.9963C286.774 28.5478 287.725 28.4255 288.812 28.6158C289.859 28.806 290.701 29.2408 291.326 29.9067C291.965 30.5725 292.155 31.5101 291.924 32.7331C291.707 33.6571 291.53 34.5676 291.381 35.4644C291.231 36.3612 291.082 37.2717 290.946 38.1685C293.202 38.5898 295.444 39.0382 297.699 39.4866C297.659 39.4323 297.618 39.3643 297.577 39.31C297.387 39.0382 297.115 38.6849 296.775 38.2501C296.436 37.8152 296.096 37.3804 295.77 36.932C295.444 36.4835 295.199 36.1574 295.022 35.9672C294.479 35.3013 294.275 34.5404 294.438 33.7115C294.601 32.8826 295.036 32.2167 295.743 31.7275C296.49 31.2112 297.333 31.0074 298.27 31.1297C299.208 31.252 299.996 31.6596 300.648 32.3526C301.029 32.7603 301.518 33.3038 302.075 33.9968C302.646 34.6763 303.121 35.2878 303.502 35.8449C304.127 36.6738 304.317 37.5299 304.1 38.3995C303.882 39.2692 303.366 39.935 302.551 40.3971C302.51 40.4242 302.469 40.4514 302.428 40.4786C303.067 40.6145 303.692 40.7368 304.331 40.8727C305.431 41.1037 306.233 41.5929 306.736 42.3402C307.239 43.0876 307.388 43.9165 307.184 44.8405C306.981 45.7645 306.505 46.4711 305.744 46.9603C304.983 47.4495 304.059 47.5718 302.972 47.3408C298.719 46.444 294.452 45.5879 290.171 44.7726C289.886 49.0666 289.995 52.8849 290.484 56.2413C292.264 54.1894 293.84 51.9745 295.199 49.5829C295.661 48.6725 296.368 48.1018 297.333 47.8708C298.297 47.6398 299.235 47.7756 300.159 48.292C301.015 48.7676 301.586 49.4063 301.871 50.2216C302.157 51.0369 302.034 51.893 301.491 52.817C300.268 54.964 298.922 56.9887 297.455 58.8911C295.987 60.8071 294.384 62.56 292.658 64.1771C292.971 64.8701 293.283 65.5223 293.623 66.1474C293.963 66.7589 294.343 67.3704 294.764 67.9547C295.172 68.471 295.498 68.7156 295.743 68.702C295.987 68.6884 296.286 68.4167 296.626 67.8867C296.735 67.7101 296.857 67.5063 296.979 67.2888C297.115 67.0714 297.224 66.8676 297.333 66.6909C297.89 65.8349 298.624 65.3185 299.548 65.1282C300.472 64.938 301.355 65.0875 302.225 65.5767C303.149 66.1066 303.706 66.8132 303.91 67.6693C304.113 68.539 303.991 69.3543 303.556 70.1152C303.312 70.5909 303.04 71.0665 302.754 71.5421C302.469 72.0177 302.089 72.5884 301.64 73.2542C299.656 76.2301 297.577 77.5754 295.335 77.29C293.107 77.0047 291 75.4284 289.003 72.534C288.609 71.9633 288.228 71.3382 287.861 70.686C287.494 70.0337 287.141 69.3543 286.801 68.6613C284.124 70.3734 281.298 71.7187 278.308 72.7107C277.344 73.0368 276.42 73.0096 275.536 72.6156C274.653 72.2351 274.001 71.5692 273.593 70.6452C273.213 69.7212 273.226 68.8379 273.634 67.9954C274.042 67.1529 274.721 66.5822 275.645 66.2833C277.235 65.7261 278.757 65.0739 280.224 64.3129C281.692 63.552 283.092 62.6959 284.437 61.7447C283.798 59.1085 283.35 56.2549 283.105 53.1975C282.861 50.1401 282.833 46.8788 283.024 43.4409C280.292 42.9517 277.561 42.4897 274.83 42.0413C273.457 41.8103 272.397 41.8782 271.623 42.2179C270.848 42.5576 270.345 43.4953 270.101 45.0443C270.101 45.0715 270.101 45.1123 270.087 45.1395C271.568 45.3705 273.036 45.6151 274.517 45.8597C277.167 46.2945 278.974 47.1234 279.939 48.292C280.904 49.4742 281.094 51.2815 280.523 53.7274C280.265 55.0048 279.939 56.3229 279.572 57.6545C279.192 58.9998 278.77 60.25 278.295 61.4322C277.425 63.6607 276.243 65.1011 274.735 65.7533C273.24 66.4056 271.528 66.6094 269.612 66.3648C268.552 66.2289 267.655 65.8484 266.907 65.237C266.16 64.6255 265.807 63.7558 265.847 62.6415C265.875 61.5952 266.201 60.7663 266.812 60.1684C267.437 59.5705 268.171 59.2716 269.014 59.2852C270.074 59.2852 270.78 59.19 271.161 58.9862C271.541 58.7824 271.867 58.2932 272.166 57.5187C272.533 56.5539 272.873 55.426 273.185 54.1215C273.389 53.2654 273.362 52.6675 273.09 52.3414C272.819 52.0153 272.248 51.7843 271.365 51.6348C270.576 51.5125 269.788 51.3766 269 51.2543C268.144 55.1135 267.098 58.4291 265.847 61.2147C264.597 63.9868 263.143 66.4735 261.472 68.6613C260.847 69.4902 260.018 70.0065 258.985 70.224C257.952 70.4414 257.001 70.224 256.132 69.6125L256.186 69.5989Z" fill="url(#paint12_linear_1345_300)"/>
<path d="M310.256 76.774C309.155 76.5158 308.313 75.9315 307.715 75.0075C307.117 74.0835 306.94 73.0915 307.185 72.0044C307.429 70.9173 308.014 70.0884 308.965 69.5177C309.902 68.947 310.935 68.7839 312.049 69.0557C313.164 69.3139 314.033 69.9118 314.631 70.8494C315.243 71.787 315.406 72.7926 315.148 73.8661C314.889 74.9396 314.278 75.7685 313.327 76.3256C312.376 76.8827 311.343 77.0322 310.242 76.774H310.256ZM312.756 66.2565C311.18 65.8896 310.568 64.6666 310.949 62.574C312.022 56.7581 313.082 50.9557 314.128 45.1398C314.509 42.9928 315.841 42.1639 318.137 42.6939C320.529 43.251 321.426 44.5963 320.814 46.6889C319.184 52.369 317.566 58.049 315.963 63.7426C315.379 65.7809 314.305 66.6098 312.756 66.2565Z" fill="url(#paint13_linear_1345_300)"/>
</g>
</g>
<defs>
<filter id="filter0_d_1345_300" x="0.75" y="0.75" width="340.499" height="98.3291" filterUnits="userSpaceOnUse" color-interpolation-filters="sRGB">
<feFlood flood-opacity="0" result="BackgroundImageFix"/>
<feColorMatrix in="SourceAlpha" type="matrix" values="0 0 0 0 0 0 0 0 0 0 0 0 0 0 0 0 0 0 127 0" result="hardAlpha"/>
<feOffset/>
<feGaussianBlur stdDeviation="8"/>
<feComposite in2="hardAlpha" operator="out"/>
<feColorMatrix type="matrix" values="0 0 0 0 0.945098 0 0 0 0 0.854902 0 0 0 0 0.415686 0 0 0 0.5 0"/>
<feBlend mode="normal" in2="BackgroundImageFix" result="effect1_dropShadow_1345_300"/>
<feBlend mode="normal" in="SourceGraphic" in2="effect1_dropShadow_1345_300" result="shape"/>
</filter>
<filter id="filter1_d_1345_300" x="19" y="19" width="304" height="61.8286" filterUnits="userSpaceOnUse" color-interpolation-filters="sRGB">
<feFlood flood-opacity="0" result="BackgroundImageFix"/>
<feColorMatrix in="SourceAlpha" type="matrix" values="0 0 0 0 0 0 0 0 0 0 0 0 0 0 0 0 0 0 127 0" result="hardAlpha"/>
<feOffset/>
<feGaussianBlur stdDeviation="1"/>
<feComposite in2="hardAlpha" operator="out"/>
<feColorMatrix type="matrix" values="0 0 0 0 0.266667 0 0 0 0 0.266667 0 0 0 0 0.266667 0 0 0 0.25 0"/>
<feBlend mode="normal" in2="BackgroundImageFix" result="effect1_dropShadow_1345_300"/>
<feBlend mode="normal" in="SourceGraphic" in2="effect1_dropShadow_1345_300" result="shape"/>
</filter>
<linearGradient id="paint0_linear_1345_300" x1="170.985" y1="78.8255" x2="170.985" y2="21.0062" gradientUnits="userSpaceOnUse">
<stop stop-color="#D49E19"/>
<stop offset="1" stop-color="#F4D967"/>
</linearGradient>
<linearGradient id="paint1_linear_1345_300" x1="170.984" y1="78.8259" x2="170.984" y2="21.0066" gradientUnits="userSpaceOnUse">
<stop stop-color="#D49E19"/>
<stop offset="1" stop-color="#F4D967"/>
</linearGradient>
<linearGradient id="paint2_linear_1345_300" x1="170.985" y1="78.8254" x2="170.985" y2="21.0061" gradientUnits="userSpaceOnUse">
<stop stop-color="#D49E19"/>
<stop offset="1" stop-color="#F4D967"/>
</linearGradient>
<linearGradient id="paint3_linear_1345_300" x1="170.984" y1="78.8254" x2="170.984" y2="21.006" gradientUnits="userSpaceOnUse">
<stop stop-color="#D49E19"/>
<stop offset="1" stop-color="#F4D967"/>
</linearGradient>
<linearGradient id="paint4_linear_1345_300" x1="170.985" y1="78.8254" x2="170.985" y2="21.006" gradientUnits="userSpaceOnUse">
<stop stop-color="#D49E19"/>
<stop offset="1" stop-color="#F4D967"/>
</linearGradient>
<linearGradient id="paint5_linear_1345_300" x1="170.985" y1="78.8255" x2="170.985" y2="21.0062" gradientUnits="userSpaceOnUse">
<stop stop-color="#D49E19"/>
<stop offset="1" stop-color="#F4D967"/>
</linearGradient>
<linearGradient id="paint6_linear_1345_300" x1="170.985" y1="78.8254" x2="170.985" y2="21.006" gradientUnits="userSpaceOnUse">
<stop stop-color="#D49E19"/>
<stop offset="1" stop-color="#F4D967"/>
</linearGradient>
<linearGradient id="paint7_linear_1345_300" x1="78.7307" y1="-14.4061" x2="294.993" y2="157.777" gradientUnits="userSpaceOnUse">
<stop stop-color="#FAFAF8"/>
<stop offset="1" stop-color="#FAFAF8"/>
</linearGradient>
<linearGradient id="paint8_linear_1345_300" x1="78.7305" y1="-14.4067" x2="294.993" y2="157.777" gradientUnits="userSpaceOnUse">
<stop stop-color="#FAFAF8"/>
<stop offset="1" stop-color="#FAFAF8"/>
</linearGradient>
<linearGradient id="paint9_linear_1345_300" x1="78.7307" y1="-14.4062" x2="294.993" y2="157.777" gradientUnits="userSpaceOnUse">
<stop stop-color="#FAFAF8"/>
<stop offset="1" stop-color="#FAFAF8"/>
</linearGradient>
<linearGradient id="paint10_linear_1345_300" x1="78.7304" y1="-14.4058" x2="294.993" y2="157.777" gradientUnits="userSpaceOnUse">
<stop stop-color="#FAFAF8"/>
<stop offset="1" stop-color="#FAFAF8"/>
</linearGradient>
<linearGradient id="paint11_linear_1345_300" x1="78.7307" y1="-14.4058" x2="294.993" y2="157.777" gradientUnits="userSpaceOnUse">
<stop stop-color="#FAFAF8"/>
<stop offset="1" stop-color="#FAFAF8"/>
</linearGradient>
<linearGradient id="paint12_linear_1345_300" x1="78.7307" y1="-14.4056" x2="294.993" y2="157.778" gradientUnits="userSpaceOnUse">
<stop stop-color="#FAFAF8"/>
<stop offset="1" stop-color="#FAFAF8"/>
</linearGradient>
<linearGradient id="paint13_linear_1345_300" x1="78.7306" y1="-14.4053" x2="294.993" y2="157.778" gradientUnits="userSpaceOnUse">
<stop stop-color="#FAFAF8"/>
<stop offset="1" stop-color="#FAFAF8"/>
</linearGradient>
</defs>
</svg>
