<svg width="320" height="72" viewBox="0 0 320 72" fill="none" xmlns="http://www.w3.org/2000/svg">
<g filter="url(#filter0_d_1417_731)">
<path d="M19.9663 64.1053C19.1103 64.7032 18.1726 64.9342 17.1399 64.7848C16.1071 64.6489 15.2646 64.1597 14.626 63.3444C13.9873 62.529 13.7427 61.5914 13.9058 60.5451C14.0688 59.4988 14.5716 58.6563 15.4277 58.0176C24.967 51.0059 31.3537 42.9208 34.4519 33.4359C35.0362 31.5607 34.2617 30.8269 32.1147 31.2618C30.0764 31.6694 28.0381 32.0907 25.9997 32.5119C24.8311 34.8899 23.4722 37.2271 21.9367 39.51C20.4012 41.8065 18.7162 43.9399 16.8953 45.9238C16.1615 46.6984 15.2511 47.1196 14.164 47.1876C13.0769 47.2555 12.1257 46.9566 11.2967 46.2771C10.495 45.5977 10.0738 44.728 10.0058 43.6681C9.95145 42.6082 10.2776 41.6842 11.025 40.9096C12.5469 39.3741 14.0009 37.594 15.4005 35.5557C16.8002 33.5175 18.0367 31.3976 19.0967 29.2099C20.1566 27.0221 20.9311 24.9431 21.4068 22.9727C21.6513 21.9536 22.2628 21.1519 23.2276 20.5676C24.1924 19.9833 25.2252 19.8066 26.3123 20.0512C27.3994 20.255 28.2555 20.7986 28.8806 21.6546C29.5056 22.5107 29.6551 23.4347 29.3562 24.4267C30.2122 24.2501 31.0819 24.087 31.938 23.9103C34.9004 23.326 37.292 23.394 39.0857 24.1006C40.893 24.8072 42.0616 26.0437 42.6188 27.7967C43.1623 29.5496 43.0536 31.7102 42.3062 34.2648C41.1919 38.056 39.4933 41.7793 37.2648 45.4618C35.0362 49.1443 32.4408 52.5686 29.492 55.7619C26.5433 58.9553 23.3771 61.7273 19.9799 64.0781L19.9663 64.1053Z" fill="black"/>
<path d="M58.1912 48.7643C57.1721 48.9273 56.2209 48.7235 55.3376 48.1256C54.4543 47.5277 53.9244 46.7124 53.7477 45.6932C53.5711 44.6605 53.8021 43.7229 54.4543 42.8668C55.093 42.0107 55.9491 41.508 56.9818 41.3313C61.9281 40.5296 66.888 39.7822 71.8479 39.0892C71.3723 35.6921 70.9103 32.3085 70.4347 28.9114C67.418 29.3326 64.4013 29.7674 61.3982 30.2295C60.3111 30.3925 59.3191 30.1751 58.4222 29.5772C57.5254 28.9793 56.9954 28.164 56.8323 27.1313C56.6693 26.0985 56.9139 25.1609 57.5933 24.3048C58.2727 23.4488 59.156 22.946 60.2567 22.7693C68.9807 21.4376 77.7182 20.269 86.483 19.2907C87.5836 19.1684 88.5756 19.4265 89.4317 20.0788C90.2878 20.731 90.7634 21.5735 90.8721 22.6063C90.9808 23.639 90.6955 24.563 90.0024 25.3783C89.3094 26.1937 88.4261 26.6557 87.3255 26.778C84.3223 27.1177 81.3192 27.471 78.3161 27.8515C78.751 31.2486 79.1722 34.6457 79.6071 38.0429C84.6349 37.4042 89.6763 36.8335 94.7313 36.3171C95.8048 36.2084 96.756 36.4802 97.5849 37.1324C98.4139 37.7847 98.8759 38.6408 98.971 39.6735C99.0661 40.7198 98.7807 41.6303 98.1013 42.432C97.4219 43.2337 96.5522 43.6957 95.4923 43.8044C83.0314 45.0682 70.5977 46.726 58.2048 48.7371L58.1912 48.7643Z" fill="black"/>
<path d="M111.514 47.2962C110.617 47.8261 109.666 47.9484 108.633 47.6902C107.6 47.4321 106.812 46.8478 106.268 45.9509C105.725 45.0541 105.589 44.0893 105.847 43.0837C106.119 42.0782 106.717 41.3036 107.641 40.7737C112.098 38.219 116.052 35.3382 119.477 32.1177C122.915 28.8973 125.741 25.5545 127.956 22.0486C128.69 20.9072 128.866 20.0783 128.486 19.5755C128.105 19.0727 127.249 18.8553 125.931 18.9097C121.352 19.1407 116.786 19.426 112.207 19.7522C111.133 19.8337 110.182 19.5211 109.326 18.8417C108.47 18.1487 108.008 17.3062 107.926 16.3007C107.845 15.2543 108.171 14.3303 108.918 13.5286C109.666 12.7133 110.576 12.2784 111.663 12.1969C116.433 11.8572 121.189 11.5582 125.958 11.3272C129.424 11.1506 132.114 11.6398 134.017 12.754C135.933 13.8683 136.992 15.4853 137.21 17.5644C137.441 19.6434 136.761 22.0622 135.212 24.8343C134.954 25.3371 134.655 25.8398 134.315 26.3562C133.976 26.8726 133.636 27.4025 133.283 27.9461C134.859 29.0875 136.435 30.3376 138.012 31.6965C139.574 33.0418 141.055 34.3599 142.455 35.6236C143.855 36.8873 145.037 38.0016 146.029 38.9664C146.776 39.673 147.157 40.5562 147.157 41.6162C147.157 42.6761 146.79 43.5865 146.043 44.3475C145.322 45.0812 144.425 45.4481 143.338 45.4617C142.251 45.4617 141.314 45.1356 140.526 44.4426C139.601 43.5186 138.474 42.4451 137.156 41.1949C135.824 39.9584 134.424 38.6674 132.943 37.3358C131.462 36.0041 129.994 34.7947 128.554 33.694C126.108 36.2894 123.39 38.7761 120.414 41.1677C117.425 43.5593 114.462 45.5976 111.514 47.2962Z" fill="black"/>
<path d="M163.626 49.0898C162.607 49.0898 161.724 48.7094 160.963 47.9756C160.202 47.2418 159.821 46.3449 159.835 45.3122C159.848 34.0609 159.876 22.8095 159.889 11.5582C159.889 10.5119 160.297 9.61505 161.099 8.86768C161.914 8.12031 162.852 7.75342 163.952 7.75342C165.08 7.75342 166.031 8.14748 166.806 8.90844C167.58 9.6694 167.961 10.5662 167.947 11.6126C167.893 15.3358 167.839 19.0455 167.798 22.7688C168.423 22.2252 169.17 21.8991 170.026 21.804C170.882 21.7089 171.698 21.8583 172.445 22.266C174.456 23.3259 176.386 24.4809 178.261 25.7447C180.136 27.0084 181.835 28.2993 183.343 29.5902C184.172 30.2697 184.593 31.1529 184.634 32.2128C184.675 33.2727 184.335 34.1968 183.629 34.9849C182.922 35.773 182.025 36.1943 180.925 36.2486C179.824 36.303 178.873 36.004 178.057 35.3246C177.133 34.5772 176.101 33.8027 174.959 32.9874C173.818 32.1721 172.69 31.4111 171.589 30.6773C170.488 29.9571 169.496 29.3592 168.613 28.8836C168.477 28.7885 168.341 28.6798 168.178 28.5575C168.029 28.4352 167.866 28.3129 167.703 28.177C167.621 33.8978 167.54 39.6186 167.458 45.3394C167.445 46.3857 167.064 47.269 166.303 47.9892C165.556 48.7094 164.645 49.0762 163.599 49.0627L163.626 49.0898Z" fill="black"/>
<path d="M221.542 52.7587C216.5 52.2424 212.464 51.5901 209.42 50.7476C206.377 49.9052 204.053 48.6958 202.449 47.0787C201.797 47.4592 201.023 47.9076 200.139 48.4104C199.256 48.9268 198.631 49.2937 198.25 49.5383C197.422 50.0139 196.511 50.1226 195.506 49.878C194.5 49.6334 193.766 49.0627 193.331 48.1658C192.883 47.2961 192.801 46.3993 193.1 45.5025C193.399 44.6056 193.997 43.9669 194.88 43.6001C195.329 43.3962 195.886 43.1652 196.579 42.8935C197.259 42.6217 197.938 42.3499 198.59 42.0646C198.808 38.7082 199.025 35.3654 199.229 32.009C199.283 31.2616 199.202 30.7589 199.011 30.5007C198.821 30.2425 198.332 30.093 197.557 30.0387C197.204 30.0115 196.851 29.9979 196.484 29.9707C195.465 29.9164 194.69 29.5495 194.147 28.9108C193.603 28.2586 193.359 27.5112 193.399 26.6687C193.44 25.8262 193.78 25.1196 194.391 24.5489C195.003 23.9782 195.832 23.72 196.864 23.7879C198.237 23.8695 199.609 23.951 200.982 24.0461C204.759 24.2907 206.499 26.2203 206.241 29.7669C205.928 33.9114 205.616 38.0559 205.317 42.2004C206.118 43.0429 207.083 43.7359 208.197 44.2931C209.312 44.8366 210.752 45.285 212.546 45.6383C214.34 45.9916 216.595 46.3314 219.34 46.6575C219.014 46.3042 218.742 45.8829 218.552 45.4209C218.362 44.9589 218.294 44.4425 218.348 43.8582C218.362 43.7088 218.375 43.5729 218.389 43.4234C215.236 43.1245 212.07 42.8391 208.904 42.5945C208.211 42.5401 207.627 42.2412 207.165 41.7248C206.703 41.1949 206.499 40.597 206.553 39.9176C206.608 39.2381 206.906 38.6674 207.436 38.219C207.98 37.7706 208.605 37.5803 209.312 37.6347C212.505 37.8929 215.685 38.1782 218.865 38.4772C218.905 37.988 218.96 37.4988 219 37.0232C216.772 36.8058 214.53 36.6019 212.301 36.4117C211.567 36.3438 210.956 36.0448 210.494 35.5013C210.032 34.9577 209.828 34.3327 209.882 33.6125C209.937 32.8923 210.236 32.3215 210.793 31.8731C211.336 31.4247 211.989 31.2345 212.736 31.3024C214.992 31.4926 217.248 31.6965 219.49 31.9139C219.503 31.7236 219.53 31.5198 219.544 31.3296C219.571 31.0035 219.653 30.7045 219.789 30.4191C217.057 30.161 214.326 29.9164 211.581 29.6854C210.834 29.6174 210.222 29.3321 209.76 28.8021C209.285 28.2722 209.081 27.6471 209.135 26.9405C209.189 26.2203 209.502 25.636 210.045 25.174C210.603 24.712 211.255 24.5081 212.002 24.5761C212.818 24.644 213.646 24.712 214.462 24.7799C214.353 24.5081 214.244 24.2364 214.149 23.9646C214.054 23.6928 213.973 23.4754 213.918 23.3123C213.782 22.8367 213.769 22.3883 213.878 21.9399C212.627 21.8312 211.364 21.7225 210.113 21.6273C209.352 21.573 208.741 21.2605 208.265 20.7169C207.79 20.1734 207.572 19.5483 207.627 18.8281C207.681 18.1079 207.98 17.5236 208.537 17.0888C209.094 16.6403 209.76 16.4501 210.521 16.5045C213.973 16.7762 217.424 17.0888 220.862 17.4149C220.903 16.9393 220.957 16.4773 220.998 16.0017C218.43 15.7571 215.861 15.5261 213.293 15.3087C212.532 15.2407 211.894 14.9418 211.404 14.3982C210.902 13.8547 210.684 13.216 210.739 12.5094C210.793 11.7892 211.119 11.2185 211.69 10.7701C212.274 10.3217 212.953 10.1314 213.714 10.1994C216.31 10.4168 218.892 10.6478 221.487 10.8924C221.501 10.7429 221.514 10.5934 221.528 10.4575C221.637 9.38405 222.085 8.58232 222.9 8.03878C223.716 7.49524 224.653 7.27781 225.713 7.38652C226.8 7.49523 227.684 7.90289 228.363 8.5959C229.029 9.28892 229.314 10.1722 229.192 11.2457C229.178 11.3952 229.165 11.531 229.151 11.6805C231.828 11.9659 234.505 12.2784 237.169 12.5909C237.93 12.6861 238.568 13.0122 239.044 13.5557C239.519 14.1129 239.723 14.7379 239.628 15.4581C239.533 16.1647 239.193 16.749 238.595 17.1839C237.998 17.6187 237.318 17.7954 236.557 17.7003C233.907 17.3877 231.257 17.0752 228.594 16.7898C228.54 17.2654 228.499 17.7274 228.445 18.203C232.263 18.6107 236.095 19.0591 239.914 19.5347C240.674 19.6298 241.286 19.956 241.734 20.5131C242.183 21.0702 242.373 21.6953 242.278 22.4019C242.183 23.1085 241.843 23.6928 241.272 24.1276C240.688 24.5625 240.022 24.7391 239.275 24.644C237.712 24.4538 236.149 24.2635 234.6 24.0733C234.655 24.5353 234.546 24.9837 234.288 25.4186C234.206 25.568 234.084 25.7719 233.962 26.0164C233.826 26.261 233.676 26.5056 233.513 26.7502C234.437 26.8589 235.361 26.9677 236.285 27.0764C237.033 27.1715 237.644 27.4976 238.093 28.0683C238.541 28.639 238.718 29.2777 238.636 29.9843C238.541 30.6909 238.215 31.2616 237.644 31.6829C237.073 32.1041 236.421 32.2672 235.674 32.1857C232.779 31.8324 229.885 31.5062 226.977 31.1937C227.031 31.3296 227.045 31.4791 227.031 31.6421C227.018 31.8052 226.991 31.9682 226.977 32.1313C226.95 32.3215 226.936 32.5254 226.909 32.7156C229.206 32.9602 231.516 33.2184 233.812 33.4902C234.56 33.5717 235.157 33.8978 235.606 34.4414C236.054 34.9849 236.231 35.6236 236.149 36.3302C236.068 37.0368 235.728 37.6211 235.171 38.0559C234.6 38.4908 233.962 38.6674 233.214 38.5859C230.931 38.3141 228.648 38.0559 226.366 37.8113C226.311 38.3005 226.257 38.7897 226.202 39.2653C229.858 39.6594 233.5 40.0806 237.141 40.5426C237.848 40.6242 238.419 40.9503 238.854 41.4938C239.288 42.0374 239.465 42.6624 239.384 43.3419C239.302 44.0213 238.976 44.5648 238.405 44.9861C237.848 45.4073 237.223 45.5704 236.516 45.4889C232.902 45.0404 229.287 44.6192 225.659 44.2251C225.645 44.3746 225.632 44.5105 225.618 44.66C225.496 45.8286 224.98 46.6711 224.096 47.201C226.583 47.432 228.784 47.6359 230.7 47.7853C232.63 47.9484 234.315 48.0707 235.783 48.1522C236.883 48.193 237.753 48.5463 238.392 49.1985C239.03 49.8508 239.288 50.6525 239.166 51.5901C239.044 52.5277 238.65 53.2615 237.998 53.8051C237.345 54.3486 236.394 54.5389 235.157 54.3758C230.632 53.8051 226.094 53.2887 221.555 52.8267L221.542 52.7587ZM201.784 16.4909C201.485 16.1783 201.063 15.7435 200.506 15.1864C199.949 14.6292 199.392 14.0857 198.848 13.5422C198.305 12.9986 197.87 12.5909 197.53 12.3056C196.864 11.7077 196.552 10.9875 196.606 10.145C196.661 9.30252 197.014 8.58232 197.68 7.99801C198.427 7.38653 199.283 7.0604 200.248 7.00604C201.226 6.95169 202.083 7.26423 202.803 7.93007C203.102 8.17466 203.55 8.58232 204.148 9.15304C204.746 9.72376 205.33 10.2809 205.901 10.8516C206.472 11.4223 206.893 11.8436 207.151 12.1153C207.871 12.822 208.17 13.6373 208.075 14.5341C207.966 15.4445 207.491 16.2055 206.648 16.8306C205.874 17.4013 205.031 17.6595 204.107 17.6323C203.183 17.6051 202.409 17.2247 201.756 16.4909H201.784ZM221.65 25.3914C223.213 25.5408 224.762 25.7039 226.325 25.867C226.542 25.5001 226.76 25.0652 227.004 24.5625C227.249 24.0597 227.48 23.6113 227.697 23.2036C225.401 22.959 223.091 22.728 220.794 22.497C220.93 22.9318 221.08 23.421 221.256 23.9646C221.433 24.5081 221.569 24.9837 221.664 25.3778L221.65 25.3914Z" fill="black"/>
<path d="M245.186 55.5989C244.371 55.0553 243.868 54.308 243.705 53.3432C243.542 52.3784 243.746 51.5087 244.316 50.7342C245.947 48.628 247.374 46.0733 248.597 43.0838C249.806 40.0943 250.757 36.3303 251.423 31.7781C251.532 31.0579 251.641 30.3242 251.736 29.604C252.103 27.0493 252.796 25.1197 253.815 23.8016C254.834 22.4835 256.247 21.6546 258.041 21.3285C259.835 20.9888 262.077 21.0432 264.727 21.478C267.363 21.9128 269.999 22.3612 272.635 22.8233C272.853 21.0024 273.124 19.1679 273.45 17.3063C273.641 16.2192 274.143 15.4447 274.959 14.9963C275.774 14.5478 276.725 14.4255 277.812 14.6158C278.859 14.806 279.701 15.2408 280.326 15.9067C280.965 16.5725 281.155 17.5101 280.924 18.7331C280.707 19.6571 280.53 20.5676 280.381 21.4644C280.231 22.3612 280.082 23.2717 279.946 24.1685C282.202 24.5898 284.444 25.0382 286.699 25.4866C286.659 25.4323 286.618 25.3643 286.577 25.31C286.387 25.0382 286.115 24.6849 285.775 24.2501C285.436 23.8152 285.096 23.3804 284.77 22.932C284.444 22.4835 284.199 22.1574 284.022 21.9672C283.479 21.3013 283.275 20.5404 283.438 19.7115C283.601 18.8826 284.036 18.2167 284.743 17.7275C285.49 17.2112 286.333 17.0074 287.27 17.1297C288.208 17.252 288.996 17.6596 289.648 18.3526C290.029 18.7603 290.518 19.3038 291.075 19.9968C291.646 20.6763 292.121 21.2878 292.502 21.8449C293.127 22.6738 293.317 23.5299 293.1 24.3995C292.882 25.2692 292.366 25.935 291.551 26.3971C291.51 26.4242 291.469 26.4514 291.428 26.4786C292.067 26.6145 292.692 26.7368 293.331 26.8727C294.431 27.1037 295.233 27.5929 295.736 28.3402C296.239 29.0876 296.388 29.9165 296.184 30.8405C295.981 31.7645 295.505 32.4711 294.744 32.9603C293.983 33.4495 293.059 33.5718 291.972 33.3408C287.719 32.444 283.452 31.5879 279.171 30.7726C278.886 35.0666 278.995 38.8849 279.484 42.2413C281.264 40.1895 282.84 37.9745 284.199 35.5829C284.661 34.6725 285.368 34.1018 286.333 33.8708C287.297 33.6398 288.235 33.7756 289.159 34.292C290.015 34.7676 290.586 35.4063 290.871 36.2216C291.157 37.0369 291.034 37.893 290.491 38.817C289.268 40.964 287.922 42.9887 286.455 44.8911C284.987 46.8071 283.384 48.56 281.658 50.1771C281.971 50.8701 282.283 51.5223 282.623 52.1474C282.963 52.7589 283.343 53.3704 283.764 53.9547C284.172 54.471 284.498 54.7156 284.743 54.702C284.987 54.6884 285.286 54.4167 285.626 53.8867C285.735 53.7101 285.857 53.5063 285.979 53.2888C286.115 53.0714 286.224 52.8676 286.333 52.6909C286.89 51.8349 287.624 51.3185 288.548 51.1282C289.472 50.938 290.355 51.0875 291.225 51.5767C292.149 52.1066 292.706 52.8132 292.91 53.6693C293.113 54.539 292.991 55.3543 292.556 56.1152C292.312 56.5908 292.04 57.0665 291.754 57.5421C291.469 58.0177 291.089 58.5884 290.64 59.2542C288.656 62.2301 286.577 63.5754 284.335 63.29C282.107 63.0047 280 61.4284 278.003 58.534C277.609 57.9633 277.228 57.3382 276.861 56.686C276.494 56.0337 276.141 55.3543 275.801 54.6613C273.124 56.3734 270.298 57.7187 267.308 58.7107C266.344 59.0368 265.42 59.0096 264.536 58.6156C263.653 58.2351 263.001 57.5692 262.593 56.6452C262.213 55.7212 262.226 54.8379 262.634 53.9954C263.042 53.1529 263.721 52.5822 264.645 52.2833C266.235 51.7261 267.757 51.0739 269.224 50.3129C270.692 49.552 272.092 48.6959 273.437 47.7447C272.798 45.1085 272.35 42.2549 272.105 39.1975C271.861 36.1401 271.833 32.8788 272.024 29.4409C269.292 28.9517 266.561 28.4897 263.83 28.0413C262.457 27.8103 261.397 27.8782 260.623 28.2179C259.848 28.5576 259.345 29.4953 259.101 31.0443C259.101 31.0715 259.101 31.1123 259.087 31.1395C260.568 31.3705 262.036 31.6151 263.517 31.8597C266.167 32.2945 267.974 33.1234 268.939 34.292C269.904 35.4742 270.094 37.2815 269.523 39.7274C269.265 41.0048 268.939 42.3229 268.572 43.6545C268.192 44.9998 267.77 46.25 267.295 47.4322C266.425 49.6607 265.243 51.1011 263.735 51.7533C262.24 52.4056 260.528 52.6094 258.612 52.3648C257.552 52.2289 256.655 51.8484 255.907 51.237C255.16 50.6255 254.807 49.7558 254.847 48.6415C254.875 47.5952 255.201 46.7663 255.812 46.1684C256.437 45.5705 257.171 45.2716 258.014 45.2852C259.074 45.2852 259.78 45.19 260.161 44.9862C260.541 44.7824 260.867 44.2932 261.166 43.5187C261.533 42.5539 261.873 41.426 262.185 40.1215C262.389 39.2654 262.362 38.6675 262.09 38.3414C261.819 38.0153 261.248 37.7843 260.365 37.6348C259.576 37.5125 258.788 37.3766 258 37.2543C257.144 41.1135 256.098 44.4291 254.847 47.2147C253.597 49.9868 252.143 52.4735 250.472 54.6613C249.847 55.4902 249.018 56.0065 247.985 56.224C246.952 56.4414 246.001 56.224 245.132 55.6125L245.186 55.5989Z" fill="black"/>
<path d="M299.256 62.7735C298.155 62.5153 297.313 61.931 296.715 61.007C296.117 60.083 295.94 59.091 296.185 58.0039C296.429 56.9169 297.014 56.088 297.965 55.5172C298.902 54.9465 299.935 54.7835 301.049 55.0552C302.164 55.3134 303.033 55.9113 303.631 56.8489C304.243 57.7865 304.406 58.7921 304.148 59.8656C303.889 60.9391 303.278 61.768 302.327 62.3251C301.376 62.8822 300.343 63.0317 299.242 62.7735H299.256ZM301.756 52.256C300.18 51.8891 299.568 50.6661 299.949 48.5735C301.022 42.7576 302.082 36.9553 303.128 31.1393C303.509 28.9924 304.841 28.1634 307.137 28.6934C309.529 29.2505 310.426 30.5958 309.814 32.6884C308.184 38.3685 306.566 44.0485 304.963 49.7421C304.379 51.7804 303.305 52.6093 301.756 52.256Z" fill="black"/>
<path d="M19.9663 64.1053C19.1103 64.7032 18.1726 64.9342 17.1399 64.7848C16.1071 64.6489 15.2646 64.1597 14.626 63.3444C13.9873 62.529 13.7427 61.5914 13.9058 60.5451C14.0688 59.4988 14.5716 58.6563 15.4277 58.0176C24.967 51.0059 31.3537 42.9208 34.4519 33.4359C35.0362 31.5607 34.2617 30.8269 32.1147 31.2618C30.0764 31.6694 28.0381 32.0907 25.9997 32.5119C24.8311 34.8899 23.4722 37.2271 21.9367 39.51C20.4012 41.8065 18.7162 43.9399 16.8953 45.9238C16.1615 46.6984 15.2511 47.1196 14.164 47.1876C13.0769 47.2555 12.1257 46.9566 11.2967 46.2771C10.495 45.5977 10.0738 44.728 10.0058 43.6681C9.95145 42.6082 10.2776 41.6842 11.025 40.9096C12.5469 39.3741 14.0009 37.594 15.4005 35.5557C16.8002 33.5175 18.0367 31.3976 19.0967 29.2099C20.1566 27.0221 20.9311 24.9431 21.4068 22.9727C21.6513 21.9536 22.2628 21.1519 23.2276 20.5676C24.1924 19.9833 25.2252 19.8066 26.3123 20.0512C27.3994 20.255 28.2555 20.7986 28.8806 21.6546C29.5056 22.5107 29.6551 23.4347 29.3562 24.4267C30.2122 24.2501 31.0819 24.087 31.938 23.9103C34.9004 23.326 37.292 23.394 39.0857 24.1006C40.893 24.8072 42.0616 26.0437 42.6188 27.7967C43.1623 29.5496 43.0536 31.7102 42.3062 34.2648C41.1919 38.056 39.4933 41.7793 37.2648 45.4618C35.0362 49.1443 32.4408 52.5686 29.492 55.7619C26.5433 58.9553 23.3771 61.7273 19.9799 64.0781L19.9663 64.1053Z" stroke="url(#paint0_linear_1417_731)" stroke-width="8.5" stroke-linecap="round" stroke-linejoin="round"/>
<path d="M58.1912 48.7643C57.1721 48.9273 56.2209 48.7235 55.3376 48.1256C54.4543 47.5277 53.9244 46.7124 53.7477 45.6932C53.5711 44.6605 53.8021 43.7229 54.4543 42.8668C55.093 42.0107 55.9491 41.508 56.9818 41.3313C61.9281 40.5296 66.888 39.7822 71.8479 39.0892C71.3723 35.6921 70.9103 32.3085 70.4347 28.9114C67.418 29.3326 64.4013 29.7674 61.3982 30.2295C60.3111 30.3925 59.3191 30.1751 58.4222 29.5772C57.5254 28.9793 56.9954 28.164 56.8323 27.1313C56.6693 26.0985 56.9139 25.1609 57.5933 24.3048C58.2727 23.4488 59.156 22.946 60.2567 22.7693C68.9807 21.4376 77.7182 20.269 86.483 19.2907C87.5836 19.1684 88.5756 19.4265 89.4317 20.0788C90.2878 20.731 90.7634 21.5735 90.8721 22.6063C90.9808 23.639 90.6955 24.563 90.0024 25.3783C89.3094 26.1937 88.4261 26.6557 87.3255 26.778C84.3223 27.1177 81.3192 27.471 78.3161 27.8515C78.751 31.2486 79.1722 34.6457 79.6071 38.0429C84.6349 37.4042 89.6763 36.8335 94.7313 36.3171C95.8048 36.2084 96.756 36.4802 97.5849 37.1324C98.4139 37.7847 98.8759 38.6408 98.971 39.6735C99.0661 40.7198 98.7807 41.6303 98.1013 42.432C97.4219 43.2337 96.5522 43.6957 95.4923 43.8044C83.0314 45.0682 70.5977 46.726 58.2048 48.7371L58.1912 48.7643Z" stroke="url(#paint1_linear_1417_731)" stroke-width="8.5" stroke-linecap="round" stroke-linejoin="round"/>
<path d="M111.514 47.2962C110.617 47.8261 109.666 47.9484 108.633 47.6902C107.6 47.4321 106.812 46.8478 106.268 45.9509C105.725 45.0541 105.589 44.0893 105.847 43.0837C106.119 42.0782 106.717 41.3036 107.641 40.7737C112.098 38.219 116.052 35.3382 119.477 32.1177C122.915 28.8973 125.741 25.5545 127.956 22.0486C128.69 20.9072 128.866 20.0783 128.486 19.5755C128.105 19.0727 127.249 18.8553 125.931 18.9097C121.352 19.1407 116.786 19.426 112.207 19.7522C111.133 19.8337 110.182 19.5211 109.326 18.8417C108.47 18.1487 108.008 17.3062 107.926 16.3007C107.845 15.2543 108.171 14.3303 108.918 13.5286C109.666 12.7133 110.576 12.2784 111.663 12.1969C116.433 11.8572 121.189 11.5582 125.958 11.3272C129.424 11.1506 132.114 11.6398 134.017 12.754C135.933 13.8683 136.992 15.4853 137.21 17.5644C137.441 19.6434 136.761 22.0622 135.212 24.8343C134.954 25.3371 134.655 25.8398 134.315 26.3562C133.976 26.8726 133.636 27.4025 133.283 27.9461C134.859 29.0875 136.435 30.3376 138.012 31.6965C139.574 33.0418 141.055 34.3599 142.455 35.6236C143.855 36.8873 145.037 38.0016 146.029 38.9664C146.776 39.673 147.157 40.5562 147.157 41.6162C147.157 42.6761 146.79 43.5865 146.043 44.3475C145.322 45.0812 144.425 45.4481 143.338 45.4617C142.251 45.4617 141.314 45.1356 140.526 44.4426C139.601 43.5186 138.474 42.4451 137.156 41.1949C135.824 39.9584 134.424 38.6674 132.943 37.3358C131.462 36.0041 129.994 34.7947 128.554 33.694C126.108 36.2894 123.39 38.7761 120.414 41.1677C117.425 43.5593 114.462 45.5976 111.514 47.2962Z" stroke="url(#paint2_linear_1417_731)" stroke-width="8.5" stroke-linecap="round" stroke-linejoin="round"/>
<path d="M163.626 49.0898C162.607 49.0898 161.724 48.7094 160.963 47.9756C160.202 47.2418 159.821 46.3449 159.835 45.3122C159.848 34.0609 159.876 22.8095 159.889 11.5582C159.889 10.5119 160.297 9.61505 161.099 8.86768C161.914 8.12031 162.852 7.75342 163.952 7.75342C165.08 7.75342 166.031 8.14748 166.806 8.90844C167.58 9.6694 167.961 10.5662 167.947 11.6126C167.893 15.3358 167.839 19.0455 167.798 22.7688C168.423 22.2252 169.17 21.8991 170.026 21.804C170.882 21.7089 171.698 21.8583 172.445 22.266C174.456 23.3259 176.386 24.4809 178.261 25.7447C180.136 27.0084 181.835 28.2993 183.343 29.5902C184.172 30.2697 184.593 31.1529 184.634 32.2128C184.675 33.2727 184.335 34.1968 183.629 34.9849C182.922 35.773 182.025 36.1943 180.925 36.2486C179.824 36.303 178.873 36.004 178.057 35.3246C177.133 34.5772 176.101 33.8027 174.959 32.9874C173.818 32.1721 172.69 31.4111 171.589 30.6773C170.488 29.9571 169.496 29.3592 168.613 28.8836C168.477 28.7885 168.341 28.6798 168.178 28.5575C168.029 28.4352 167.866 28.3129 167.703 28.177C167.621 33.8978 167.54 39.6186 167.458 45.3394C167.445 46.3857 167.064 47.269 166.303 47.9892C165.556 48.7094 164.645 49.0762 163.599 49.0627L163.626 49.0898Z" stroke="url(#paint3_linear_1417_731)" stroke-width="8.5" stroke-linecap="round" stroke-linejoin="round"/>
<path d="M221.542 52.7587C216.5 52.2424 212.464 51.5901 209.42 50.7476C206.377 49.9052 204.053 48.6958 202.449 47.0787C201.797 47.4592 201.023 47.9076 200.139 48.4104C199.256 48.9268 198.631 49.2937 198.25 49.5383C197.422 50.0139 196.511 50.1226 195.506 49.878C194.5 49.6334 193.766 49.0627 193.331 48.1658C192.883 47.2961 192.801 46.3993 193.1 45.5025C193.399 44.6056 193.997 43.9669 194.88 43.6001C195.329 43.3962 195.886 43.1652 196.579 42.8935C197.259 42.6217 197.938 42.3499 198.59 42.0646C198.808 38.7082 199.025 35.3654 199.229 32.009C199.283 31.2616 199.202 30.7589 199.011 30.5007C198.821 30.2425 198.332 30.093 197.557 30.0387C197.204 30.0115 196.851 29.9979 196.484 29.9707C195.465 29.9164 194.69 29.5495 194.147 28.9108C193.603 28.2586 193.359 27.5112 193.399 26.6687C193.44 25.8262 193.78 25.1196 194.391 24.5489C195.003 23.9782 195.832 23.72 196.864 23.7879C198.237 23.8695 199.609 23.951 200.982 24.0461C204.759 24.2907 206.499 26.2203 206.241 29.7669C205.928 33.9114 205.616 38.0559 205.317 42.2004C206.118 43.0429 207.083 43.7359 208.197 44.2931C209.312 44.8366 210.752 45.285 212.546 45.6383C214.34 45.9916 216.595 46.3314 219.34 46.6575C219.014 46.3042 218.742 45.8829 218.552 45.4209C218.362 44.9589 218.294 44.4425 218.348 43.8582C218.362 43.7088 218.375 43.5729 218.389 43.4234C215.236 43.1245 212.07 42.8391 208.904 42.5945C208.211 42.5401 207.627 42.2412 207.165 41.7248C206.703 41.1949 206.499 40.597 206.553 39.9176C206.608 39.2381 206.906 38.6674 207.436 38.219C207.98 37.7706 208.605 37.5803 209.312 37.6347C212.505 37.8929 215.685 38.1782 218.865 38.4772C218.905 37.988 218.96 37.4988 219 37.0232C216.772 36.8058 214.53 36.6019 212.301 36.4117C211.567 36.3438 210.956 36.0448 210.494 35.5013C210.032 34.9577 209.828 34.3327 209.882 33.6125C209.937 32.8923 210.236 32.3215 210.793 31.8731C211.336 31.4247 211.989 31.2345 212.736 31.3024C214.992 31.4926 217.248 31.6965 219.49 31.9139C219.503 31.7236 219.53 31.5198 219.544 31.3296C219.571 31.0035 219.653 30.7045 219.789 30.4191C217.057 30.161 214.326 29.9164 211.581 29.6854C210.834 29.6174 210.222 29.3321 209.76 28.8021C209.285 28.2722 209.081 27.6471 209.135 26.9405C209.189 26.2203 209.502 25.636 210.045 25.174C210.603 24.712 211.255 24.5081 212.002 24.5761C212.818 24.644 213.646 24.712 214.462 24.7799C214.353 24.5081 214.244 24.2364 214.149 23.9646C214.054 23.6928 213.973 23.4754 213.918 23.3123C213.782 22.8367 213.769 22.3883 213.878 21.9399C212.627 21.8312 211.364 21.7225 210.113 21.6273C209.352 21.573 208.741 21.2605 208.265 20.7169C207.79 20.1734 207.572 19.5483 207.627 18.8281C207.681 18.1079 207.98 17.5236 208.537 17.0888C209.094 16.6403 209.76 16.4501 210.521 16.5045C213.973 16.7762 217.424 17.0888 220.862 17.4149C220.903 16.9393 220.957 16.4773 220.998 16.0017C218.43 15.7571 215.861 15.5261 213.293 15.3087C212.532 15.2407 211.894 14.9418 211.404 14.3982C210.902 13.8547 210.684 13.216 210.739 12.5094C210.793 11.7892 211.119 11.2185 211.69 10.7701C212.274 10.3217 212.953 10.1314 213.714 10.1994C216.31 10.4168 218.892 10.6478 221.487 10.8924C221.501 10.7429 221.514 10.5934 221.528 10.4575C221.637 9.38405 222.085 8.58232 222.9 8.03878C223.716 7.49524 224.653 7.27781 225.713 7.38652C226.8 7.49523 227.684 7.90289 228.363 8.5959C229.029 9.28892 229.314 10.1722 229.192 11.2457C229.178 11.3952 229.165 11.531 229.151 11.6805C231.828 11.9659 234.505 12.2784 237.169 12.5909C237.93 12.6861 238.568 13.0122 239.044 13.5557C239.519 14.1129 239.723 14.7379 239.628 15.4581C239.533 16.1647 239.193 16.749 238.595 17.1839C237.998 17.6187 237.318 17.7954 236.557 17.7003C233.907 17.3877 231.257 17.0752 228.594 16.7898C228.54 17.2654 228.499 17.7274 228.445 18.203C232.263 18.6107 236.095 19.0591 239.914 19.5347C240.674 19.6298 241.286 19.956 241.734 20.5131C242.183 21.0702 242.373 21.6953 242.278 22.4019C242.183 23.1085 241.843 23.6928 241.272 24.1276C240.688 24.5625 240.022 24.7391 239.275 24.644C237.712 24.4538 236.149 24.2635 234.6 24.0733C234.655 24.5353 234.546 24.9837 234.288 25.4186C234.206 25.568 234.084 25.7719 233.962 26.0164C233.826 26.261 233.676 26.5056 233.513 26.7502C234.437 26.8589 235.361 26.9677 236.285 27.0764C237.033 27.1715 237.644 27.4976 238.093 28.0683C238.541 28.639 238.718 29.2777 238.636 29.9843C238.541 30.6909 238.215 31.2616 237.644 31.6829C237.073 32.1041 236.421 32.2672 235.674 32.1857C232.779 31.8324 229.885 31.5062 226.977 31.1937C227.031 31.3296 227.045 31.4791 227.031 31.6421C227.018 31.8052 226.991 31.9682 226.977 32.1313C226.95 32.3215 226.936 32.5254 226.909 32.7156C229.206 32.9602 231.516 33.2184 233.812 33.4902C234.56 33.5717 235.157 33.8978 235.606 34.4414C236.054 34.9849 236.231 35.6236 236.149 36.3302C236.068 37.0368 235.728 37.6211 235.171 38.0559C234.6 38.4908 233.962 38.6674 233.214 38.5859C230.931 38.3141 228.648 38.0559 226.366 37.8113C226.311 38.3005 226.257 38.7897 226.202 39.2653C229.858 39.6594 233.5 40.0806 237.141 40.5426C237.848 40.6242 238.419 40.9503 238.854 41.4938C239.288 42.0374 239.465 42.6624 239.384 43.3419C239.302 44.0213 238.976 44.5648 238.405 44.9861C237.848 45.4073 237.223 45.5704 236.516 45.4889C232.902 45.0404 229.287 44.6192 225.659 44.2251C225.645 44.3746 225.632 44.5105 225.618 44.66C225.496 45.8286 224.98 46.6711 224.096 47.201C226.583 47.432 228.784 47.6359 230.7 47.7853C232.63 47.9484 234.315 48.0707 235.783 48.1522C236.883 48.193 237.753 48.5463 238.392 49.1985C239.03 49.8508 239.288 50.6525 239.166 51.5901C239.044 52.5277 238.65 53.2615 237.998 53.8051C237.345 54.3486 236.394 54.5389 235.157 54.3758C230.632 53.8051 226.094 53.2887 221.555 52.8267L221.542 52.7587ZM201.784 16.4909C201.485 16.1783 201.063 15.7435 200.506 15.1864C199.949 14.6292 199.392 14.0857 198.848 13.5422C198.305 12.9986 197.87 12.5909 197.53 12.3056C196.864 11.7077 196.552 10.9875 196.606 10.145C196.661 9.30252 197.014 8.58232 197.68 7.99801C198.427 7.38653 199.283 7.0604 200.248 7.00604C201.226 6.95169 202.083 7.26423 202.803 7.93007C203.102 8.17466 203.55 8.58232 204.148 9.15304C204.746 9.72376 205.33 10.2809 205.901 10.8516C206.472 11.4223 206.893 11.8436 207.151 12.1153C207.871 12.822 208.17 13.6373 208.075 14.5341C207.966 15.4445 207.491 16.2055 206.648 16.8306C205.874 17.4013 205.031 17.6595 204.107 17.6323C203.183 17.6051 202.409 17.2247 201.756 16.4909H201.784ZM221.65 25.3914C223.213 25.5408 224.762 25.7039 226.325 25.867C226.542 25.5001 226.76 25.0652 227.004 24.5625C227.249 24.0597 227.48 23.6113 227.697 23.2036C225.401 22.959 223.091 22.728 220.794 22.497C220.93 22.9318 221.08 23.421 221.256 23.9646C221.433 24.5081 221.569 24.9837 221.664 25.3778L221.65 25.3914Z" stroke="url(#paint4_linear_1417_731)" stroke-width="8.5" stroke-linecap="round" stroke-linejoin="round"/>
<path d="M245.186 55.5989C244.371 55.0553 243.868 54.308 243.705 53.3432C243.542 52.3784 243.746 51.5087 244.316 50.7342C245.947 48.628 247.374 46.0733 248.597 43.0838C249.806 40.0943 250.757 36.3303 251.423 31.7781C251.532 31.0579 251.641 30.3242 251.736 29.604C252.103 27.0493 252.796 25.1197 253.815 23.8016C254.834 22.4835 256.247 21.6546 258.041 21.3285C259.835 20.9888 262.077 21.0432 264.727 21.478C267.363 21.9128 269.999 22.3612 272.635 22.8233C272.853 21.0024 273.124 19.1679 273.45 17.3063C273.641 16.2192 274.143 15.4447 274.959 14.9963C275.774 14.5478 276.725 14.4255 277.812 14.6158C278.859 14.806 279.701 15.2408 280.326 15.9067C280.965 16.5725 281.155 17.5101 280.924 18.7331C280.707 19.6571 280.53 20.5676 280.381 21.4644C280.231 22.3612 280.082 23.2717 279.946 24.1685C282.202 24.5898 284.444 25.0382 286.699 25.4866C286.659 25.4323 286.618 25.3643 286.577 25.31C286.387 25.0382 286.115 24.6849 285.775 24.2501C285.436 23.8152 285.096 23.3804 284.77 22.932C284.444 22.4835 284.199 22.1574 284.022 21.9672C283.479 21.3013 283.275 20.5404 283.438 19.7115C283.601 18.8826 284.036 18.2167 284.743 17.7275C285.49 17.2112 286.333 17.0074 287.27 17.1297C288.208 17.252 288.996 17.6596 289.648 18.3526C290.029 18.7603 290.518 19.3038 291.075 19.9968C291.646 20.6763 292.121 21.2878 292.502 21.8449C293.127 22.6738 293.317 23.5299 293.1 24.3995C292.882 25.2692 292.366 25.935 291.551 26.3971C291.51 26.4242 291.469 26.4514 291.428 26.4786C292.067 26.6145 292.692 26.7368 293.331 26.8727C294.431 27.1037 295.233 27.5929 295.736 28.3402C296.239 29.0876 296.388 29.9165 296.184 30.8405C295.981 31.7645 295.505 32.4711 294.744 32.9603C293.983 33.4495 293.059 33.5718 291.972 33.3408C287.719 32.444 283.452 31.5879 279.171 30.7726C278.886 35.0666 278.995 38.8849 279.484 42.2413C281.264 40.1895 282.84 37.9745 284.199 35.5829C284.661 34.6725 285.368 34.1018 286.333 33.8708C287.297 33.6398 288.235 33.7756 289.159 34.292C290.015 34.7676 290.586 35.4063 290.871 36.2216C291.157 37.0369 291.034 37.893 290.491 38.817C289.268 40.964 287.922 42.9887 286.455 44.8911C284.987 46.8071 283.384 48.56 281.658 50.1771C281.971 50.8701 282.283 51.5223 282.623 52.1474C282.963 52.7589 283.343 53.3704 283.764 53.9547C284.172 54.471 284.498 54.7156 284.743 54.702C284.987 54.6884 285.286 54.4167 285.626 53.8867C285.735 53.7101 285.857 53.5063 285.979 53.2888C286.115 53.0714 286.224 52.8676 286.333 52.6909C286.89 51.8349 287.624 51.3185 288.548 51.1282C289.472 50.938 290.355 51.0875 291.225 51.5767C292.149 52.1066 292.706 52.8132 292.91 53.6693C293.113 54.539 292.991 55.3543 292.556 56.1152C292.312 56.5908 292.04 57.0665 291.754 57.5421C291.469 58.0177 291.089 58.5884 290.64 59.2542C288.656 62.2301 286.577 63.5754 284.335 63.29C282.107 63.0047 280 61.4284 278.003 58.534C277.609 57.9633 277.228 57.3382 276.861 56.686C276.494 56.0337 276.141 55.3543 275.801 54.6613C273.124 56.3734 270.298 57.7187 267.308 58.7107C266.344 59.0368 265.42 59.0096 264.536 58.6156C263.653 58.2351 263.001 57.5692 262.593 56.6452C262.213 55.7212 262.226 54.8379 262.634 53.9954C263.042 53.1529 263.721 52.5822 264.645 52.2833C266.235 51.7261 267.757 51.0739 269.224 50.3129C270.692 49.552 272.092 48.6959 273.437 47.7447C272.798 45.1085 272.35 42.2549 272.105 39.1975C271.861 36.1401 271.833 32.8788 272.024 29.4409C269.292 28.9517 266.561 28.4897 263.83 28.0413C262.457 27.8103 261.397 27.8782 260.623 28.2179C259.848 28.5576 259.345 29.4953 259.101 31.0443C259.101 31.0715 259.101 31.1123 259.087 31.1395C260.568 31.3705 262.036 31.6151 263.517 31.8597C266.167 32.2945 267.974 33.1234 268.939 34.292C269.904 35.4742 270.094 37.2815 269.523 39.7274C269.265 41.0048 268.939 42.3229 268.572 43.6545C268.192 44.9998 267.77 46.25 267.295 47.4322C266.425 49.6607 265.243 51.1011 263.735 51.7533C262.24 52.4056 260.528 52.6094 258.612 52.3648C257.552 52.2289 256.655 51.8484 255.907 51.237C255.16 50.6255 254.807 49.7558 254.847 48.6415C254.875 47.5952 255.201 46.7663 255.812 46.1684C256.437 45.5705 257.171 45.2716 258.014 45.2852C259.074 45.2852 259.78 45.19 260.161 44.9862C260.541 44.7824 260.867 44.2932 261.166 43.5187C261.533 42.5539 261.873 41.426 262.185 40.1215C262.389 39.2654 262.362 38.6675 262.09 38.3414C261.819 38.0153 261.248 37.7843 260.365 37.6348C259.576 37.5125 258.788 37.3766 258 37.2543C257.144 41.1135 256.098 44.4291 254.847 47.2147C253.597 49.9868 252.143 52.4735 250.472 54.6613C249.847 55.4902 249.018 56.0065 247.985 56.224C246.952 56.4414 246.001 56.224 245.132 55.6125L245.186 55.5989Z" stroke="url(#paint5_linear_1417_731)" stroke-width="8.5" stroke-linecap="round" stroke-linejoin="round"/>
<path d="M299.256 62.7735C298.155 62.5153 297.313 61.931 296.715 61.007C296.117 60.083 295.94 59.091 296.185 58.0039C296.429 56.9169 297.014 56.088 297.965 55.5172C298.902 54.9465 299.935 54.7835 301.049 55.0552C302.164 55.3134 303.033 55.9113 303.631 56.8489C304.243 57.7865 304.406 58.7921 304.148 59.8656C303.889 60.9391 303.278 61.768 302.327 62.3251C301.376 62.8822 300.343 63.0317 299.242 62.7735H299.256ZM301.756 52.256C300.18 51.8891 299.568 50.6661 299.949 48.5735C301.022 42.7576 302.082 36.9553 303.128 31.1393C303.509 28.9924 304.841 28.1634 307.137 28.6934C309.529 29.2505 310.426 30.5958 309.814 32.6884C308.184 38.3685 306.566 44.0485 304.963 49.7421C304.379 51.7804 303.305 52.6093 301.756 52.256Z" stroke="url(#paint6_linear_1417_731)" stroke-width="8.5" stroke-linecap="round" stroke-linejoin="round"/>
<g filter="url(#filter1_d_1417_731)">
<path d="M19.9663 64.1048C19.1103 64.7027 18.1726 64.9337 17.1399 64.7843C16.1071 64.6484 15.2646 64.1592 14.626 63.3439C13.9873 62.5286 13.7427 61.5909 13.9058 60.5446C14.0688 59.4983 14.5716 58.6558 15.4277 58.0172C24.967 51.0055 31.3537 42.9203 34.4519 33.4354C35.0362 31.5602 34.2617 30.8264 32.1147 31.2613C30.0764 31.6689 28.0381 32.0902 25.9997 32.5114C24.8311 34.8894 23.4722 37.2266 21.9367 39.5095C20.4012 41.806 18.7162 43.9394 16.8953 45.9233C16.1615 46.6979 15.2511 47.1191 14.164 47.1871C13.0769 47.255 12.1257 46.9561 11.2967 46.2766C10.495 45.5972 10.0738 44.7275 10.0058 43.6676C9.95145 42.6077 10.2776 41.6837 11.025 40.9092C12.5469 39.3736 14.0009 37.5935 15.4005 35.5553C16.8002 33.517 18.0367 31.3972 19.0967 29.2094C20.1566 27.0216 20.9311 24.9426 21.4068 22.9722C21.6513 21.9531 22.2628 21.1514 23.2276 20.5671C24.1924 19.9828 25.2252 19.8061 26.3123 20.0507C27.3994 20.2545 28.2555 20.7981 28.8806 21.6541C29.5056 22.5102 29.6551 23.4343 29.3562 24.4262C30.2122 24.2496 31.0819 24.0865 31.938 23.9099C34.9004 23.3255 37.292 23.3935 39.0857 24.1001C40.893 24.8067 42.0616 26.0433 42.6188 27.7962C43.1623 29.5491 43.0536 31.7097 42.3062 34.2643C41.1919 38.0556 39.4933 41.7788 37.2648 45.4613C35.0362 49.1438 32.4408 52.5681 29.492 55.7615C26.5433 58.9548 23.3771 61.7268 19.9799 64.0777L19.9663 64.1048Z" fill="url(#paint7_linear_1417_731)"/>
<path d="M58.1912 48.7628C57.1721 48.9259 56.2209 48.722 55.3376 48.1241C54.4543 47.5262 53.9244 46.7109 53.7477 45.6918C53.5711 44.659 53.8021 43.7214 54.4543 42.8654C55.093 42.0093 55.9491 41.5065 56.9818 41.3298C61.9281 40.5281 66.888 39.7808 71.8479 39.0877C71.3723 35.6906 70.9103 32.307 70.4347 28.9099C67.418 29.3311 64.4013 29.766 61.3982 30.228C60.3111 30.3911 59.3191 30.1736 58.4222 29.5757C57.5254 28.9778 56.9954 28.1625 56.8323 27.1298C56.6693 26.0971 56.9139 25.1595 57.5933 24.3034C58.2727 23.4473 59.156 22.9445 60.2567 22.7679C68.9807 21.4362 77.7182 20.2676 86.483 19.2892C87.5836 19.1669 88.5756 19.4251 89.4317 20.0773C90.2878 20.7296 90.7634 21.5721 90.8721 22.6048C90.9808 23.6375 90.6955 24.5616 90.0024 25.3769C89.3094 26.1922 88.4261 26.6542 87.3255 26.7765C84.3223 27.1162 81.3192 27.4695 78.3161 27.85C78.751 31.2471 79.1722 34.6443 79.6071 38.0414C84.6349 37.4028 89.6763 36.832 94.7313 36.3157C95.8048 36.207 96.756 36.4787 97.5849 37.131C98.4139 37.7832 98.8759 38.6393 98.971 39.672C99.0661 40.7184 98.7807 41.6288 98.1013 42.4305C97.4219 43.2322 96.5522 43.6943 95.4923 43.803C83.0314 45.0667 70.5977 46.7245 58.2048 48.7356L58.1912 48.7628Z" fill="url(#paint8_linear_1417_731)"/>
<path d="M111.514 47.2957C110.617 47.8256 109.666 47.9479 108.633 47.6898C107.6 47.4316 106.812 46.8473 106.268 45.9504C105.725 45.0536 105.589 44.0888 105.847 43.0832C106.119 42.0777 106.717 41.3031 107.641 40.7732C112.098 38.2185 116.052 35.3377 119.477 32.1173C122.915 28.8968 125.741 25.554 127.956 22.0481C128.69 20.9067 128.866 20.0778 128.486 19.575C128.105 19.0722 127.249 18.8548 125.931 18.9092C121.352 19.1402 116.786 19.4255 112.207 19.7517C111.133 19.8332 110.182 19.5207 109.326 18.8412C108.47 18.1482 108.008 17.3057 107.926 16.3002C107.845 15.2538 108.171 14.3298 108.918 13.5281C109.666 12.7128 110.576 12.2779 111.663 12.1964C116.433 11.8567 121.189 11.5578 125.958 11.3267C129.424 11.1501 132.114 11.6393 134.017 12.7536C135.933 13.8678 136.992 15.4849 137.21 17.5639C137.441 19.643 136.761 22.0617 135.212 24.8338C134.954 25.3366 134.655 25.8393 134.315 26.3557C133.976 26.8721 133.636 27.402 133.283 27.9456C134.859 29.087 136.435 30.3372 138.012 31.696C139.574 33.0413 141.055 34.3594 142.455 35.6231C143.855 36.8868 145.037 38.0011 146.029 38.9659C146.776 39.6725 147.157 40.5558 147.157 41.6157C147.157 42.6756 146.79 43.586 146.043 44.347C145.322 45.0808 144.425 45.4476 143.338 45.4612C142.251 45.4612 141.314 45.1351 140.526 44.4421C139.601 43.5181 138.474 42.4446 137.156 41.1944C135.824 39.9579 134.424 38.6669 132.943 37.3353C131.462 36.0036 129.994 34.7942 128.554 33.6935C126.108 36.2889 123.39 38.7757 120.414 41.1672C117.425 43.5588 114.462 45.5971 111.514 47.2957Z" fill="url(#paint9_linear_1417_731)"/>
<path d="M163.626 49.0898C162.607 49.0898 161.724 48.7094 160.963 47.9756C160.202 47.2418 159.821 46.3449 159.835 45.3122C159.848 34.0609 159.876 22.8095 159.889 11.5582C159.889 10.5119 160.297 9.61505 161.099 8.86768C161.914 8.12031 162.852 7.75342 163.952 7.75342C165.08 7.75342 166.031 8.14748 166.806 8.90844C167.58 9.6694 167.961 10.5662 167.947 11.6126C167.893 15.3358 167.839 19.0455 167.798 22.7688C168.423 22.2252 169.17 21.8991 170.026 21.804C170.882 21.7089 171.698 21.8583 172.445 22.266C174.456 23.3259 176.386 24.4809 178.261 25.7447C180.136 27.0084 181.835 28.2993 183.343 29.5902C184.172 30.2697 184.593 31.1529 184.634 32.2128C184.675 33.2727 184.335 34.1968 183.629 34.9849C182.922 35.773 182.025 36.1943 180.925 36.2486C179.824 36.303 178.873 36.004 178.057 35.3246C177.133 34.5772 176.101 33.8027 174.959 32.9874C173.818 32.1721 172.69 31.4111 171.589 30.6773C170.488 29.9571 169.496 29.3592 168.613 28.8836C168.477 28.7885 168.341 28.6798 168.178 28.5575C168.029 28.4352 167.866 28.3129 167.703 28.177C167.621 33.8978 167.54 39.6186 167.458 45.3394C167.445 46.3857 167.064 47.269 166.303 47.9892C165.556 48.7094 164.645 49.0762 163.599 49.0627L163.626 49.0898Z" fill="url(#paint10_linear_1417_731)"/>
<path d="M221.542 52.7587C216.5 52.2424 212.464 51.5901 209.42 50.7476C206.377 49.9052 204.053 48.6958 202.449 47.0787C201.797 47.4592 201.023 47.9076 200.139 48.4104C199.256 48.9268 198.631 49.2937 198.25 49.5383C197.422 50.0139 196.511 50.1226 195.506 49.878C194.5 49.6334 193.766 49.0627 193.331 48.1658C192.883 47.2961 192.801 46.3993 193.1 45.5025C193.399 44.6056 193.997 43.9669 194.88 43.6001C195.329 43.3962 195.886 43.1652 196.579 42.8935C197.259 42.6217 197.938 42.3499 198.59 42.0646C198.808 38.7082 199.025 35.3654 199.229 32.009C199.283 31.2616 199.202 30.7589 199.011 30.5007C198.821 30.2425 198.332 30.093 197.557 30.0387C197.204 30.0115 196.851 29.9979 196.484 29.9707C195.465 29.9164 194.69 29.5495 194.147 28.9108C193.603 28.2586 193.359 27.5112 193.399 26.6687C193.44 25.8262 193.78 25.1196 194.391 24.5489C195.003 23.9782 195.832 23.72 196.864 23.7879C198.237 23.8695 199.609 23.951 200.982 24.0461C204.759 24.2907 206.499 26.2203 206.241 29.7669C205.928 33.9114 205.616 38.0559 205.317 42.2004C206.118 43.0429 207.083 43.7359 208.197 44.2931C209.312 44.8366 210.752 45.285 212.546 45.6383C214.34 45.9916 216.595 46.3314 219.34 46.6575C219.014 46.3042 218.742 45.8829 218.552 45.4209C218.362 44.9589 218.294 44.4425 218.348 43.8582C218.362 43.7088 218.375 43.5729 218.389 43.4234C215.236 43.1245 212.07 42.8391 208.904 42.5945C208.211 42.5401 207.627 42.2412 207.165 41.7248C206.703 41.1949 206.499 40.597 206.553 39.9176C206.608 39.2381 206.906 38.6674 207.436 38.219C207.98 37.7706 208.605 37.5803 209.312 37.6347C212.505 37.8929 215.685 38.1782 218.865 38.4772C218.905 37.988 218.96 37.4988 219 37.0232C216.772 36.8058 214.53 36.6019 212.301 36.4117C211.567 36.3438 210.956 36.0448 210.494 35.5013C210.032 34.9577 209.828 34.3327 209.882 33.6125C209.937 32.8923 210.236 32.3215 210.793 31.8731C211.336 31.4247 211.989 31.2345 212.736 31.3024C214.992 31.4926 217.248 31.6965 219.49 31.9139C219.503 31.7236 219.53 31.5198 219.544 31.3296C219.571 31.0035 219.653 30.7045 219.789 30.4191C217.057 30.161 214.326 29.9164 211.581 29.6854C210.834 29.6174 210.222 29.3321 209.76 28.8021C209.285 28.2722 209.081 27.6471 209.135 26.9405C209.189 26.2203 209.502 25.636 210.045 25.174C210.603 24.712 211.255 24.5081 212.002 24.5761C212.818 24.644 213.646 24.712 214.462 24.7799C214.353 24.5081 214.244 24.2364 214.149 23.9646C214.054 23.6928 213.973 23.4754 213.918 23.3123C213.782 22.8367 213.769 22.3883 213.878 21.9399C212.627 21.8312 211.364 21.7225 210.113 21.6273C209.352 21.573 208.741 21.2605 208.265 20.7169C207.79 20.1734 207.572 19.5483 207.627 18.8281C207.681 18.1079 207.98 17.5236 208.537 17.0888C209.094 16.6403 209.76 16.4501 210.521 16.5045C213.973 16.7762 217.424 17.0888 220.862 17.4149C220.903 16.9393 220.957 16.4773 220.998 16.0017C218.43 15.7571 215.861 15.5261 213.293 15.3087C212.532 15.2407 211.894 14.9418 211.404 14.3982C210.902 13.8547 210.684 13.216 210.739 12.5094C210.793 11.7892 211.119 11.2185 211.69 10.7701C212.274 10.3217 212.953 10.1314 213.714 10.1994C216.31 10.4168 218.892 10.6478 221.487 10.8924C221.501 10.7429 221.514 10.5934 221.528 10.4575C221.637 9.38405 222.085 8.58232 222.9 8.03878C223.716 7.49524 224.653 7.27781 225.713 7.38652C226.8 7.49523 227.684 7.90289 228.363 8.5959C229.029 9.28892 229.314 10.1722 229.192 11.2457C229.178 11.3952 229.165 11.531 229.151 11.6805C231.828 11.9659 234.505 12.2784 237.169 12.5909C237.93 12.6861 238.568 13.0122 239.044 13.5557C239.519 14.1129 239.723 14.7379 239.628 15.4581C239.533 16.1647 239.193 16.749 238.595 17.1839C237.998 17.6187 237.318 17.7954 236.557 17.7003C233.907 17.3877 231.257 17.0752 228.594 16.7898C228.54 17.2654 228.499 17.7274 228.445 18.203C232.263 18.6107 236.095 19.0591 239.914 19.5347C240.674 19.6298 241.286 19.956 241.734 20.5131C242.183 21.0702 242.373 21.6953 242.278 22.4019C242.183 23.1085 241.843 23.6928 241.272 24.1276C240.688 24.5625 240.022 24.7391 239.275 24.644C237.712 24.4538 236.149 24.2635 234.6 24.0733C234.655 24.5353 234.546 24.9837 234.288 25.4186C234.206 25.568 234.084 25.7719 233.962 26.0164C233.826 26.261 233.676 26.5056 233.513 26.7502C234.437 26.8589 235.361 26.9677 236.285 27.0764C237.033 27.1715 237.644 27.4976 238.093 28.0683C238.541 28.639 238.718 29.2777 238.636 29.9843C238.541 30.6909 238.215 31.2616 237.644 31.6829C237.073 32.1041 236.421 32.2672 235.674 32.1857C232.779 31.8324 229.885 31.5062 226.977 31.1937C227.031 31.3296 227.045 31.4791 227.031 31.6421C227.018 31.8052 226.991 31.9682 226.977 32.1313C226.95 32.3215 226.936 32.5254 226.909 32.7156C229.206 32.9602 231.516 33.2184 233.812 33.4902C234.56 33.5717 235.157 33.8978 235.606 34.4414C236.054 34.9849 236.231 35.6236 236.149 36.3302C236.068 37.0368 235.728 37.6211 235.171 38.0559C234.6 38.4908 233.962 38.6674 233.214 38.5859C230.931 38.3141 228.648 38.0559 226.366 37.8113C226.311 38.3005 226.257 38.7897 226.202 39.2653C229.858 39.6594 233.5 40.0806 237.141 40.5426C237.848 40.6242 238.419 40.9503 238.854 41.4938C239.288 42.0374 239.465 42.6624 239.384 43.3419C239.302 44.0213 238.976 44.5648 238.405 44.9861C237.848 45.4073 237.223 45.5704 236.516 45.4889C232.902 45.0404 229.287 44.6192 225.659 44.2251C225.645 44.3746 225.632 44.5105 225.618 44.66C225.496 45.8286 224.98 46.6711 224.096 47.201C226.583 47.432 228.784 47.6359 230.7 47.7853C232.63 47.9484 234.315 48.0707 235.783 48.1522C236.883 48.193 237.753 48.5463 238.392 49.1985C239.03 49.8508 239.288 50.6525 239.166 51.5901C239.044 52.5277 238.65 53.2615 237.998 53.8051C237.345 54.3486 236.394 54.5389 235.157 54.3758C230.632 53.8051 226.094 53.2887 221.555 52.8267L221.542 52.7587ZM201.784 16.4909C201.485 16.1783 201.063 15.7435 200.506 15.1864C199.949 14.6292 199.392 14.0857 198.848 13.5422C198.305 12.9986 197.87 12.5909 197.53 12.3056C196.864 11.7077 196.552 10.9875 196.606 10.145C196.661 9.30252 197.014 8.58232 197.68 7.99801C198.427 7.38653 199.283 7.0604 200.248 7.00604C201.226 6.95169 202.083 7.26423 202.803 7.93007C203.102 8.17466 203.55 8.58232 204.148 9.15304C204.746 9.72376 205.33 10.2809 205.901 10.8516C206.472 11.4223 206.893 11.8436 207.151 12.1153C207.871 12.822 208.17 13.6373 208.075 14.5341C207.966 15.4445 207.491 16.2055 206.648 16.8306C205.874 17.4013 205.031 17.6595 204.107 17.6323C203.183 17.6051 202.409 17.2247 201.756 16.4909H201.784ZM221.65 25.3914C223.213 25.5408 224.762 25.7039 226.325 25.867C226.542 25.5001 226.76 25.0652 227.004 24.5625C227.249 24.0597 227.48 23.6113 227.697 23.2036C225.401 22.959 223.091 22.728 220.794 22.497C220.93 22.9318 221.08 23.421 221.256 23.9646C221.433 24.5081 221.569 24.9837 221.664 25.3778L221.65 25.3914Z" fill="url(#paint11_linear_1417_731)"/>
<path d="M245.186 55.5989C244.371 55.0553 243.868 54.308 243.705 53.3432C243.542 52.3784 243.746 51.5087 244.316 50.7342C245.947 48.628 247.374 46.0733 248.597 43.0838C249.806 40.0943 250.757 36.3303 251.423 31.7781C251.532 31.0579 251.641 30.3242 251.736 29.604C252.103 27.0493 252.796 25.1197 253.815 23.8016C254.834 22.4835 256.247 21.6546 258.041 21.3285C259.835 20.9888 262.077 21.0432 264.727 21.478C267.363 21.9128 269.999 22.3612 272.635 22.8233C272.853 21.0024 273.124 19.1679 273.45 17.3063C273.641 16.2192 274.143 15.4447 274.959 14.9963C275.774 14.5478 276.725 14.4255 277.812 14.6158C278.859 14.806 279.701 15.2408 280.326 15.9067C280.965 16.5725 281.155 17.5101 280.924 18.7331C280.707 19.6571 280.53 20.5676 280.381 21.4644C280.231 22.3612 280.082 23.2717 279.946 24.1685C282.202 24.5898 284.444 25.0382 286.699 25.4866C286.659 25.4323 286.618 25.3643 286.577 25.31C286.387 25.0382 286.115 24.6849 285.775 24.2501C285.436 23.8152 285.096 23.3804 284.77 22.932C284.444 22.4835 284.199 22.1574 284.022 21.9672C283.479 21.3013 283.275 20.5404 283.438 19.7115C283.601 18.8826 284.036 18.2167 284.743 17.7275C285.49 17.2112 286.333 17.0074 287.27 17.1297C288.208 17.252 288.996 17.6596 289.648 18.3526C290.029 18.7603 290.518 19.3038 291.075 19.9968C291.646 20.6763 292.121 21.2878 292.502 21.8449C293.127 22.6738 293.317 23.5299 293.1 24.3995C292.882 25.2692 292.366 25.935 291.551 26.3971C291.51 26.4242 291.469 26.4514 291.428 26.4786C292.067 26.6145 292.692 26.7368 293.331 26.8727C294.431 27.1037 295.233 27.5929 295.736 28.3402C296.239 29.0876 296.388 29.9165 296.184 30.8405C295.981 31.7645 295.505 32.4711 294.744 32.9603C293.983 33.4495 293.059 33.5718 291.972 33.3408C287.719 32.444 283.452 31.5879 279.171 30.7726C278.886 35.0666 278.995 38.8849 279.484 42.2413C281.264 40.1895 282.84 37.9745 284.199 35.5829C284.661 34.6725 285.368 34.1018 286.333 33.8708C287.297 33.6398 288.235 33.7756 289.159 34.292C290.015 34.7676 290.586 35.4063 290.871 36.2216C291.157 37.0369 291.034 37.893 290.491 38.817C289.268 40.964 287.922 42.9887 286.455 44.8911C284.987 46.8071 283.384 48.56 281.658 50.1771C281.971 50.8701 282.283 51.5223 282.623 52.1474C282.963 52.7589 283.343 53.3704 283.764 53.9547C284.172 54.471 284.498 54.7156 284.743 54.702C284.987 54.6884 285.286 54.4167 285.626 53.8867C285.735 53.7101 285.857 53.5063 285.979 53.2888C286.115 53.0714 286.224 52.8676 286.333 52.6909C286.89 51.8349 287.624 51.3185 288.548 51.1282C289.472 50.938 290.355 51.0875 291.225 51.5767C292.149 52.1066 292.706 52.8132 292.91 53.6693C293.113 54.539 292.991 55.3543 292.556 56.1152C292.312 56.5908 292.04 57.0665 291.754 57.5421C291.469 58.0177 291.089 58.5884 290.64 59.2542C288.656 62.2301 286.577 63.5754 284.335 63.29C282.107 63.0047 280 61.4284 278.003 58.534C277.609 57.9633 277.228 57.3382 276.861 56.686C276.494 56.0337 276.141 55.3543 275.801 54.6613C273.124 56.3734 270.298 57.7187 267.308 58.7107C266.344 59.0368 265.42 59.0096 264.536 58.6156C263.653 58.2351 263.001 57.5692 262.593 56.6452C262.213 55.7212 262.226 54.8379 262.634 53.9954C263.042 53.1529 263.721 52.5822 264.645 52.2833C266.235 51.7261 267.757 51.0739 269.224 50.3129C270.692 49.552 272.092 48.6959 273.437 47.7447C272.798 45.1085 272.35 42.2549 272.105 39.1975C271.861 36.1401 271.833 32.8788 272.024 29.4409C269.292 28.9517 266.561 28.4897 263.83 28.0413C262.457 27.8103 261.397 27.8782 260.623 28.2179C259.848 28.5576 259.345 29.4953 259.101 31.0443C259.101 31.0715 259.101 31.1123 259.087 31.1395C260.568 31.3705 262.036 31.6151 263.517 31.8597C266.167 32.2945 267.974 33.1234 268.939 34.292C269.904 35.4742 270.094 37.2815 269.523 39.7274C269.265 41.0048 268.939 42.3229 268.572 43.6545C268.192 44.9998 267.77 46.25 267.295 47.4322C266.425 49.6607 265.243 51.1011 263.735 51.7533C262.24 52.4056 260.528 52.6094 258.612 52.3648C257.552 52.2289 256.655 51.8484 255.907 51.237C255.16 50.6255 254.807 49.7558 254.847 48.6415C254.875 47.5952 255.201 46.7663 255.812 46.1684C256.437 45.5705 257.171 45.2716 258.014 45.2852C259.074 45.2852 259.78 45.19 260.161 44.9862C260.541 44.7824 260.867 44.2932 261.166 43.5187C261.533 42.5539 261.873 41.426 262.185 40.1215C262.389 39.2654 262.362 38.6675 262.09 38.3414C261.819 38.0153 261.248 37.7843 260.365 37.6348C259.576 37.5125 258.788 37.3766 258 37.2543C257.144 41.1135 256.098 44.4291 254.847 47.2147C253.597 49.9868 252.143 52.4735 250.472 54.6613C249.847 55.4902 249.018 56.0065 247.985 56.224C246.952 56.4414 246.001 56.224 245.132 55.6125L245.186 55.5989Z" fill="url(#paint12_linear_1417_731)"/>
<path d="M299.256 62.774C298.155 62.5158 297.313 61.9315 296.715 61.0075C296.117 60.0835 295.94 59.0915 296.185 58.0044C296.429 56.9173 297.014 56.0884 297.965 55.5177C298.902 54.947 299.935 54.7839 301.049 55.0557C302.164 55.3139 303.033 55.9118 303.631 56.8494C304.243 57.787 304.406 58.7926 304.148 59.8661C303.889 60.9396 303.278 61.7685 302.327 62.3256C301.376 62.8827 300.343 63.0322 299.242 62.774H299.256ZM301.756 52.2565C300.18 51.8896 299.568 50.6666 299.949 48.574C301.022 42.7581 302.082 36.9557 303.128 31.1398C303.509 28.9928 304.841 28.1639 307.137 28.6939C309.529 29.251 310.426 30.5963 309.814 32.6889C308.184 38.369 306.566 44.049 304.963 49.7426C304.379 51.7809 303.305 52.6098 301.756 52.2565Z" fill="url(#paint13_linear_1417_731)"/>
</g>
</g>
<defs>
<filter id="filter0_d_1417_731" x="-10.25" y="-13.25" width="340.499" height="98.3291" filterUnits="userSpaceOnUse" color-interpolation-filters="sRGB">
<feFlood flood-opacity="0" result="BackgroundImageFix"/>
<feColorMatrix in="SourceAlpha" type="matrix" values="0 0 0 0 0 0 0 0 0 0 0 0 0 0 0 0 0 0 127 0" result="hardAlpha"/>
<feOffset/>
<feGaussianBlur stdDeviation="8"/>
<feComposite in2="hardAlpha" operator="out"/>
<feColorMatrix type="matrix" values="0 0 0 0 0.945098 0 0 0 0 0.854902 0 0 0 0 0.415686 0 0 0 0.5 0"/>
<feBlend mode="normal" in2="BackgroundImageFix" result="effect1_dropShadow_1417_731"/>
<feBlend mode="normal" in="SourceGraphic" in2="effect1_dropShadow_1417_731" result="shape"/>
</filter>
<filter id="filter1_d_1417_731" x="8" y="5" width="304" height="61.8286" filterUnits="userSpaceOnUse" color-interpolation-filters="sRGB">
<feFlood flood-opacity="0" result="BackgroundImageFix"/>
<feColorMatrix in="SourceAlpha" type="matrix" values="0 0 0 0 0 0 0 0 0 0 0 0 0 0 0 0 0 0 127 0" result="hardAlpha"/>
<feOffset/>
<feGaussianBlur stdDeviation="1"/>
<feComposite in2="hardAlpha" operator="out"/>
<feColorMatrix type="matrix" values="0 0 0 0 0.266667 0 0 0 0 0.266667 0 0 0 0 0.266667 0 0 0 0.25 0"/>
<feBlend mode="normal" in2="BackgroundImageFix" result="effect1_dropShadow_1417_731"/>
<feBlend mode="normal" in="SourceGraphic" in2="effect1_dropShadow_1417_731" result="shape"/>
</filter>
<linearGradient id="paint0_linear_1417_731" x1="159.985" y1="64.8255" x2="159.985" y2="7.00616" gradientUnits="userSpaceOnUse">
<stop stop-color="#D49E19"/>
<stop offset="1" stop-color="#F4D967"/>
</linearGradient>
<linearGradient id="paint1_linear_1417_731" x1="159.984" y1="64.8259" x2="159.984" y2="7.00659" gradientUnits="userSpaceOnUse">
<stop stop-color="#D49E19"/>
<stop offset="1" stop-color="#F4D967"/>
</linearGradient>
<linearGradient id="paint2_linear_1417_731" x1="159.985" y1="64.8254" x2="159.985" y2="7.00607" gradientUnits="userSpaceOnUse">
<stop stop-color="#D49E19"/>
<stop offset="1" stop-color="#F4D967"/>
</linearGradient>
<linearGradient id="paint3_linear_1417_731" x1="159.984" y1="64.8254" x2="159.984" y2="7.00605" gradientUnits="userSpaceOnUse">
<stop stop-color="#D49E19"/>
<stop offset="1" stop-color="#F4D967"/>
</linearGradient>
<linearGradient id="paint4_linear_1417_731" x1="159.985" y1="64.8254" x2="159.985" y2="7.00604" gradientUnits="userSpaceOnUse">
<stop stop-color="#D49E19"/>
<stop offset="1" stop-color="#F4D967"/>
</linearGradient>
<linearGradient id="paint5_linear_1417_731" x1="159.985" y1="64.8255" x2="159.985" y2="7.00617" gradientUnits="userSpaceOnUse">
<stop stop-color="#D49E19"/>
<stop offset="1" stop-color="#F4D967"/>
</linearGradient>
<linearGradient id="paint6_linear_1417_731" x1="159.985" y1="64.8254" x2="159.985" y2="7.00605" gradientUnits="userSpaceOnUse">
<stop stop-color="#D49E19"/>
<stop offset="1" stop-color="#F4D967"/>
</linearGradient>
<linearGradient id="paint7_linear_1417_731" x1="67.7307" y1="-28.4061" x2="283.993" y2="143.777" gradientUnits="userSpaceOnUse">
<stop stop-color="#FAFAF8"/>
<stop offset="1" stop-color="#FAFAF8"/>
</linearGradient>
<linearGradient id="paint8_linear_1417_731" x1="67.7305" y1="-28.4067" x2="283.993" y2="143.777" gradientUnits="userSpaceOnUse">
<stop stop-color="#FAFAF8"/>
<stop offset="1" stop-color="#FAFAF8"/>
</linearGradient>
<linearGradient id="paint9_linear_1417_731" x1="67.7307" y1="-28.4062" x2="283.993" y2="143.777" gradientUnits="userSpaceOnUse">
<stop stop-color="#FAFAF8"/>
<stop offset="1" stop-color="#FAFAF8"/>
</linearGradient>
<linearGradient id="paint10_linear_1417_731" x1="67.7304" y1="-28.4058" x2="283.993" y2="143.777" gradientUnits="userSpaceOnUse">
<stop stop-color="#FAFAF8"/>
<stop offset="1" stop-color="#FAFAF8"/>
</linearGradient>
<linearGradient id="paint11_linear_1417_731" x1="67.7307" y1="-28.4058" x2="283.993" y2="143.777" gradientUnits="userSpaceOnUse">
<stop stop-color="#FAFAF8"/>
<stop offset="1" stop-color="#FAFAF8"/>
</linearGradient>
<linearGradient id="paint12_linear_1417_731" x1="67.7307" y1="-28.4056" x2="283.993" y2="143.778" gradientUnits="userSpaceOnUse">
<stop stop-color="#FAFAF8"/>
<stop offset="1" stop-color="#FAFAF8"/>
</linearGradient>
<linearGradient id="paint13_linear_1417_731" x1="67.7306" y1="-28.4053" x2="283.993" y2="143.778" gradientUnits="userSpaceOnUse">
<stop stop-color="#FAFAF8"/>
<stop offset="1" stop-color="#FAFAF8"/>
</linearGradient>
</defs>
</svg>
