<svg width="245" height="55" viewBox="0 0 245 55" fill="none" xmlns="http://www.w3.org/2000/svg">
<g clip-path="url(#clip0_2568_1489)">
<path d="M217.626 0.6875H27.3743C12.6338 0.6875 0.684326 12.6919 0.684326 27.5C0.684326 42.3081 12.6338 54.3125 27.3743 54.3125H217.626C232.366 54.3125 244.316 42.3081 244.316 27.5C244.316 12.6919 232.366 0.6875 217.626 0.6875Z" fill="white"/>
<mask id="mask0_2568_1489" style="mask-type:luminance" maskUnits="userSpaceOnUse" x="16" y="13" width="28" height="29">
<path d="M43.7989 13.75H16.4246V41.25H43.7989V13.75Z" fill="white"/>
</mask>
<g mask="url(#mask0_2568_1489)">
<path d="M43.2515 27.8126C43.2515 26.8375 43.1644 25.9001 43.0026 25H30.1118V30.3188H37.478C37.1607 32.0375 36.1964 33.4938 34.7468 34.4688V37.9188H39.1702C41.7584 35.5251 43.2515 32 43.2515 27.8126Z" fill="#4285F4"/>
<path d="M30.1118 41.2498C33.8073 41.2498 36.9055 40.0185 39.17 37.9186L34.7466 34.4686C33.5211 35.2936 31.9532 35.781 30.1118 35.781C26.5468 35.781 23.5295 33.3623 22.4531 30.1123H17.8804V33.6748C20.1326 38.1686 24.7613 41.2498 30.1118 41.2498Z" fill="#34A853"/>
<path d="M22.4531 30.1127C22.1793 29.2877 22.0238 28.4064 22.0238 27.5002C22.0238 26.5939 22.1793 25.7127 22.4531 24.8877V21.3252H17.8803C16.9534 23.1814 16.4246 25.2815 16.4246 27.5002C16.4246 29.7189 16.9534 31.8189 17.8803 33.6752L22.4531 30.1127Z" fill="#FBBC04"/>
<path d="M30.1118 19.2188C32.1212 19.2188 33.9254 19.9125 35.3439 21.275L39.2697 17.3312C36.8994 15.1125 33.801 13.75 30.1118 13.75C24.7613 13.75 20.1326 16.8312 17.8804 21.325L22.4531 24.8875C23.5295 21.6376 26.5468 19.2188 30.1118 19.2188Z" fill="#E94235"/>
</g>
<path d="M66.0377 30.8502C66.0377 30.5682 65.9941 30.3177 65.9068 30.0982C65.8257 29.8789 65.6791 29.6784 65.4671 29.4966C65.255 29.315 64.9556 29.1395 64.5688 28.9703C64.1883 28.7948 63.7017 28.6162 63.1092 28.4346C62.4605 28.2341 61.8616 28.0116 61.3128 27.7672C60.7701 27.5165 60.2961 27.2283 59.8906 26.9024C59.4852 26.5704 59.1702 26.1913 58.9456 25.7652C58.721 25.3327 58.6088 24.8346 58.6088 24.2707C58.6088 23.713 58.7241 23.2053 58.9549 22.7479C59.192 22.2905 59.5257 21.8958 59.9561 21.5636C60.3927 21.2252 60.9074 20.9652 61.4999 20.7834C62.0925 20.5954 62.7475 20.5015 63.4648 20.5015C64.4752 20.5015 65.3454 20.6895 66.0752 21.0654C66.8113 21.4415 67.3758 21.9458 67.7687 22.5787C68.168 23.2117 68.3676 23.9103 68.3676 24.6748H66.0377C66.0377 24.2236 65.9411 23.8257 65.7477 23.481C65.5606 23.1301 65.2737 22.8544 64.8869 22.6539C64.5064 22.4535 64.023 22.3531 63.4368 22.3531C62.8816 22.3531 62.4199 22.4378 62.0519 22.6069C61.684 22.7762 61.4094 23.0048 61.2286 23.293C61.0477 23.5814 60.9572 23.9071 60.9572 24.2707C60.9572 24.5275 61.0165 24.7625 61.135 24.9756C61.2535 25.1824 61.4345 25.3766 61.6777 25.5584C61.9209 25.7338 62.2265 25.8999 62.5946 26.0565C62.9626 26.2131 63.3961 26.3636 63.8951 26.5077C64.6499 26.7333 65.3079 26.984 65.8694 27.2596C66.4308 27.5291 66.8987 27.8362 67.2729 28.1808C67.6471 28.5255 67.9278 28.9171 68.1149 29.3557C68.302 29.7881 68.3956 30.28 68.3956 30.8315C68.3956 31.4079 68.2802 31.9281 68.0495 32.3917C67.8187 32.8492 67.488 33.2408 67.0577 33.5666C66.6335 33.8862 66.1221 34.1337 65.5232 34.3091C64.9306 34.4784 64.2695 34.563 63.5397 34.563C62.8846 34.563 62.2391 34.4752 61.6028 34.2998C60.9728 34.1243 60.399 33.858 59.8813 33.5009C59.3635 33.1374 58.9519 32.6862 58.6463 32.1474C58.3405 31.6022 58.1877 30.9661 58.1877 30.2393H60.5362C60.5362 30.6842 60.6111 31.0633 60.7608 31.3765C60.9167 31.6899 61.1319 31.9467 61.4064 32.1474C61.6808 32.3417 61.9989 32.4857 62.3607 32.5797C62.7287 32.6737 63.1217 32.7207 63.5397 32.7207C64.0886 32.7207 64.5471 32.6424 64.915 32.4857C65.2893 32.329 65.5699 32.1097 65.7571 31.8278C65.9443 31.5458 66.0377 31.2199 66.0377 30.8502ZM72.6622 24.2048V34.375H70.3979V24.2048H72.6622ZM70.2482 21.5354C70.2482 21.1908 70.3604 20.9056 70.585 20.68C70.8158 20.4482 71.134 20.3323 71.5394 20.3323C71.9385 20.3323 72.2536 20.4482 72.4844 20.68C72.7151 20.9056 72.8305 21.1908 72.8305 21.5354C72.8305 21.8738 72.7151 22.1558 72.4844 22.3813C72.2536 22.6069 71.9385 22.7197 71.5394 22.7197C71.134 22.7197 70.8158 22.6069 70.585 22.3813C70.3604 22.1558 70.2482 21.8738 70.2482 21.5354ZM81.6163 24.2048H83.6654V34.093C83.6654 35.0079 83.472 35.7849 83.0852 36.424C82.6986 37.0633 82.159 37.5489 81.4666 37.881C80.7741 38.2194 79.9726 38.3885 79.062 38.3885C78.6752 38.3885 78.2449 38.3321 77.7708 38.2194C77.3029 38.1066 76.8476 37.9248 76.4048 37.6742C75.9682 37.4298 75.6033 37.1071 75.3101 36.706L76.3673 35.3713C76.729 35.8038 77.1283 36.1202 77.5649 36.3206C78.0015 36.5212 78.4601 36.6215 78.9403 36.6215C79.4581 36.6215 79.8978 36.5244 80.2596 36.3301C80.6277 36.1421 80.9114 35.8633 81.111 35.4936C81.3107 35.1238 81.4105 34.6727 81.4105 34.14V26.5077L81.6163 24.2048ZM74.7393 29.4027V29.2053C74.7393 28.4346 74.8328 27.7328 75.0199 27.0999C75.2072 26.4606 75.4753 25.9124 75.8246 25.455C76.1739 24.9913 76.5981 24.6372 77.0971 24.3928C77.5961 24.1421 78.1606 24.0169 78.7906 24.0169C79.4455 24.0169 80.0038 24.1359 80.4655 24.3741C80.9333 24.6121 81.3231 24.9536 81.6351 25.3986C81.9469 25.8372 82.1902 26.3636 82.3649 26.9776C82.5457 27.5855 82.6798 28.2623 82.7671 29.008V29.6377C82.6861 30.3645 82.5488 31.0288 82.3554 31.6304C82.162 32.2319 81.9063 32.7521 81.5883 33.1907C81.2702 33.6293 80.8771 33.9677 80.4092 34.2059C79.9477 34.4439 79.4019 34.563 78.772 34.563C78.1544 34.563 77.5961 34.4345 77.0971 34.1775C76.6044 33.9207 76.1802 33.5604 75.8246 33.0967C75.4753 32.633 75.2072 32.0878 75.0199 31.4612C74.8328 30.8283 74.7393 30.1421 74.7393 29.4027ZM76.9942 29.2053V29.4027C76.9942 29.8664 77.0378 30.2988 77.1251 30.6998C77.2188 31.1009 77.3591 31.4549 77.5462 31.7619C77.7396 32.0628 77.9829 32.3008 78.2761 32.4763C78.5754 32.6455 78.9279 32.7301 79.3333 32.7301C79.8635 32.7301 80.297 32.6173 80.6339 32.3917C80.977 32.1662 81.239 31.8622 81.4198 31.4799C81.6069 31.0915 81.738 30.6591 81.8127 30.1829V28.4816C81.7754 28.1119 81.6973 27.7672 81.5788 27.4476C81.4666 27.1281 81.3138 26.8492 81.1204 26.6111C80.927 26.3667 80.6838 26.1788 80.3906 26.0472C80.0975 25.9093 79.7513 25.8404 79.3521 25.8404C78.9466 25.8404 78.5942 25.9281 78.2947 26.1035C77.9954 26.279 77.749 26.5202 77.5556 26.8272C77.3685 27.1343 77.2281 27.4915 77.1346 27.8988C77.041 28.3062 76.9942 28.7416 76.9942 29.2053ZM88.2406 26.3761V34.375H85.9858V24.2048H88.1096L88.2406 26.3761ZM87.8384 28.9139L87.1086 28.9046C87.1147 28.1839 87.2146 27.5228 87.4079 26.9213C87.6076 26.3197 87.882 25.8027 88.2313 25.3704C88.5869 24.938 89.0111 24.6059 89.5038 24.3741C89.9965 24.1359 90.5454 24.0169 91.1505 24.0169C91.6371 24.0169 92.0769 24.0857 92.4698 24.2237C92.8689 24.3552 93.2089 24.5714 93.4896 24.8722C93.7765 25.1729 93.9948 25.5645 94.1446 26.0472C94.2943 26.5233 94.3692 27.1092 94.3692 27.8048V34.375H92.1049V27.7954C92.1049 27.3067 92.0332 26.9213 91.8896 26.6393C91.7525 26.3511 91.5498 26.1474 91.2815 26.0283C91.0195 25.9029 90.692 25.8404 90.299 25.8404C89.9124 25.8404 89.5662 25.9218 89.2604 26.0847C88.9548 26.2476 88.696 26.4701 88.484 26.7521C88.2781 27.034 88.1191 27.3599 88.0067 27.7296C87.8945 28.0994 87.8384 28.4941 87.8384 28.9139ZM107.534 31.9781V24.2048H109.798V34.375H107.665L107.534 31.9781ZM107.852 29.8633L108.61 29.8445C108.61 30.5275 108.535 31.1572 108.385 31.7338C108.235 32.304 108.005 32.8021 107.693 33.2283C107.381 33.6482 106.982 33.9771 106.495 34.2152C106.009 34.4471 105.425 34.563 104.745 34.563C104.253 34.563 103.8 34.4909 103.389 34.3468C102.977 34.2027 102.622 33.9802 102.322 33.6794C102.029 33.3787 101.801 32.9871 101.639 32.5045C101.477 32.022 101.396 31.4456 101.396 30.775V24.2048H103.651V30.7938C103.651 31.1636 103.694 31.4738 103.782 31.7244C103.869 31.9688 103.988 32.1662 104.137 32.3165C104.287 32.4669 104.462 32.5735 104.661 32.6362C104.861 32.6987 105.073 32.7301 105.297 32.7301C105.94 32.7301 106.445 32.6048 106.813 32.3542C107.187 32.0972 107.453 31.7526 107.608 31.3202C107.771 30.8879 107.852 30.4022 107.852 29.8633ZM114.373 26.1599V38.2852H112.118V24.2048H114.195L114.373 26.1599ZM120.969 29.1959V29.3934C120.969 30.1327 120.882 30.8188 120.708 31.4518C120.539 32.0785 120.286 32.6267 119.95 33.0967C119.619 33.5604 119.211 33.9207 118.724 34.1775C118.237 34.4345 117.676 34.563 117.04 34.563C116.41 34.563 115.858 34.4471 115.384 34.2152C114.916 33.9771 114.52 33.6418 114.195 33.2094C113.871 32.7771 113.609 32.2696 113.41 31.6867C113.216 31.0977 113.079 30.4523 112.998 29.7505V28.9891C113.079 28.2435 113.216 27.5667 113.41 26.9588C113.609 26.351 113.871 25.8279 114.195 25.3891C114.52 24.9505 114.916 24.6121 115.384 24.3741C115.852 24.1359 116.397 24.0169 117.021 24.0169C117.657 24.0169 118.222 24.1421 118.715 24.3928C119.207 24.6372 119.622 24.9881 119.959 25.4456C120.296 25.8967 120.548 26.4419 120.717 27.081C120.885 27.7139 120.969 28.4189 120.969 29.1959ZM118.715 29.3934V29.1959C118.715 28.726 118.671 28.2905 118.584 27.8894C118.496 27.4821 118.359 27.1249 118.172 26.8179C117.985 26.5108 117.745 26.2727 117.451 26.1035C117.165 25.9281 116.818 25.8404 116.413 25.8404C116.014 25.8404 115.671 25.9093 115.384 26.0472C115.097 26.1788 114.857 26.3636 114.663 26.6017C114.47 26.8399 114.32 27.1187 114.214 27.4383C114.108 27.7515 114.033 28.093 113.99 28.4628V30.2863C114.064 30.7374 114.192 31.151 114.373 31.527C114.554 31.9029 114.81 32.2037 115.14 32.4294C115.477 32.6487 115.908 32.7583 116.432 32.7583C116.837 32.7583 117.183 32.6705 117.47 32.4951C117.757 32.3196 117.991 32.0785 118.172 31.7713C118.359 31.4581 118.496 31.0977 118.584 30.6904C118.671 30.2831 118.715 29.8507 118.715 29.3934ZM130.41 32.1192L132.749 24.2048H134.19L133.797 26.5735L131.439 34.375H130.148L130.41 32.1192ZM129.035 24.2048L130.859 32.1567L131.009 34.375H129.568L126.827 24.2048H129.035ZM136.38 32.0628L138.148 24.2048H140.347L137.615 34.375H136.174L136.38 32.0628ZM134.434 24.2048L136.744 32.0251L137.034 34.375H135.743L133.357 26.564L132.964 24.2048H134.434ZM144.295 24.2048V34.375H142.032V24.2048H144.295ZM141.881 21.5354C141.881 21.1908 141.993 20.9056 142.218 20.68C142.449 20.4482 142.767 20.3323 143.173 20.3323C143.571 20.3323 143.886 20.4482 144.117 20.68C144.349 20.9056 144.464 21.1908 144.464 21.5354C144.464 21.8738 144.349 22.1558 144.117 22.3813C143.886 22.6069 143.571 22.7197 143.173 22.7197C142.767 22.7197 142.449 22.6069 142.218 22.3813C141.993 22.1558 141.881 21.8738 141.881 21.5354ZM151.406 24.2048V25.8591H145.698V24.2048H151.406ZM147.345 21.714H149.601V31.5646C149.601 31.8779 149.644 32.1192 149.732 32.2883C149.825 32.4512 149.952 32.561 150.115 32.6173C150.277 32.6737 150.467 32.7019 150.686 32.7019C150.842 32.7019 150.991 32.6925 151.135 32.6737C151.279 32.6549 151.394 32.6362 151.481 32.6173L151.491 34.3468C151.303 34.4032 151.084 34.4534 150.835 34.4972C150.591 34.5411 150.311 34.563 149.993 34.563C149.476 34.563 149.017 34.4721 148.618 34.2904C148.218 34.1025 147.906 33.7985 147.682 33.3787C147.457 32.9589 147.345 32.4012 147.345 31.7056V21.714ZM155.374 19.9375V34.375H153.128V19.9375H155.374ZM154.98 28.9139L154.25 28.9046C154.257 28.2028 154.353 27.5542 154.54 26.9588C154.733 26.3636 155.001 25.8466 155.345 25.4079C155.694 24.963 156.113 24.6216 156.599 24.3834C157.086 24.1391 157.625 24.0169 158.218 24.0169C158.716 24.0169 159.165 24.0857 159.565 24.2237C159.97 24.3614 160.32 24.5839 160.613 24.8909C160.906 25.1918 161.128 25.5865 161.277 26.0754C161.433 26.5578 161.511 27.1469 161.511 27.8424V34.375H159.247V27.8237C159.247 27.3349 159.175 26.9463 159.031 26.6581C158.894 26.3699 158.692 26.1631 158.423 26.0377C158.155 25.9061 157.828 25.8404 157.441 25.8404C157.035 25.8404 156.677 25.9218 156.365 26.0847C156.059 26.2476 155.804 26.4701 155.598 26.7521C155.392 27.034 155.236 27.3599 155.13 27.7296C155.03 28.0994 154.98 28.4941 154.98 28.9139ZM179.251 27.3819V32.6079C179.058 32.8648 178.756 33.1468 178.344 33.4539C177.938 33.7546 177.398 34.0147 176.724 34.2341C176.051 34.4534 175.212 34.563 174.207 34.563C173.353 34.563 172.57 34.4189 171.859 34.1307C171.148 33.8361 170.534 33.4069 170.016 32.8428C169.504 32.279 169.109 31.5928 168.828 30.7845C168.548 29.9698 168.407 29.0423 168.407 28.0021V27.0529C168.407 26.019 168.534 25.0977 168.79 24.2894C169.053 23.4748 169.426 22.7855 169.914 22.2215C170.4 21.6576 170.985 21.2315 171.672 20.9432C172.365 20.6488 173.148 20.5015 174.021 20.5015C175.137 20.5015 176.061 20.6895 176.79 21.0654C177.526 21.4352 178.094 21.949 178.493 22.6069C178.892 23.2649 179.144 24.0169 179.251 24.8628H176.949C176.875 24.3866 176.727 23.9605 176.509 23.5844C176.297 23.2085 175.992 22.914 175.592 22.701C175.2 22.4817 174.688 22.3719 174.058 22.3719C173.515 22.3719 173.038 22.4753 172.626 22.6821C172.214 22.8889 171.872 23.1928 171.597 23.5939C171.329 23.9949 171.126 24.4837 170.989 25.0602C170.851 25.6367 170.783 26.2947 170.783 27.034V28.0021C170.783 28.7541 170.861 29.4216 171.017 30.0043C171.18 30.587 171.41 31.079 171.709 31.4799C172.015 31.881 172.387 32.1849 172.824 32.3917C173.26 32.5923 173.753 32.6925 174.302 32.6925C174.838 32.6925 175.278 32.6487 175.621 32.561C175.963 32.4669 176.234 32.3573 176.434 32.2319C176.641 32.1003 176.8 31.9751 176.912 31.856V29.1396H174.077V27.3819H179.251ZM181.197 29.4027V29.1866C181.197 28.4534 181.303 27.7735 181.515 27.1469C181.727 26.514 182.032 25.9656 182.432 25.502C182.837 25.032 183.33 24.6686 183.91 24.4116C184.497 24.1484 185.158 24.0169 185.893 24.0169C186.637 24.0169 187.298 24.1484 187.878 24.4116C188.464 24.6686 188.959 25.032 189.366 25.502C189.771 25.9656 190.079 26.514 190.291 27.1469C190.503 27.7735 190.61 28.4534 190.61 29.1866V29.4027C190.61 30.1359 190.503 30.8158 190.291 31.4424C190.079 32.069 189.771 32.6173 189.366 33.0873C188.959 33.551 188.467 33.9144 187.886 34.1775C187.307 34.4345 186.649 34.563 185.913 34.563C185.171 34.563 184.505 34.4345 183.92 34.1775C183.339 33.9144 182.847 33.551 182.441 33.0873C182.036 32.6173 181.727 32.069 181.515 31.4424C181.303 30.8158 181.197 30.1359 181.197 29.4027ZM183.452 29.1866V29.4027C183.452 29.8602 183.498 30.2925 183.593 30.6998C183.686 31.1072 183.832 31.4643 184.032 31.7713C184.232 32.0785 184.488 32.3196 184.8 32.4951C185.11 32.6705 185.483 32.7583 185.913 32.7583C186.33 32.7583 186.693 32.6705 186.998 32.4951C187.31 32.3196 187.566 32.0785 187.766 31.7713C187.964 31.4643 188.112 31.1072 188.205 30.6998C188.305 30.2925 188.354 29.8602 188.354 29.4027V29.1866C188.354 28.7353 188.305 28.3092 188.205 27.9082C188.112 27.501 187.962 27.1406 187.756 26.8272C187.556 26.514 187.3 26.2695 186.988 26.0941C186.683 25.9124 186.318 25.8215 185.893 25.8215C185.47 25.8215 185.102 25.9124 184.79 26.0941C184.484 26.2695 184.232 26.514 184.032 26.8272C183.832 27.1406 183.686 27.501 183.593 27.9082C183.498 28.3092 183.452 28.7353 183.452 29.1866ZM192.069 29.4027V29.1866C192.069 28.4534 192.176 27.7735 192.388 27.1469C192.599 26.514 192.905 25.9656 193.304 25.502C193.71 25.032 194.203 24.6686 194.783 24.4116C195.369 24.1484 196.03 24.0169 196.766 24.0169C197.508 24.0169 198.169 24.1484 198.75 24.4116C199.336 24.6686 199.832 25.032 200.238 25.502C200.643 25.9656 200.952 26.514 201.164 27.1469C201.376 27.7735 201.482 28.4534 201.482 29.1866V29.4027C201.482 30.1359 201.376 30.8158 201.164 31.4424C200.952 32.069 200.643 32.6173 200.238 33.0873C199.832 33.551 199.34 33.9144 198.759 34.1775C198.179 34.4345 197.521 34.563 196.784 34.563C196.042 34.563 195.379 34.4345 194.791 34.1775C194.212 33.9144 193.72 33.551 193.313 33.0873C192.908 32.6173 192.599 32.069 192.388 31.4424C192.176 30.8158 192.069 30.1359 192.069 29.4027ZM194.325 29.1866V29.4027C194.325 29.8602 194.371 30.2925 194.464 30.6998C194.557 31.1072 194.705 31.4643 194.904 31.7713C195.103 32.0785 195.359 32.3196 195.671 32.4951C195.984 32.6705 196.354 32.7583 196.784 32.7583C197.203 32.7583 197.564 32.6705 197.87 32.4951C198.182 32.3196 198.438 32.0785 198.637 31.7713C198.837 31.4643 198.984 31.1072 199.077 30.6998C199.177 30.2925 199.227 29.8602 199.227 29.4027V29.1866C199.227 28.7353 199.177 28.3092 199.077 27.9082C198.984 27.501 198.835 27.1406 198.628 26.8272C198.428 26.514 198.172 26.2695 197.861 26.0941C197.555 25.9124 197.191 25.8215 196.766 25.8215C196.342 25.8215 195.974 25.9124 195.662 26.0941C195.357 26.2695 195.103 26.514 194.904 26.8272C194.705 27.1406 194.557 27.501 194.464 27.9082C194.371 28.3092 194.325 28.7353 194.325 29.1866ZM209.855 24.2048H211.904V34.093C211.904 35.0079 211.711 35.7849 211.324 36.424C210.938 37.0633 210.399 37.5489 209.706 37.881C209.014 38.2194 208.212 38.3885 207.301 38.3885C206.914 38.3885 206.484 38.3321 206.011 38.2194C205.543 38.1066 205.087 37.9248 204.645 37.6742C204.208 37.4298 203.843 37.1071 203.55 36.706L204.606 35.3713C204.969 35.8038 205.367 36.1202 205.804 36.3206C206.241 36.5212 206.699 36.6215 207.18 36.6215C207.697 36.6215 208.138 36.5244 208.499 36.3301C208.867 36.1421 209.151 35.8633 209.35 35.4936C209.55 35.1238 209.65 34.6727 209.65 34.14V26.5077L209.855 24.2048ZM202.979 29.4027V29.2053C202.979 28.4346 203.072 27.7328 203.26 27.0999C203.447 26.4606 203.715 25.9124 204.064 25.455C204.413 24.9913 204.838 24.6372 205.336 24.3928C205.836 24.1421 206.401 24.0169 207.03 24.0169C207.685 24.0169 208.243 24.1359 208.704 24.3741C209.172 24.6121 209.563 24.9536 209.875 25.3986C210.187 25.8372 210.43 26.3636 210.604 26.9776C210.785 27.5855 210.919 28.2623 211.007 29.008V29.6377C210.926 30.3645 210.789 31.0288 210.595 31.6304C210.402 32.2319 210.146 32.7521 209.828 33.1907C209.509 33.6293 209.116 33.9677 208.648 34.2059C208.187 34.4439 207.641 34.563 207.011 34.563C206.394 34.563 205.836 34.4345 205.336 34.1775C204.843 33.9207 204.42 33.5604 204.064 33.0967C203.715 32.633 203.447 32.0878 203.26 31.4612C203.072 30.8283 202.979 30.1421 202.979 29.4027ZM205.233 29.2053V29.4027C205.233 29.8664 205.277 30.2988 205.365 30.6998C205.458 31.1009 205.599 31.4549 205.786 31.7619C205.979 32.0628 206.223 32.3008 206.516 32.4763C206.816 32.6455 207.167 32.7301 207.572 32.7301C208.104 32.7301 208.536 32.6173 208.873 32.3917C209.216 32.1662 209.479 31.8622 209.66 31.4799C209.846 31.0915 209.977 30.6591 210.053 30.1829V28.4816C210.014 28.1119 209.936 27.7672 209.819 27.4476C209.706 27.1281 209.553 26.8492 209.36 26.6111C209.167 26.3667 208.923 26.1788 208.63 26.0472C208.338 25.9093 207.991 25.8404 207.592 25.8404C207.186 25.8404 206.833 25.9281 206.534 26.1035C206.235 26.279 205.989 26.5202 205.794 26.8272C205.608 27.1343 205.467 27.4915 205.374 27.8988C205.28 28.3062 205.233 28.7416 205.233 29.2053ZM216.658 19.9375V34.375H214.394V19.9375H216.658ZM223.591 34.563C222.843 34.563 222.166 34.4409 221.561 34.1964C220.963 33.9457 220.451 33.598 220.026 33.153C219.609 32.7082 219.287 32.1849 219.063 31.5833C218.838 30.9818 218.726 30.3332 218.726 29.6377V29.2617C218.726 28.4659 218.841 27.7453 219.072 27.0999C219.302 26.4544 219.624 25.9029 220.036 25.4456C220.448 24.9818 220.934 24.6278 221.495 24.3834C222.056 24.1391 222.665 24.0169 223.32 24.0169C224.044 24.0169 224.676 24.1391 225.219 24.3834C225.761 24.6278 226.21 24.9725 226.566 25.4174C226.929 25.856 227.197 26.3792 227.371 26.9871C227.552 27.5949 227.642 28.2653 227.642 28.9985V29.9666H219.821V28.3405H225.415V28.1619C225.403 27.7546 225.322 27.3724 225.173 27.0153C225.029 26.6581 224.807 26.3699 224.508 26.1506C224.209 25.9311 223.81 25.8215 223.31 25.8215C222.936 25.8215 222.602 25.9029 222.309 26.0659C222.022 26.2226 221.782 26.4513 221.589 26.7521C221.395 27.0529 221.246 27.4163 221.139 27.8424C221.039 28.2623 220.99 28.7353 220.99 29.2617V29.6377C220.99 30.0827 221.049 30.4961 221.168 30.8784C221.292 31.2544 221.473 31.5833 221.71 31.8654C221.948 32.1474 222.234 32.3698 222.571 32.5328C222.908 32.6894 223.292 32.7678 223.722 32.7678C224.265 32.7678 224.748 32.658 225.173 32.4387C225.597 32.2194 225.964 31.9092 226.276 31.5081L227.464 32.6644C227.246 32.9839 226.963 33.291 226.613 33.5855C226.264 33.8737 225.837 34.1087 225.332 34.2904C224.832 34.4721 224.252 34.563 223.591 34.563Z" fill="#1F1F1F"/>
<path d="M217.626 0.6875H27.3743C12.6338 0.6875 0.684326 12.6919 0.684326 27.5C0.684326 42.3081 12.6338 54.3125 27.3743 54.3125H217.626C232.366 54.3125 244.316 42.3081 244.316 27.5C244.316 12.6919 232.366 0.6875 217.626 0.6875Z" stroke="#747775"/>
</g>
<defs>
<clipPath id="clip0_2568_1489">
<rect width="245" height="55" fill="white"/>
</clipPath>
</defs>
</svg>
